<svg width="762" height="762" viewBox="0 0 762 762" fill="none" xmlns="http://www.w3.org/2000/svg">
<g clip-path="url(#clip0_5_2513)">
<path d="M92.2759 472.399C142.994 631.862 313.379 720.017 472.842 669.299C632.305 618.582 720.461 448.197 669.743 288.733C619.025 129.27 448.64 41.1148 289.177 91.8326C129.714 142.55 41.5582 312.936 92.2759 472.399Z" fill="#010101"/>
<path d="M289.759 409.588C305.788 459.984 359.636 487.845 410.032 471.816C460.428 455.788 488.288 401.94 472.26 351.544C456.231 301.148 402.383 273.287 351.987 289.316C301.591 305.344 273.731 359.192 289.759 409.588Z" fill="#CA9E67"/>
<path d="M140.121 456.604C182.226 588.987 323.676 662.172 456.059 620.067C588.442 577.962 661.627 436.512 619.522 304.129C577.418 171.746 435.967 98.5609 303.584 140.666C171.201 182.771 98.0162 324.221 140.121 456.604Z" stroke="#1C1C1C" stroke-width="0.6" stroke-miterlimit="10"/>
<path d="M161.92 449.671C200.05 569.558 328.148 635.834 448.035 597.704C567.922 559.574 634.199 431.475 596.068 311.589C557.938 191.702 429.84 125.425 309.953 163.555C190.066 201.686 123.789 329.784 161.92 449.671Z" stroke="#1C1C1C" stroke-width="0.6" stroke-miterlimit="10"/>
<path d="M186.084 441.864C220.08 548.752 334.288 607.842 441.176 573.846C548.064 539.85 607.155 425.641 573.159 318.754C539.163 211.866 424.954 152.775 318.066 186.771C211.178 220.767 152.088 334.976 186.084 441.864Z" stroke="#1C1C1C" stroke-width="0.6" stroke-miterlimit="10"/>
<path d="M210.315 433.792C240.051 527.285 339.947 578.97 433.44 549.234C526.932 519.499 578.617 419.603 548.882 326.11C519.146 232.618 419.25 180.932 325.757 210.668C232.265 240.404 180.58 340.3 210.315 433.792Z" stroke="#1C1C1C" stroke-width="0.6" stroke-miterlimit="10"/>
<path d="M238.19 425.808C263.225 504.518 347.326 548.031 426.037 522.997C504.747 497.963 548.261 413.862 523.226 335.151C498.192 256.441 414.091 212.927 335.38 237.961C256.67 262.995 213.156 347.097 238.19 425.808Z" stroke="#1C1C1C" stroke-width="0.6" stroke-miterlimit="10"/>
<path d="M264.356 416.939C284.766 481.111 353.334 516.587 417.506 496.177C481.679 475.767 517.155 407.199 496.745 343.027C476.334 278.854 407.767 243.378 343.594 263.788C279.422 284.199 243.946 352.766 264.356 416.939Z" stroke="#1C1C1C" stroke-width="0.6" stroke-miterlimit="10"/>
<path d="M399.771 332.273C399.464 331.308 399.074 330.368 398.573 329.555L405.25 327.432C403.049 330.35 402.055 335.345 402.687 337.332C402.889 337.966 403.26 338.274 403.812 338.098C405.909 337.431 402.945 327.922 409.347 325.886C412.851 324.771 415.336 326.472 416.776 330.997C417.293 332.625 417.624 334.525 418.168 336.236C418.441 337.092 418.759 337.902 419.207 338.641L414.102 340.264C416.109 338.167 416.233 334.451 415.558 332.327C415.215 331.251 414.666 330.574 414.059 330.768C412.266 331.338 415.93 341.141 408.811 343.405C405.528 344.45 402.731 342.726 401.467 338.753C400.774 336.573 400.403 334.26 399.754 332.218" fill="#010101"/>
<path d="M405.688 346.1C407.231 345.792 409.216 345.252 411.139 344.61L414.754 343.46L414.315 342.08L415.695 341.642C416.783 345.063 420.07 347.087 422.474 348.722L418.362 350.03L418.775 351.327L417.395 351.766L416.983 350.469L414.831 351.153C412.182 351.996 409.44 352.929 408.058 353.55C406.998 354.039 406.974 354.442 406.861 354.66L404.07 345.886C404.289 345.999 404.541 346.313 405.688 346.1Z" fill="#010101"/>
<path d="M409.116 356.495C410 355.454 410.802 355.108 413.202 354.345C415.382 353.651 416.487 353.209 417.657 352.685C418.745 352.187 418.741 351.793 418.854 351.575L421.645 360.35C421.427 360.237 421.202 359.913 420.027 360.135C418.788 360.347 417.722 360.625 415.569 361.31C413.638 361.924 411.927 362.468 412.182 363.268C412.41 363.986 413.669 363.646 415.242 363.146L421.864 361.039L424.374 368.931C424.156 368.818 423.931 368.494 422.765 368.744C421.526 368.956 420.46 369.234 418.307 369.919C415.962 370.665 415.041 371.018 413.797 371.596C412.765 372.076 412.714 372.488 412.592 372.678L410.082 364.787L411.213 364.427C410.067 363.88 409.121 362.722 408.507 360.791C407.972 359.108 408.213 357.572 409.107 356.468" fill="#010101"/>
<path d="M421.639 380.01C425.557 378.764 426.219 378.553 425.965 377.753C425.71 376.953 425.047 377.255 421.156 378.492C417.265 379.73 416.438 379.993 416.683 380.766C416.929 381.538 417.72 381.256 421.639 380.01ZM418.672 371.352C422.48 370.141 425.677 372.072 427.055 376.404C427.248 377.011 427.377 377.608 427.452 378.131C428.556 377.78 429.366 377.461 429.688 377.328C430.721 376.848 430.744 376.446 430.885 376.219L433.676 384.993C433.43 384.889 433.205 384.565 432.067 384.806C429.202 385.353 421.917 387.669 419.263 388.878C418.204 389.367 418.18 389.77 418.058 389.96L414.969 380.248C413.582 375.888 414.809 372.581 418.645 371.361" fill="#010101"/>
<path d="M434.044 385.484C435.838 384.913 437.906 386.352 438.643 388.67C439.38 390.988 438.523 393.357 436.73 393.927C434.936 394.498 432.841 393.067 432.104 390.75C431.366 388.432 432.223 386.063 434.044 385.484ZM419.835 390.58C421.066 390.341 422.168 390.081 424.293 389.406C426.638 388.66 427.586 388.297 428.803 387.728C429.863 387.239 429.887 386.836 430.008 386.646L432.518 394.537L426.669 396.398C424.489 397.091 423.384 397.534 422.213 398.058C421.154 398.547 421.13 398.949 421.017 399.168L418.226 390.393C418.444 390.506 418.696 390.821 419.835 390.58Z" fill="#010101"/>
<path d="M429.62 406.823L430.199 406.639C433.234 405.673 434.614 405.235 434.359 404.434C434.105 403.634 432.762 404.092 429.699 405.066L429.119 405.25C426.001 406.242 424.705 406.654 424.95 407.427C425.196 408.2 426.529 407.806 429.62 406.823ZM427.097 397.842C430.491 396.762 433.97 398.147 435.813 403.942C437.656 409.736 435.66 413.014 432.266 414.094C428.872 415.173 425.331 413.687 423.479 407.865C421.627 402.042 423.703 398.921 427.097 397.842Z" fill="#010101"/>
<path d="M356.597 368.581C355.662 365.354 364.355 362.498 372.107 360.123C379.198 357.868 389.671 354.78 390.63 357.604C391.469 360.528 381.146 364.085 374.082 366.331C366.382 368.871 357.733 371.865 356.606 368.608M365.228 380.146C373.983 382.74 384.258 385.336 390.155 386.681L391.169 386.906C397.956 378.822 398.8 366.764 395.729 357.107C390.656 341.158 380.12 328.952 363.812 334.139C347.505 339.326 347.103 355.162 352.176 371.111C347.935 370.485 343.389 368.133 341.081 360.876C339.984 357.427 340.43 355.006 341.097 351.087L335.837 350.025C334.719 356.063 335.161 362.515 336.9 368.556C337.146 369.328 337.391 370.101 337.637 370.874L340.525 371.93C345.445 373.738 356.181 377.494 365.228 380.146Z" fill="#010101"/>
<path d="M364.915 399.51C372.061 397.237 376.257 395.811 375.335 392.914C374.414 390.017 370.058 391.129 362.884 393.41C356.675 395.385 352.855 396.843 353.785 399.768C354.715 402.693 358.568 401.528 364.915 399.51ZM348.69 404.67L339.317 375.201C344.857 377.237 355.41 380.899 364.257 383.494C373.65 386.279 384.136 388.869 389.385 390.086C393.141 401.896 394.821 406.892 397.963 416.77L370.37 425.546C368.494 426.143 366.785 426.504 362.811 427.859L364.382 432.798L358.256 434.747L356.711 429.89C351.188 432.012 345.751 434.5 343.947 437.14L333.96 405.739C336.931 406.769 343.227 406.408 348.69 404.67Z" fill="#010101"/>
</g>
<defs>
<clipPath id="clip0_5_2513">
<rect width="606" height="606" fill="white" transform="translate(577.91) rotate(72.3566)"/>
</clipPath>
</defs>
</svg>
