<svg width="1728" height="2021" viewBox="0 0 1728 2021" fill="none" xmlns="http://www.w3.org/2000/svg">
<rect width="1728" height="1416" transform="translate(0 303)" fill="#CA9E67"/>
<path d="M863.5 2020.19C1421.14 2020.19 1873.19 1568.14 1873.19 1010.5C1873.19 452.865 1421.14 0.811523 863.5 0.811523C305.865 0.811523 -146.188 452.865 -146.188 1010.5C-146.188 1568.14 305.865 2020.19 863.5 2020.19Z" stroke="#EFEFEF" stroke-miterlimit="10"/>
<path d="M863.5 1928.37C1368.5 1928.37 1777.88 1518.99 1777.88 1013.99C1777.88 508.989 1368.5 99.6069 863.5 99.6069C358.502 99.6069 -50.88 508.989 -50.88 1013.99C-50.88 1518.99 358.502 1928.37 863.5 1928.37Z" stroke="#EFEFEF" stroke-miterlimit="10"/>
<path d="M862.919 1826.43C1313.16 1826.43 1678.15 1461.44 1678.15 1011.2C1678.15 560.955 1313.16 195.961 862.919 195.961C412.676 195.961 47.6829 560.955 47.6829 1011.2C47.6829 1461.44 412.676 1826.43 862.919 1826.43Z" stroke="#EFEFEF" stroke-miterlimit="10"/>
<path d="M861.64 1723.92C1255.46 1723.92 1574.71 1404.67 1574.71 1010.85C1574.71 617.031 1255.46 297.779 861.64 297.779C467.823 297.779 148.57 617.031 148.57 1010.85C148.57 1404.67 467.823 1723.92 861.64 1723.92Z" stroke="#EFEFEF" stroke-miterlimit="10"/>
<path d="M865.011 1607.57C1196.56 1607.57 1465.34 1338.8 1465.34 1007.25C1465.34 675.694 1196.56 406.918 865.011 406.918C533.46 406.918 264.684 675.694 264.684 1007.25C264.684 1338.8 533.46 1607.57 865.011 1607.57Z" stroke="#EFEFEF" stroke-miterlimit="10"/>
<path d="M862.803 1496.69C1133.11 1496.69 1352.25 1277.56 1352.25 1007.25C1352.25 736.933 1133.11 517.802 862.803 517.802C592.49 517.802 373.359 736.933 373.359 1007.25C373.359 1277.56 592.49 1496.69 862.803 1496.69Z" stroke="#EFEFEF" stroke-miterlimit="10"/>
<g clip-path="url(#clip0_5_2449)">
<path d="M575.276 1098.4C625.994 1257.86 796.379 1346.02 955.842 1295.3C1115.31 1244.58 1203.46 1074.2 1152.74 914.733C1102.03 755.27 931.64 667.115 772.177 717.833C612.714 768.55 524.558 938.936 575.276 1098.4Z" fill="#010101"/>
<path d="M772.759 1035.59C788.788 1085.98 842.636 1113.84 893.032 1097.82C943.428 1081.79 971.288 1027.94 955.26 977.544C939.231 927.148 885.383 899.287 834.987 915.316C784.591 931.344 756.731 985.192 772.759 1035.59Z" fill="#CA9E67"/>
<path d="M623.121 1082.6C665.226 1214.99 806.676 1288.17 939.059 1246.07C1071.44 1203.96 1144.63 1062.51 1102.52 930.129C1060.42 797.746 918.967 724.561 786.584 766.666C654.201 808.771 581.016 950.221 623.121 1082.6Z" stroke="#1C1C1C" stroke-width="0.6" stroke-miterlimit="10"/>
<path d="M644.92 1075.67C683.05 1195.56 811.148 1261.83 931.035 1223.7C1050.92 1185.57 1117.2 1057.48 1079.07 937.589C1040.94 817.702 912.84 751.425 792.953 789.555C673.066 827.686 606.789 955.784 644.92 1075.67Z" stroke="#1C1C1C" stroke-width="0.6" stroke-miterlimit="10"/>
<path d="M669.084 1067.86C703.08 1174.75 817.288 1233.84 924.176 1199.85C1031.06 1165.85 1090.15 1051.64 1056.16 944.754C1022.16 837.866 907.954 778.775 801.066 812.771C694.178 846.767 635.088 960.976 669.084 1067.86Z" stroke="#1C1C1C" stroke-width="0.6" stroke-miterlimit="10"/>
<path d="M693.315 1059.79C723.051 1153.28 822.947 1204.97 916.44 1175.23C1009.93 1145.5 1061.62 1045.6 1031.88 952.11C1002.15 858.618 902.25 806.932 808.757 836.668C715.265 866.404 663.58 966.3 693.315 1059.79Z" stroke="#1C1C1C" stroke-width="0.6" stroke-miterlimit="10"/>
<path d="M721.19 1051.81C746.225 1130.52 830.326 1174.03 909.037 1149C987.747 1123.96 1031.26 1039.86 1006.23 961.151C981.192 882.441 897.091 838.927 818.38 863.961C739.67 888.995 696.156 973.097 721.19 1051.81Z" stroke="#1C1C1C" stroke-width="0.6" stroke-miterlimit="10"/>
<path d="M747.356 1042.94C767.766 1107.11 836.334 1142.59 900.506 1122.18C964.679 1101.77 1000.15 1033.2 979.745 969.027C959.334 904.854 890.767 869.378 826.594 889.788C762.422 910.199 726.946 978.766 747.356 1042.94Z" stroke="#1C1C1C" stroke-width="0.6" stroke-miterlimit="10"/>
<path d="M882.771 958.273C882.464 957.308 882.074 956.368 881.573 955.555L888.25 953.432C886.049 956.35 885.055 961.345 885.687 963.332C885.889 963.966 886.26 964.274 886.812 964.098C888.909 963.431 885.945 953.922 892.347 951.886C895.851 950.771 898.336 952.472 899.776 956.997C900.293 958.625 900.624 960.525 901.168 962.236C901.441 963.092 901.759 963.902 902.207 964.641L897.102 966.264C899.109 964.167 899.233 960.451 898.558 958.327C898.215 957.251 897.666 956.574 897.059 956.768C895.266 957.338 898.93 967.141 891.811 969.405C888.528 970.45 885.731 968.726 884.467 964.753C883.774 962.573 883.403 960.26 882.754 958.218" fill="#010101"/>
<path d="M888.688 972.1C890.231 971.792 892.216 971.252 894.139 970.61L897.754 969.46L897.315 968.08L898.695 967.642C899.783 971.063 903.07 973.087 905.474 974.722L901.362 976.03L901.775 977.327L900.395 977.766L899.983 976.469L897.831 977.153C895.182 977.996 892.44 978.929 891.058 979.55C889.998 980.039 889.974 980.442 889.861 980.66L887.07 971.886C887.289 971.999 887.541 972.313 888.688 972.1Z" fill="#010101"/>
<path d="M892.116 982.495C893 981.454 893.802 981.108 896.202 980.345C898.382 979.651 899.487 979.209 900.657 978.685C901.745 978.187 901.741 977.793 901.854 977.575L904.645 986.35C904.427 986.237 904.202 985.913 903.027 986.135C901.788 986.347 900.722 986.625 898.569 987.31C896.638 987.924 894.927 988.468 895.182 989.268C895.41 989.986 896.669 989.646 898.242 989.146L904.864 987.039L907.374 994.931C907.156 994.818 906.931 994.494 905.765 994.744C904.526 994.956 903.46 995.234 901.307 995.919C898.962 996.665 898.041 997.018 896.797 997.596C895.765 998.076 895.714 998.488 895.592 998.678L893.082 990.787L894.213 990.427C893.067 989.88 892.121 988.722 891.507 986.791C890.972 985.108 891.213 983.572 892.107 982.468" fill="#010101"/>
<path d="M904.639 1006.01C908.557 1004.76 909.219 1004.55 908.965 1003.75C908.71 1002.95 908.047 1003.26 904.156 1004.49C900.265 1005.73 899.438 1005.99 899.683 1006.77C899.929 1007.54 900.72 1007.26 904.639 1006.01ZM901.672 997.352C905.48 996.141 908.677 998.072 910.055 1002.4C910.248 1003.01 910.377 1003.61 910.452 1004.13C911.556 1003.78 912.366 1003.46 912.688 1003.33C913.721 1002.85 913.744 1002.45 913.885 1002.22L916.676 1010.99C916.43 1010.89 916.205 1010.57 915.067 1010.81C912.202 1011.35 904.917 1013.67 902.263 1014.88C901.204 1015.37 901.18 1015.77 901.058 1015.96L897.969 1006.25C896.582 1001.89 897.809 998.581 901.645 997.361" fill="#010101"/>
<path d="M917.044 1011.48C918.838 1010.91 920.906 1012.35 921.643 1014.67C922.38 1016.99 921.523 1019.36 919.73 1019.93C917.936 1020.5 915.841 1019.07 915.104 1016.75C914.366 1014.43 915.223 1012.06 917.044 1011.48ZM902.835 1016.58C904.066 1016.34 905.168 1016.08 907.293 1015.41C909.638 1014.66 910.586 1014.3 911.803 1013.73C912.863 1013.24 912.887 1012.84 913.008 1012.65L915.518 1020.54L909.669 1022.4C907.489 1023.09 906.384 1023.53 905.213 1024.06C904.154 1024.55 904.13 1024.95 904.017 1025.17L901.226 1016.39C901.444 1016.51 901.696 1016.82 902.835 1016.58Z" fill="#010101"/>
<path d="M912.62 1032.82L913.199 1032.64C916.234 1031.67 917.614 1031.23 917.359 1030.43C917.105 1029.63 915.762 1030.09 912.699 1031.07L912.119 1031.25C909.001 1032.24 907.705 1032.65 907.95 1033.43C908.196 1034.2 909.529 1033.81 912.62 1032.82ZM910.097 1023.84C913.491 1022.76 916.97 1024.15 918.813 1029.94C920.656 1035.74 918.66 1039.01 915.266 1040.09C911.872 1041.17 908.331 1039.69 906.479 1033.86C904.627 1028.04 906.703 1024.92 910.097 1023.84Z" fill="#010101"/>
<path d="M839.597 994.581C838.662 991.354 847.355 988.498 855.107 986.123C862.198 983.868 872.671 980.78 873.63 983.604C874.469 986.528 864.146 990.085 857.082 992.331C849.382 994.871 840.733 997.865 839.606 994.608M848.228 1006.15C856.983 1008.74 867.258 1011.34 873.155 1012.68L874.169 1012.91C880.956 1004.82 881.8 992.764 878.729 983.107C873.656 967.158 863.12 954.952 846.812 960.139C830.505 965.326 830.103 981.162 835.176 997.111C830.935 996.485 826.389 994.133 824.081 986.876C822.984 983.427 823.43 981.006 824.097 977.087L818.837 976.025C817.719 982.063 818.161 988.515 819.9 994.556C820.146 995.328 820.391 996.101 820.637 996.874L823.525 997.93C828.445 999.738 839.181 1003.49 848.228 1006.15Z" fill="#010101"/>
<path d="M847.915 1025.51C855.061 1023.24 859.257 1021.81 858.335 1018.91C857.414 1016.02 853.058 1017.13 845.884 1019.41C839.675 1021.39 835.855 1022.84 836.785 1025.77C837.715 1028.69 841.568 1027.53 847.915 1025.51ZM831.69 1030.67L822.317 1001.2C827.857 1003.24 838.41 1006.9 847.257 1009.49C856.65 1012.28 867.136 1014.87 872.385 1016.09C876.141 1027.9 877.821 1032.89 880.963 1042.77L853.37 1051.55C851.494 1052.14 849.785 1052.5 845.811 1053.86L847.382 1058.8L841.256 1060.75L839.711 1055.89C834.188 1058.01 828.751 1060.5 826.947 1063.14L816.96 1031.74C819.931 1032.77 826.227 1032.41 831.69 1030.67Z" fill="#010101"/>
</g>
<defs>
<clipPath id="clip0_5_2449">
<rect width="606" height="606" fill="white" transform="translate(1060.91 626) rotate(72.3566)"/>
</clipPath>
</defs>
</svg>
