<svg width="112" height="112" viewBox="0 0 112 112" fill="none" xmlns="http://www.w3.org/2000/svg">
<path d="M42.5498 76.0865C41.5751 70.9363 40.7929 65.4672 40.2394 59.8476C45.3054 59.4144 50.4797 59.2098 55.6059 59.2098C55.7563 59.2098 55.9067 59.2098 56.0572 59.2098C56.0451 64.8474 56.0331 70.3467 56.015 75.539C55.8887 75.539 55.7563 75.539 55.63 75.539C51.2679 75.539 46.8577 75.7135 42.5438 76.0865" fill="#CA9E67"/>
<path d="M29.0544 77.9698C27.087 72.958 25.5046 67.5971 24.3915 62.0618C26.9606 61.5383 29.7343 61.0691 32.7125 60.6659C34.7883 60.3892 36.9001 60.1485 39.036 59.95C39.6257 65.5635 40.474 71.0266 41.5209 76.1708C39.7039 76.3393 37.9049 76.5439 36.136 76.7785C33.603 77.1215 31.2385 77.5186 29.0484 77.9638" fill="#CA9E67"/>
<path d="M18.9224 80.8698C16.2089 76.0685 14.0308 70.8822 12.4966 65.4672C15.4808 64.2699 19.133 63.1869 23.3927 62.2723C24.5419 67.8016 26.1724 73.1504 28.2001 78.1503C24.566 78.9325 21.4554 79.853 18.9224 80.8698Z" fill="#CA9E67"/>
<path d="M12.7734 84.4558C9.60859 79.9192 7.06355 74.9434 5.27059 69.6789C6.73865 68.289 8.94075 66.9654 11.8167 65.75C13.375 71.153 15.5891 76.3273 18.3448 81.1105C15.896 82.1454 14.0188 83.2765 12.7673 84.4558" fill="#CA9E67"/>
<path d="M10.9804 88.4087C7.68327 84.1609 5.03594 79.4198 3.17078 74.3177C2.98426 72.8496 3.59796 71.3936 4.94569 69.9917C6.75069 75.2442 9.30776 80.202 12.4966 84.7205C11.3414 85.9118 10.824 87.1512 10.9804 88.4027" fill="#CA9E67"/>
<path d="M11.9611 90.5868L11.7626 90.328C8.50755 85.7975 8.37518 85.623 6.76272 82.6869C5.67972 80.5028 4.33199 77.5427 3.41144 75.2804C3.33323 75.0698 3.27306 74.8652 3.23094 74.6547C5.0961 79.7448 7.74343 84.4678 11.0345 88.6915C11.1669 89.3233 11.4738 89.955 11.9611 90.5807M11.9972 90.6229C11.9972 90.6229 11.9731 90.5928 11.9611 90.5807L11.9972 90.6229Z" fill="#CA9E67"/>
<path d="M70.1662 76.207C65.9485 75.8099 61.5263 75.5812 57.0439 75.5451C57.1341 70.3528 57.2063 64.8535 57.2605 59.2159C62.5251 59.2641 67.7174 59.5288 72.6691 59.9921C72.0675 65.5996 71.2131 71.0627 70.1602 76.207" fill="#CA9E67"/>
<path d="M82.8734 78.072C79.2814 77.32 75.3165 76.7243 71.1349 76.3032C72.26 71.1649 73.1685 65.7078 73.8123 60.1063C78.7219 60.6057 83.3728 61.3036 87.5965 62.1821C86.4653 67.7174 84.8589 73.0662 82.8734 78.072Z" fill="#CA9E67"/>
<path d="M93.0235 81.0263C90.3942 79.9553 87.2355 79.0227 83.6977 78.2526C85.7433 73.2588 87.3979 67.916 88.5651 62.3927C92.7166 63.3012 96.4289 64.3962 99.5154 65.6537C97.9571 71.0627 95.755 76.237 93.0235 81.0323" fill="#CA9E67"/>
<path d="M99.3771 84.8588C98.637 84.0947 97.6202 83.3426 96.3266 82.6086C95.5144 82.1453 94.6059 81.7001 93.6251 81.2789C96.3988 76.5077 98.637 71.3454 100.219 65.9485C101.375 66.4419 102.434 66.9653 103.39 67.5068C104.912 68.3732 106.104 69.2576 106.976 70.1541C105.153 75.4006 102.578 80.3524 99.3771 84.8588Z" fill="#CA9E67"/>
<path d="M100.839 88.8901C101.122 87.6506 100.737 86.3871 99.6418 85.1417C102.861 80.6532 105.454 75.7196 107.289 70.4851C108.577 71.9472 109.028 73.4272 108.697 74.8833C106.814 79.9674 104.148 84.6784 100.845 88.8901" fill="#CA9E67"/>
<path d="M106.146 80.7976C106.91 79.1791 107.692 77.4223 108.33 75.9181C107.68 77.5907 106.958 79.2212 106.146 80.7976Z" fill="#CA9E67"/>
<path d="M108.33 75.9181C108.42 75.6835 108.516 75.4549 108.607 75.2202C108.583 75.3044 108.552 75.3827 108.522 75.4669C108.462 75.6113 108.396 75.7677 108.33 75.9181Z" fill="#CA9E67"/>
<path d="M99.8704 90.7974L100.105 90.4965C102.163 87.8372 102.271 87.6507 105.141 82.8674C105.46 82.2357 105.803 81.5317 106.146 80.8037C104.624 83.7699 102.819 86.5737 100.761 89.1789C100.592 89.7264 100.292 90.2679 99.8644 90.7974" fill="#CA9E67"/>
<path d="M51.2258 89.0705C50.7264 85.2921 50.2752 81.1767 49.8841 76.8327C51.8034 76.7605 53.7227 76.7244 55.63 76.7244C57.5373 76.7244 59.2701 76.7545 61.069 76.8206C60.7261 81.1647 60.335 85.2801 59.9018 89.0585C58.5059 89.0104 57.098 88.9863 55.6841 88.9863C54.2702 88.9863 52.7119 89.0104 51.2258 89.0705Z" fill="#CA9E67"/>
<path d="M41.8458 89.8046C40.3296 86.1043 38.9699 82.0611 37.7966 77.7773C41.4066 77.3321 45.1249 77.0312 48.8612 76.8688C49.3125 81.2128 49.842 85.3222 50.4316 89.0946C47.5316 89.221 44.6436 89.4556 41.8458 89.7986" fill="#CA9E67"/>
<path d="M33.5248 91.2607C35.6968 90.7432 38.1336 90.298 40.823 89.937C40.9072 89.925 40.9975 89.9129 41.0817 89.9009C39.4873 86.2127 38.0493 82.1815 36.8099 77.9037C36.6956 77.9157 36.5873 77.9338 36.473 77.9458C33.0074 78.4091 29.8607 78.9867 27.0629 79.6545C28.9341 83.8181 31.1061 87.7168 33.5188 91.2607" fill="#CA9E67"/>
<path d="M27.2554 93.2341C24.1689 89.9069 21.3892 86.1946 18.9886 82.1996C21.0282 81.3392 23.471 80.545 26.2868 79.847C28.2121 83.9985 30.4382 87.8793 32.9171 91.411C30.7331 91.9586 28.8378 92.5723 27.2554 93.2401" fill="#CA9E67"/>
<path d="M23.2363 95.5806C19.7106 92.506 16.5458 89.0224 13.8082 85.2259C14.9273 84.2512 16.4796 83.3126 18.4471 82.4402C20.8838 86.4172 23.6996 90.1114 26.8403 93.4206C25.3181 94.0944 24.1087 94.8225 23.2423 95.5806" fill="#CA9E67"/>
<path d="M21.6419 98.1436C17.9477 95.3459 14.6205 92.1089 11.7505 88.529C11.8769 87.4941 12.4725 86.4773 13.5134 85.4906C16.269 89.2691 19.4639 92.7347 23.0077 95.7851C22.2015 96.5492 21.7382 97.3374 21.6419 98.1436Z" fill="#CA9E67"/>
<path d="M24.223 102.097C23.9403 101.904 23.6815 101.712 23.4409 101.519C23.6876 101.7 23.9403 101.892 24.223 102.097Z" fill="#CA9E67"/>
<path d="M23.4469 101.519C20.3122 99.1905 19.6805 98.6971 18.0078 97.1268L16.2149 95.394C16.5999 95.755 16.9429 96.0739 17.2618 96.3687C16.245 95.412 15.2522 94.4313 14.3196 93.3904L12.8636 91.6998C12.0634 90.7371 11.6904 89.7684 11.7325 88.8118C14.6024 92.3736 17.9296 95.5865 21.6299 98.3602C21.5998 99.1664 21.9367 99.9787 22.6647 100.779C21.2027 99.75 19.8008 98.643 18.4651 97.4697C20.2942 99.1424 20.8718 99.5756 22.8753 100.995C23.0498 101.17 23.2483 101.344 23.4589 101.519" fill="#CA9E67"/>
<path d="M68.9689 89.7263C66.3155 89.4195 63.5359 89.2029 60.684 89.0886C61.2014 85.3101 61.6707 81.2007 62.0798 76.8567C65.75 77.0071 69.3419 77.2839 72.7594 77.681C71.6583 81.9708 70.3828 86.0201 68.9689 89.7263Z" fill="#CA9E67"/>
<path d="M77.0854 91.056C74.805 90.5566 72.3142 90.1415 69.6849 89.8166C71.177 86.1163 72.5187 82.0791 73.6799 77.7953C77.0673 78.2104 80.2742 78.7459 83.2163 79.3957C81.4354 83.5713 79.3717 87.4941 77.0793 91.062" fill="#CA9E67"/>
<path d="M83.7277 92.9873C81.9769 92.3074 79.9433 91.7118 77.6991 91.1944C80.0576 87.6445 82.1755 83.7337 84.0105 79.5702C86.9045 80.232 89.5218 81.0082 91.778 81.8806C89.4375 85.8937 86.7301 89.63 83.7217 92.9873" fill="#CA9E67"/>
<path d="M88.3124 95.4422C87.8612 95.0812 87.3257 94.7262 86.712 94.3773C85.9659 93.9561 85.1236 93.553 84.1971 93.1739C87.2535 89.8407 90.0091 86.1224 92.3857 82.1213C93.583 82.6087 94.672 83.1261 95.6287 83.6736C96.4229 84.1249 97.1088 84.5821 97.6924 85.0454C94.9669 88.854 91.8141 92.3496 88.3124 95.4422Z" fill="#CA9E67"/>
<path d="M90.1776 98.0714C90.0272 97.2652 89.4977 96.453 88.5772 95.6588C92.109 92.5903 95.2857 89.1187 98.0354 85.3221C99.2267 86.351 99.9065 87.3919 100.099 88.4328C97.2171 92.0247 93.8839 95.2617 90.1776 98.0714Z" fill="#CA9E67"/>
<path d="M89.3714 100.671C90.0031 99.8945 90.2919 99.0943 90.2077 98.2881C93.9139 95.5024 97.2532 92.2835 100.135 88.7156C100.243 89.7565 99.8764 90.7853 99.0582 91.7841C98.4986 92.4579 97.909 93.1138 97.3134 93.7515C97.4578 93.6011 97.6022 93.4507 97.7405 93.3063C97.5239 93.547 97.2953 93.7696 97.0787 94.0042C96.9584 94.1306 96.8441 94.2509 96.7237 94.3772C96.2364 94.8887 95.737 95.4001 95.2316 95.8874C95.382 95.731 95.5384 95.5746 95.6949 95.4181C93.7395 97.3314 91.6276 99.0823 89.3774 100.659" fill="#CA9E67"/>
<path d="M87.789 102.091C88.3485 101.7 88.8178 101.296 89.1909 100.887C91.3388 99.3892 93.3544 97.7165 95.2316 95.9055C94.7442 96.3989 94.2629 96.8682 93.8297 97.2833C89.955 100.599 89.8948 100.647 87.795 102.097M87.6927 102.163C87.7288 102.139 87.7589 102.115 87.795 102.097C87.7589 102.121 87.7288 102.145 87.6927 102.163Z" fill="#CA9E67"/>
<path d="M50.0225 98.619C49.138 96.1161 48.3017 93.3243 47.5255 90.304C49.8119 90.1415 52.1283 90.0513 54.4327 90.0272C54.565 93.0777 54.7094 95.8935 54.8659 98.4265C53.2474 98.4445 51.6229 98.5107 50.0225 98.619Z" fill="#CA9E67"/>
<path d="M44.794 99.1846C43.1213 96.7659 41.539 94.0584 40.0709 91.1102C40.462 91.05 40.8651 90.9959 41.2682 90.9417C43.0672 90.7011 44.9083 90.5085 46.7674 90.3641C47.6098 93.3845 48.5243 96.1702 49.487 98.6671C48.1814 98.7694 46.8878 98.9018 45.6303 99.0762C45.3475 99.1123 45.0647 99.1545 44.788 99.1966" fill="#CA9E67"/>
<path d="M40.2574 100.063C37.8989 97.7767 35.6667 95.1955 33.603 92.3617C35.3358 91.9285 37.2611 91.5434 39.367 91.2125C40.8952 94.1487 42.5498 96.8501 44.3006 99.2568C42.8265 99.4914 41.4788 99.7622 40.2574 100.063Z" fill="#CA9E67"/>
<path d="M36.7016 101.182C33.8016 99.0643 31.07 96.6395 28.537 93.9561C29.8366 93.4327 31.3407 92.9453 33.0374 92.5061C35.1553 95.3219 37.4416 97.897 39.8603 100.165C38.675 100.478 37.6161 100.815 36.7076 101.182" fill="#CA9E67"/>
<path d="M34.1987 102.488C30.9256 100.568 27.833 98.3302 24.9691 95.8152C25.8054 95.2256 26.8523 94.6661 28.1098 94.1366C30.6849 96.802 33.4586 99.2147 36.4008 101.308C35.5223 101.681 34.7823 102.073 34.1987 102.488Z" fill="#CA9E67"/>
<path d="M32.8208 103.908C29.3372 102.205 26.0521 100.165 23.0017 97.8428C23.3386 97.217 23.9102 96.6033 24.6923 96.0077C27.5803 98.4986 30.703 100.719 34.0061 102.62C33.4526 103.035 33.0555 103.468 32.8208 103.908Z" fill="#CA9E67"/>
<path d="M32.6464 105.394C29.1387 103.914 25.8235 102.091 22.755 99.9607C22.5625 99.3169 22.6166 98.6791 22.9054 98.0474C25.9619 100.352 29.259 102.367 32.7547 104.052C32.5561 104.491 32.514 104.942 32.6464 105.394Z" fill="#CA9E67"/>
<path d="M33.7354 106.886C30.3901 105.634 27.2314 104.016 24.3073 102.091C23.5612 101.459 23.0678 100.821 22.8212 100.177C25.8836 102.283 29.1928 104.088 32.6945 105.544C32.863 105.995 33.2119 106.447 33.7354 106.886Z" fill="#CA9E67"/>
<path d="M34.9568 107.716C32.6644 106.898 30.4683 105.887 28.3806 104.702L25.4083 102.891C25.1015 102.692 24.8187 102.5 24.566 102.301C27.466 104.214 30.6007 105.803 33.9159 107.036C34.2227 107.247 34.6319 107.53 34.9568 107.722" fill="#CA9E67"/>
<path d="M60.2026 98.5347C58.7406 98.4565 57.2485 98.4144 55.7503 98.4144C55.636 98.4144 55.5217 98.4144 55.4134 98.4144C55.3412 95.8814 55.275 93.0596 55.2088 90.0151C55.3713 90.0151 55.5337 90.0151 55.6901 90.0151C57.8321 90.0151 59.9559 90.0753 62.0377 90.1836C61.4661 93.216 60.8524 96.0198 60.2026 98.5347Z" fill="#CA9E67"/>
<path d="M65.2807 98.9799C63.8186 98.7994 62.2904 98.6611 60.7261 98.5648C61.4541 96.0558 62.146 93.2581 62.7898 90.2257C65.016 90.3581 67.194 90.5566 69.2818 90.8153C68.0423 93.7876 66.7006 96.5312 65.2807 98.9799Z" fill="#CA9E67"/>
<path d="M69.8834 99.7321C68.5899 99.4613 67.206 99.2327 65.762 99.0402C67.2542 96.6034 68.6621 93.8718 69.9677 90.9056C72.0314 91.1764 74.0048 91.5073 75.8459 91.8924C73.9928 94.7683 72.0013 97.3976 69.8895 99.7381" fill="#CA9E67"/>
<path d="M73.8183 100.773C72.7594 100.418 71.5861 100.105 70.3166 99.8223C72.4947 97.4998 74.5524 94.8826 76.4596 92.0187C78.2707 92.4158 79.9493 92.867 81.4535 93.3724C79.0829 96.11 76.5258 98.5949 73.8183 100.773Z" fill="#CA9E67"/>
<path d="M76.8567 102.079C76.0986 101.645 75.1901 101.248 74.1613 100.887C76.9229 98.7273 79.5281 96.2605 81.9408 93.5349C83.4089 94.0523 84.7024 94.6179 85.7854 95.2316C83.0118 97.7947 80.0215 100.093 76.8567 102.073" fill="#CA9E67"/>
<path d="M78.7099 103.553C78.3549 103.107 77.8254 102.662 77.1034 102.229C80.3043 100.268 83.3307 97.9933 86.1344 95.4482C87.1572 96.068 87.9153 96.6997 88.4207 97.3375C85.4064 99.708 82.1514 101.796 78.7038 103.553" fill="#CA9E67"/>
<path d="M79.2514 105.045C79.2814 104.6 79.137 104.148 78.8242 103.697C82.2837 101.958 85.5568 99.8945 88.5892 97.542C89.0405 98.1798 89.239 98.8235 89.1969 99.4613C86.1103 101.633 82.7771 103.511 79.2514 105.039" fill="#CA9E67"/>
<path d="M78.5534 106.513C78.9445 106.086 79.1731 105.64 79.2393 105.195C82.7651 103.685 86.0923 101.832 89.1788 99.6779C89.0886 100.316 88.7577 100.941 88.2041 101.555C85.2078 103.535 81.9769 105.201 78.5534 106.513Z" fill="#CA9E67"/>
<path d="M76.6822 107.891C77.4103 107.494 77.9879 107.084 78.415 106.657C81.8145 105.37 85.0273 103.721 88.0056 101.76C87.6085 102.163 87.1151 102.554 86.5255 102.933L86.2908 103.083C85.3342 103.661 84.0647 104.455 83.084 105.003C82.6508 105.243 82.2115 105.478 81.7663 105.701C81.8385 105.664 81.9107 105.628 81.9769 105.598C81.8506 105.664 81.7242 105.725 81.5978 105.791C81.5557 105.809 81.5196 105.833 81.4775 105.851C80.6713 106.26 79.859 106.651 79.0227 107.006C79.2875 106.886 79.5462 106.759 79.8109 106.639C78.7881 107.096 77.7412 107.518 76.6702 107.891" fill="#CA9E67"/>
<path d="M73.7221 109.124C73.8785 109.07 74.0349 109.016 74.1974 108.962C74.3839 108.895 74.5885 108.823 74.799 108.745C74.4561 108.877 74.1071 109.004 73.7281 109.124" fill="#CA9E67"/>
<path d="M74.799 108.739C75.4007 108.51 75.9542 108.27 76.4416 108.023C77.32 107.716 78.1864 107.373 79.0408 107.012C78.415 107.301 77.8013 107.578 77.2538 107.818C76.5258 108.101 75.6113 108.45 74.799 108.745" fill="#CA9E67"/>
<path d="M54.0536 104.485C53.6445 102.951 53.2534 101.218 52.8743 99.3049C53.837 99.2688 54.7937 99.2507 55.7563 99.2507C55.991 99.2507 56.2196 99.2507 56.4543 99.2507C56.3821 101.17 56.3099 102.909 56.2377 104.449C56.0933 104.449 55.9549 104.449 55.8105 104.449C55.2269 104.449 54.6372 104.461 54.0536 104.479" fill="#CA9E67"/>
<path d="M51.5748 104.642C50.6181 103.143 49.6976 101.447 48.8071 99.5635C49.9803 99.4552 51.1716 99.377 52.3629 99.3229C52.8022 101.23 53.2654 102.963 53.7408 104.497C53.0127 104.527 52.2907 104.575 51.5748 104.642Z" fill="#CA9E67"/>
<path d="M49.1801 104.942C47.7 103.51 46.262 101.874 44.8842 100.051C45.2994 99.9847 45.7205 99.9246 46.1537 99.8644C46.8637 99.7681 47.5797 99.6839 48.3077 99.6117C49.2583 101.483 50.2451 103.18 51.2679 104.672C50.8287 104.714 50.3895 104.768 49.9563 104.822C49.6915 104.858 49.4328 104.894 49.1801 104.936" fill="#CA9E67"/>
<path d="M47.0803 105.346C45.1309 104.004 43.2477 102.452 41.4427 100.719C42.3633 100.502 43.356 100.304 44.427 100.123C45.8649 101.934 47.3571 103.559 48.9034 104.985C48.2536 105.093 47.6459 105.213 47.0863 105.346" fill="#CA9E67"/>
<path d="M45.3415 105.845C43.0131 104.612 40.7508 103.168 38.5848 101.537C39.3248 101.278 40.1491 101.038 41.0456 100.815C42.9048 102.536 44.8361 104.076 46.8396 105.406C46.2921 105.544 45.7927 105.689 45.3355 105.845" fill="#CA9E67"/>
<path d="M43.9817 106.423C41.3525 105.316 38.8014 103.998 36.3586 102.482C36.9122 102.193 37.5559 101.916 38.2719 101.651C40.48 103.27 42.7724 104.702 45.149 105.917C44.7098 106.08 44.3187 106.248 43.9817 106.423Z" fill="#CA9E67"/>
<path d="M43.0251 107.048C40.1852 106.086 37.4296 104.894 34.7883 103.511C35.1433 103.198 35.5885 102.897 36.124 102.602C38.5968 104.1 41.178 105.406 43.8373 106.495C43.5124 106.675 43.2417 106.856 43.0251 107.048Z" fill="#CA9E67"/>
<path d="M42.4956 107.716C39.5354 106.898 36.6715 105.851 33.9219 104.605C34.0723 104.281 34.313 103.962 34.6439 103.643C37.3033 105.015 40.0769 106.182 42.9348 107.126C42.7363 107.319 42.5859 107.512 42.4956 107.71" fill="#CA9E67"/>
<path d="M42.4174 108.408C39.4392 107.74 36.5572 106.844 33.7895 105.737C33.7173 105.406 33.7474 105.075 33.8677 104.744C36.6234 105.977 39.4993 107 42.4655 107.8C42.3933 107.999 42.3753 108.203 42.4174 108.402" fill="#CA9E67"/>
<path d="M42.8025 109.1C39.9085 108.589 37.1107 107.837 34.4213 106.874C34.1204 106.543 33.9279 106.212 33.8256 105.881C36.5873 106.97 39.4632 107.849 42.4355 108.498C42.4956 108.703 42.616 108.901 42.7965 109.106" fill="#CA9E67"/>
<path d="M43.9216 109.978C41.2201 109.617 38.6089 109.01 36.0999 108.185C35.5644 107.867 34.8846 107.337 34.5536 107.012C37.225 107.963 40.0047 108.691 42.8807 109.184C43.0792 109.383 43.5906 109.786 43.9216 109.978Z" fill="#CA9E67"/>
<path d="M58.6925 104.539C57.9885 104.497 57.2725 104.467 56.5445 104.461C56.6889 102.927 56.8273 101.182 56.9597 99.2627C58.1449 99.2807 59.3242 99.3229 60.4794 99.3951C59.9078 101.296 59.3062 103.023 58.6925 104.539Z" fill="#CA9E67"/>
<path d="M61.045 104.744C60.3771 104.666 59.6912 104.606 58.9933 104.557C59.6792 103.041 60.341 101.32 60.9728 99.4252C62.1219 99.5034 63.2471 99.6057 64.3361 99.732C63.2771 101.591 62.1761 103.27 61.045 104.744Z" fill="#CA9E67"/>
<path d="M63.229 105.063C62.6213 104.954 61.9836 104.858 61.3277 104.774C62.5251 103.306 63.6863 101.633 64.8054 99.7802C65.8823 99.9125 66.9292 100.069 67.922 100.249C66.4178 102.042 64.8475 103.655 63.229 105.057" fill="#CA9E67"/>
<path d="M65.1904 105.496C64.661 105.358 64.0894 105.225 63.4877 105.117C65.1664 103.721 66.7849 102.121 68.3492 100.34C69.3299 100.526 70.2625 100.737 71.1349 100.965C69.2276 102.668 67.2421 104.19 65.1904 105.496Z" fill="#CA9E67"/>
<path d="M66.8571 106.026C66.4178 105.857 65.9365 105.701 65.4131 105.556C67.5129 104.263 69.5465 102.752 71.5019 101.062C72.3563 101.296 73.1505 101.555 73.8665 101.838C71.6162 103.432 69.2697 104.84 66.851 106.032" fill="#CA9E67"/>
<path d="M68.1747 106.657C68.1326 106.627 68.0845 106.603 68.0363 106.573C67.7415 106.404 67.4106 106.248 67.0436 106.098C69.5044 104.924 71.887 103.535 74.1733 101.952C74.775 102.199 75.3165 102.458 75.7978 102.728C75.876 102.77 75.9542 102.819 76.0264 102.861C73.5055 104.329 70.8822 105.598 68.1687 106.651" fill="#CA9E67"/>
<path d="M69.0291 107.337C68.8546 107.139 68.6139 106.934 68.3071 106.741C71.0446 105.707 73.704 104.455 76.2491 103.005C76.7484 103.324 77.1395 103.655 77.4343 103.986C74.7389 105.316 71.9291 106.441 69.0291 107.343" fill="#CA9E67"/>
<path d="M69.3961 108.029C69.36 107.824 69.2577 107.626 69.1013 107.421C72.0193 106.537 74.8411 105.43 77.5486 104.124C77.8134 104.455 77.9698 104.786 78.036 105.117C75.2623 106.302 72.3743 107.277 69.3961 108.029Z" fill="#CA9E67"/>
<path d="M69.2998 108.721C69.3961 108.522 69.4322 108.324 69.4141 108.119C72.3984 107.391 75.2864 106.429 78.0601 105.261C78.0962 105.592 78.03 105.923 77.8796 106.248C75.13 107.289 72.26 108.119 69.3058 108.721" fill="#CA9E67"/>
<path d="M68.7523 109.383C68.9749 109.19 69.1434 108.998 69.2517 108.799C72.1998 108.222 75.0577 107.409 77.8013 106.386C77.6208 106.711 77.3441 107.03 76.9831 107.337C74.3418 108.246 71.5922 108.932 68.7523 109.383Z" fill="#CA9E67"/>
<path d="M67.7836 110.014C68.1266 109.84 68.4154 109.653 68.656 109.467C71.4718 109.034 74.2034 108.366 76.8206 107.475C76.4295 107.782 75.9542 108.083 75.3947 108.372C72.9519 109.148 70.4129 109.702 67.7836 110.014Z" fill="#CA9E67"/>
<path d="M66.4118 110.58C66.8691 110.424 67.2782 110.255 67.6332 110.087C70.2264 109.792 72.7353 109.256 75.148 108.492C74.5704 108.775 73.9086 109.04 73.1745 109.293L73.5536 109.172C73.4934 109.19 73.4333 109.214 73.3731 109.232C73.3069 109.256 73.2347 109.274 73.1685 109.293H73.1445C70.9845 109.96 68.7342 110.394 66.4118 110.58Z" fill="#CA9E67"/>
<path d="M64.661 111.079C65.2265 110.947 65.744 110.803 66.2133 110.646C68.4936 110.478 70.6957 110.057 72.8196 109.413C72.2961 109.581 71.7366 109.744 71.1469 109.9L69.7029 110.285C69.2457 110.412 68.7764 110.526 68.3131 110.622C68.0363 110.682 67.7656 110.743 67.4888 110.791C67.6272 110.761 67.7836 110.724 67.9521 110.688C66.8751 110.893 65.7801 111.031 64.667 111.073" fill="#CA9E67"/>
<path d="M62.6695 111.483C62.6273 111.483 62.5912 111.483 62.5491 111.483C63.217 111.38 63.8367 111.26 64.4143 111.134C65.4552 111.098 66.478 110.977 67.4828 110.791C66.3216 111.043 65.9666 111.104 64.8234 111.296C64.1195 111.422 63.3975 111.483 62.6695 111.483Z" fill="#CA9E67"/>
<path d="M63.8969 111.44L64.2518 111.392C64.1315 111.41 64.0172 111.428 63.8969 111.44ZM60.5817 111.795C60.4373 111.795 60.2929 111.795 60.1485 111.777C60.7261 111.723 61.2916 111.663 61.8512 111.585C61.9896 111.567 62.1219 111.549 62.2603 111.531C62.3265 111.531 62.3927 111.531 62.4589 111.531C62.9462 111.531 63.4276 111.501 63.8969 111.44L63.4697 111.501C62.7477 111.591 61.779 111.699 61.051 111.771C60.8945 111.783 60.7381 111.795 60.5817 111.795Z" fill="#CA9E67"/>
<path d="M57.9584 111.97L57.6696 111.934C58.3976 111.91 59.1256 111.868 59.8416 111.807C59.986 111.82 60.1304 111.832 60.2748 111.832C60.3952 111.832 60.5215 111.832 60.6418 111.814H60.5937C59.4425 111.898 58.5821 111.95 58.0126 111.97H57.9584Z" fill="#CA9E67"/>
<path d="M57.5734 111.976C57.5734 111.976 57.5854 111.976 57.5914 111.976C57.5914 111.976 57.5794 111.976 57.5734 111.976ZM55.5999 111.994H55.0644C55.1005 111.988 55.1366 111.976 55.1727 111.946C55.4435 111.946 55.7202 111.952 55.991 111.952C56.4422 111.952 56.8995 111.946 57.3507 111.934C57.4229 111.958 57.4951 111.97 57.5673 111.97C56.9717 111.982 56.1955 111.988 55.5939 111.988" fill="#CA9E67"/>
<path d="M52.2125 111.874C52.2125 111.874 52.1644 111.874 52.1403 111.874H52.2125ZM54.7094 111.994H54.6974C54.2281 111.976 53.6024 111.958 53.1331 111.934L52.2065 111.88C52.2486 111.88 52.2967 111.88 52.3389 111.88C52.4652 111.88 52.5976 111.874 52.7239 111.856C53.4219 111.904 54.1378 111.934 54.8538 111.952C54.7997 111.976 54.7515 111.994 54.6974 111.994" fill="#CA9E67"/>
<path d="M49.1079 111.573C49.0718 111.573 49.0357 111.567 48.9996 111.561C49.0357 111.561 49.0718 111.567 49.1079 111.573ZM52.032 111.85C51.9418 111.85 51.8515 111.85 51.7673 111.838L50.6061 111.735C50.1608 111.687 49.5712 111.627 49.1079 111.567C49.4328 111.603 49.7577 111.621 50.0826 111.621C50.1909 111.621 50.2932 111.621 50.4015 111.615C51.0573 111.699 51.7372 111.765 52.4351 111.82C52.3028 111.838 52.1644 111.844 52.032 111.844" fill="#CA9E67"/>
<path d="M45.8228 111.067C45.6724 111.043 45.522 111.013 45.3716 110.983C45.516 111.007 45.6664 111.037 45.8228 111.067ZM49.848 111.591C49.4208 111.591 48.9996 111.561 48.5845 111.507L47.8324 111.398C47.2367 111.302 46.4847 111.176 45.8288 111.061C46.623 111.194 47.4293 111.266 48.2536 111.284C48.8492 111.398 49.481 111.501 50.1308 111.585C50.0405 111.585 49.9442 111.585 49.854 111.585" fill="#CA9E67"/>
<path d="M42.0925 110.231C41.6834 110.135 41.2742 110.033 40.8711 109.918C41.2442 110.014 41.6653 110.123 42.0925 110.231ZM47.9948 111.236C46.9359 111.212 45.901 111.091 44.8902 110.887L44.6315 110.833C43.8795 110.664 42.9589 110.442 42.0985 110.231C43.4763 110.544 44.8902 110.749 46.3342 110.839C46.8517 110.983 47.4112 111.116 47.9948 111.236Z" fill="#CA9E67"/>
<path d="M46.1116 110.779C44.066 110.646 42.0745 110.285 40.1672 109.72L39.5775 109.539C38.3622 109.166 37.4356 108.739 37.2852 108.679C39.5775 109.401 41.7556 109.894 44.2224 110.147C44.6436 110.321 45.6062 110.634 46.1116 110.779Z" fill="#CA9E67"/>
<path d="M54.7395 107.981C54.2762 107.157 53.825 106.218 53.3858 105.171C53.8551 105.147 54.3244 105.123 54.7937 105.117C54.9862 106.17 55.1847 107.12 55.3893 107.957C55.1727 107.957 54.9561 107.969 54.7395 107.981Z" fill="#CA9E67"/>
<path d="M53.9694 108.041C53.2053 107.241 52.4472 106.326 51.7131 105.304C52.1764 105.255 52.6397 105.219 53.103 105.189C53.5964 106.23 54.0957 107.169 54.6071 107.987C54.3905 107.999 54.1739 108.017 53.9634 108.041" fill="#CA9E67"/>
<path d="M50.5218 105.442C50.3714 105.46 50.227 105.484 50.0826 105.502C51.1054 106.489 52.1523 107.367 53.2173 108.131C53.2835 108.119 53.3497 108.113 53.4219 108.101C53.5602 108.083 53.6986 108.065 53.843 108.053C53.0248 107.259 52.2245 106.35 51.4364 105.333C51.1295 105.37 50.8287 105.406 50.5279 105.442" fill="#CA9E67"/>
<path d="M52.5314 108.252C51.1957 107.536 49.8841 106.705 48.5965 105.761C48.9816 105.682 49.3907 105.61 49.8239 105.538C50.8949 106.519 51.9839 107.391 53.097 108.143C52.8984 108.173 52.7119 108.209 52.5314 108.246" fill="#CA9E67"/>
<path d="M51.9297 108.396C50.3534 107.74 48.8071 106.958 47.2909 106.074C47.6278 105.983 47.9888 105.893 48.3679 105.815C49.6915 106.748 51.0453 107.572 52.4231 108.276C52.2486 108.312 52.0801 108.354 51.9297 108.396Z" fill="#CA9E67"/>
<path d="M51.4123 108.558C49.6314 107.963 47.8865 107.253 46.1718 106.429C46.4546 106.326 46.7614 106.224 47.0923 106.134C48.6446 107.012 50.227 107.776 51.8335 108.426C51.6831 108.468 51.5387 108.516 51.4123 108.565" fill="#CA9E67"/>
<path d="M50.9851 108.739C49.0357 108.216 47.1224 107.572 45.2513 106.814C45.4799 106.699 45.7326 106.591 46.0033 106.489C47.7421 107.301 49.5231 108.005 51.3341 108.589C51.2077 108.637 51.0934 108.685 50.9851 108.739Z" fill="#CA9E67"/>
<path d="M50.6542 108.932C48.5724 108.486 46.5328 107.915 44.5353 107.235C44.7037 107.114 44.9023 107 45.1189 106.886C47.0141 107.632 48.9515 108.264 50.925 108.769C50.8227 108.823 50.7324 108.877 50.6542 108.932Z" fill="#CA9E67"/>
<path d="M50.4196 109.13C48.2475 108.763 46.1116 108.276 44.0238 107.668C44.1321 107.542 44.2705 107.421 44.427 107.301C46.4425 107.969 48.5063 108.528 50.6001 108.962C50.5279 109.016 50.4617 109.076 50.4135 109.13" fill="#CA9E67"/>
<path d="M50.2932 109.347C48.067 109.064 45.883 108.661 43.7471 108.131C43.7952 108.005 43.8674 107.873 43.9697 107.746C46.0695 108.336 48.2114 108.811 50.3955 109.166C50.3474 109.226 50.3173 109.28 50.2932 109.341" fill="#CA9E67"/>
<path d="M50.2631 109.557C48.031 109.359 45.8349 109.04 43.6869 108.595C43.6689 108.462 43.6809 108.336 43.717 108.203C45.8589 108.715 48.049 109.106 50.2752 109.377C50.2571 109.437 50.2511 109.497 50.2631 109.557Z" fill="#CA9E67"/>
<path d="M50.3474 109.78C48.1453 109.672 45.9853 109.431 43.8674 109.07C43.7832 108.938 43.729 108.805 43.699 108.679C45.8469 109.106 48.037 109.413 50.2691 109.599C50.2812 109.66 50.3052 109.72 50.3474 109.78Z" fill="#CA9E67"/>
<path d="M50.5459 109.99C48.422 109.966 46.3342 109.81 44.2946 109.533C44.1442 109.407 44.0178 109.274 43.9216 109.142C46.0274 109.485 48.1814 109.714 50.3714 109.81C50.4135 109.87 50.4737 109.93 50.5399 109.99" fill="#CA9E67"/>
<path d="M49.5712 110.213C48.0009 110.213 46.4546 110.135 44.9324 109.972C44.7218 109.852 44.5413 109.732 44.3909 109.611C46.4185 109.876 48.4882 110.014 50.594 110.026C50.6662 110.081 50.7505 110.135 50.8467 110.195C50.4196 110.207 49.9984 110.213 49.5772 110.213" fill="#CA9E67"/>
<path d="M55.5217 107.951C55.3713 107.115 55.2208 106.164 55.0764 105.111C55.3231 105.111 55.5698 105.105 55.8165 105.105C56.0391 105.105 56.2617 105.105 56.4843 105.105C56.3821 106.164 56.2738 107.115 56.1715 107.945C56.0692 107.945 55.9669 107.945 55.8646 107.945C55.7503 107.945 55.636 107.945 55.5217 107.945" fill="#CA9E67"/>
<path d="M56.9356 107.975C56.725 107.963 56.5084 107.957 56.2978 107.951C56.4543 107.115 56.6107 106.17 56.7671 105.111C57.2304 105.123 57.6937 105.141 58.151 105.165C57.7539 106.212 57.3507 107.151 56.9356 107.975Z" fill="#CA9E67"/>
<path d="M57.6877 108.029C57.4831 108.011 57.2785 107.993 57.068 107.981C57.5312 107.157 57.9825 106.224 58.4277 105.177C58.885 105.207 59.3302 105.237 59.7694 105.279C59.0895 106.302 58.3916 107.223 57.6877 108.023" fill="#CA9E67"/>
<path d="M58.3976 108.113C58.2051 108.089 58.0066 108.065 57.808 108.041C58.5661 107.241 59.3062 106.326 60.0342 105.309C60.4734 105.352 60.9006 105.406 61.3157 105.466C60.3651 106.459 59.3904 107.343 58.3976 108.113Z" fill="#CA9E67"/>
<path d="M59.0655 108.222C58.885 108.185 58.7045 108.155 58.512 108.131C59.5468 107.367 60.5636 106.489 61.5624 105.502C61.9775 105.562 62.3746 105.628 62.7597 105.701C61.5504 106.651 60.317 107.5 59.0655 108.222Z" fill="#CA9E67"/>
<path d="M59.6792 108.354C59.5167 108.312 59.3483 108.276 59.1738 108.24C60.4734 107.524 61.7489 106.687 62.9944 105.743C63.3794 105.821 63.7464 105.899 64.0954 105.989C62.6514 106.892 61.1833 107.68 59.6792 108.354Z" fill="#CA9E67"/>
<path d="M60.2267 108.516C60.0823 108.468 59.9319 108.426 59.7755 108.384C61.3097 107.722 62.8199 106.94 64.3 106.05C64.6429 106.14 64.9738 106.236 65.2807 106.338C63.6321 107.181 61.9414 107.909 60.2267 108.516Z" fill="#CA9E67"/>
<path d="M60.696 108.697C60.5757 108.643 60.4493 108.595 60.3109 108.54C62.0618 107.939 63.7765 107.223 65.4612 106.392C65.762 106.501 66.0388 106.609 66.2975 106.723C64.4684 107.494 62.5973 108.155 60.696 108.691" fill="#CA9E67"/>
<path d="M61.0811 108.901C61.045 108.877 61.0089 108.853 60.9668 108.835C60.9066 108.799 60.8404 108.763 60.7682 108.733C62.6995 108.21 64.5948 107.56 66.4479 106.802C66.5983 106.874 66.7427 106.946 66.8751 107.024C66.9654 107.072 67.0436 107.127 67.1218 107.175C65.1483 107.867 63.1267 108.45 61.0751 108.901" fill="#CA9E67"/>
<path d="M61.3458 109.112C61.2856 109.052 61.2134 108.992 61.1292 108.932C63.2049 108.486 65.2386 107.921 67.2361 107.241C67.4226 107.367 67.579 107.5 67.7054 107.626C65.6297 108.24 63.5058 108.733 61.3458 109.106" fill="#CA9E67"/>
<path d="M61.5022 109.329C61.4782 109.268 61.436 109.208 61.3819 109.148C63.5539 108.787 65.6898 108.306 67.7776 107.71C67.8919 107.842 67.9762 107.969 68.0363 108.101C65.9004 108.631 63.7224 109.04 61.5022 109.329Z" fill="#CA9E67"/>
<path d="M61.5383 109.545C61.5383 109.485 61.5383 109.425 61.5143 109.365C63.7404 109.094 65.9245 108.697 68.0664 108.179C68.1145 108.312 68.1326 108.444 68.1266 108.571C65.9726 109.016 63.7765 109.347 61.5444 109.545" fill="#CA9E67"/>
<path d="M61.4721 109.762C61.5082 109.702 61.5263 109.641 61.5383 109.581C63.7705 109.395 65.9666 109.082 68.1205 108.649C68.1025 108.781 68.0544 108.907 67.9822 109.034C65.8583 109.401 63.6863 109.641 61.4721 109.756" fill="#CA9E67"/>
<path d="M61.3037 109.972C61.3638 109.918 61.418 109.858 61.4541 109.798C63.6562 109.696 65.8162 109.467 67.934 109.112C67.8498 109.238 67.7415 109.365 67.6091 109.485C65.5454 109.768 63.4456 109.93 61.3037 109.966" fill="#CA9E67"/>
<path d="M62.1099 110.183C61.7549 110.183 61.3939 110.183 61.0329 110.171C61.1232 110.117 61.2014 110.063 61.2676 110.002C63.3975 109.984 65.4852 109.834 67.5309 109.563C67.3865 109.684 67.218 109.804 67.0255 109.924C65.4131 110.099 63.7765 110.183 62.1099 110.183Z" fill="#CA9E67"/>
<path d="M63.2651 110.442C62.4047 110.442 61.5383 110.412 60.6659 110.357C60.7802 110.309 60.8825 110.255 60.9788 110.201C61.436 110.213 61.8873 110.219 62.3385 110.219C63.8848 110.219 65.407 110.141 66.9052 109.99C66.7006 110.105 66.478 110.219 66.2253 110.327C65.2446 110.4 64.2579 110.436 63.2591 110.436" fill="#CA9E67"/>
<path d="M63.8547 110.737C62.6514 110.737 61.4361 110.67 60.2026 110.532C60.341 110.484 60.4734 110.436 60.5937 110.388C61.5383 110.454 62.4709 110.49 63.4035 110.49C64.306 110.49 65.1965 110.46 66.0749 110.394C65.8162 110.502 65.5334 110.604 65.2326 110.706C64.7753 110.725 64.318 110.737 63.8608 110.737" fill="#CA9E67"/>
<path d="M63.8487 111.043C62.4769 111.043 61.0811 110.929 59.6611 110.688C59.8236 110.646 59.98 110.604 60.1244 110.562C61.3999 110.712 62.6634 110.791 63.9029 110.791C64.2879 110.791 64.673 110.785 65.0521 110.767C64.7392 110.863 64.4023 110.959 64.0473 111.043C63.9811 111.043 63.9149 111.043 63.8487 111.043Z" fill="#CA9E67"/>
<path d="M62.6695 111.338C61.4782 111.296 60.2628 111.128 59.0234 110.827C59.2099 110.791 59.3904 110.755 59.5589 110.719C60.9968 110.977 62.4047 111.104 63.7886 111.104H63.8307C63.4637 111.188 63.0786 111.272 62.6755 111.344" fill="#CA9E67"/>
<path d="M61.1172 111.579C60.1966 111.495 59.264 111.284 58.3074 110.935L58.3856 110.923C58.5661 110.899 58.7406 110.869 58.9091 110.845C60.1004 111.158 61.2736 111.332 62.4228 111.38C62.0618 111.44 61.6827 111.501 61.2856 111.555C61.2315 111.561 61.1773 111.567 61.1172 111.579Z" fill="#CA9E67"/>
<path d="M59.4686 111.753C58.8429 111.639 58.1991 111.398 57.5493 111.019C57.7659 111.001 57.9765 110.977 58.187 110.953C59.0895 111.308 59.98 111.525 60.8524 111.615C60.4012 111.669 59.9379 111.717 59.4746 111.753" fill="#CA9E67"/>
<path d="M57.7839 111.856C57.453 111.723 57.1161 111.464 56.7731 111.061C56.9897 111.049 57.2063 111.037 57.4229 111.025C58.0246 111.41 58.6142 111.657 59.1918 111.771C58.7286 111.807 58.2593 111.832 57.79 111.856" fill="#CA9E67"/>
<path d="M56.0872 111.892C56.0511 111.753 56.0211 111.483 55.985 111.079C56.2016 111.079 56.4182 111.079 56.6348 111.067C56.9296 111.47 57.2124 111.735 57.4951 111.868C57.0258 111.886 56.5505 111.892 56.0812 111.892" fill="#CA9E67"/>
<path d="M55.8045 111.892C55.3352 111.892 54.8719 111.88 54.4086 111.862C54.6733 111.729 54.9381 111.465 55.2148 111.061C55.4254 111.067 55.642 111.073 55.8586 111.073C55.8406 111.483 55.8225 111.747 55.8105 111.886" fill="#CA9E67"/>
<path d="M54.1318 111.856C53.6686 111.838 53.2173 111.808 52.7661 111.777C53.3196 111.663 53.8791 111.416 54.4567 111.031C54.6613 111.049 54.8719 111.061 55.0885 111.067C54.7636 111.465 54.4447 111.729 54.1379 111.862" fill="#CA9E67"/>
<path d="M52.4953 111.753C52.0501 111.717 51.6109 111.675 51.1837 111.621C52.014 111.531 52.8623 111.314 53.7227 110.953C53.9212 110.977 54.1198 110.995 54.3304 111.013C53.7046 111.392 53.097 111.639 52.4953 111.747" fill="#CA9E67"/>
<path d="M50.9249 111.591C50.4978 111.537 50.0886 111.477 49.6855 111.41C50.7805 111.356 51.8936 111.176 53.0308 110.857C53.2173 110.887 53.4038 110.917 53.6024 110.941C52.6938 111.29 51.7974 111.507 50.9249 111.591Z" fill="#CA9E67"/>
<path d="M49.4449 111.368C49.0478 111.302 48.6627 111.224 48.2957 111.14C49.6314 111.14 50.9972 111.001 52.387 110.73C52.5555 110.767 52.736 110.803 52.9165 110.833C51.7372 111.146 50.576 111.32 49.4388 111.362" fill="#CA9E67"/>
<path d="M48.1332 111.091H48.0791C47.7181 111.007 47.3691 110.917 47.0442 110.821C47.3511 110.833 47.6639 110.839 47.9768 110.839C49.2343 110.839 50.5158 110.755 51.8154 110.586C51.9658 110.628 52.1283 110.67 52.2907 110.712C50.8768 110.971 49.493 111.097 48.1332 111.097" fill="#CA9E67"/>
<path d="M47.2247 110.773C47.1224 110.773 47.0201 110.773 46.9239 110.773L46.6411 110.7C46.25 110.592 45.3475 110.153 45.0166 110.057C46.1838 110.177 47.8745 110.285 49.3847 110.285C49.9142 110.285 50.4256 110.273 50.8828 110.237C51.0333 110.309 51.5808 110.514 51.7492 110.556C50.3895 110.749 48.5845 110.773 47.2307 110.773" fill="#CA9E67"/>
<path d="M55.8767 109.726C55.6901 109.341 55.5036 108.913 55.3171 108.444C55.4134 108.444 55.5157 108.438 55.6119 108.438C55.7022 108.913 55.7924 109.341 55.8887 109.726H55.8767Z" fill="#CA9E67"/>
<path d="M55.8526 109.726C55.5397 109.347 55.2269 108.926 54.914 108.462C55.0103 108.456 55.1125 108.45 55.2088 108.444C55.4254 108.914 55.642 109.341 55.8646 109.72H55.8526" fill="#CA9E67"/>
<path d="M55.8345 109.732C55.3953 109.365 54.9561 108.95 54.5229 108.498C54.6192 108.492 54.7155 108.48 54.8177 108.474C55.1607 108.938 55.5036 109.359 55.8466 109.732H55.8345Z" fill="#CA9E67"/>
<path d="M55.8165 109.732C55.2509 109.377 54.6914 108.98 54.1378 108.54C54.2341 108.528 54.3304 108.516 54.4266 108.51C54.8899 108.962 55.3592 109.371 55.8285 109.738H55.8165" fill="#CA9E67"/>
<path d="M55.8045 109.732C55.1186 109.395 54.4387 109.01 53.7708 108.589C53.849 108.577 53.9333 108.565 54.0175 108.552H54.0476C54.6312 108.986 55.2208 109.383 55.8165 109.732H55.8045Z" fill="#CA9E67"/>
<path d="M55.7864 109.738C54.9922 109.419 54.198 109.058 53.4219 108.655C53.5061 108.637 53.5903 108.625 53.6806 108.607C54.3785 109.028 55.0885 109.407 55.7984 109.738H55.7864Z" fill="#CA9E67"/>
<path d="M55.7684 109.738C54.8719 109.443 53.9814 109.1 53.097 108.715C53.1752 108.697 53.2534 108.679 53.3316 108.661C54.1379 109.064 54.9561 109.419 55.7744 109.732H55.7623" fill="#CA9E67"/>
<path d="M55.7563 109.744C54.7636 109.473 53.7829 109.154 52.8082 108.793C52.8804 108.775 52.9465 108.757 53.0248 108.733C53.9333 109.112 54.8478 109.449 55.7684 109.738H55.7563" fill="#CA9E67"/>
<path d="M55.7443 109.75C54.6673 109.503 53.6024 109.214 52.5434 108.883C52.6036 108.859 52.6698 108.841 52.736 108.823C53.7287 109.178 54.7335 109.485 55.7503 109.75H55.7443Z" fill="#CA9E67"/>
<path d="M55.7323 109.75C54.5831 109.533 53.4399 109.268 52.3148 108.962C52.369 108.938 52.4231 108.919 52.4833 108.895C53.5603 109.22 54.6433 109.509 55.7383 109.744H55.7323" fill="#CA9E67"/>
<path d="M55.7262 109.756C54.5109 109.569 53.3076 109.335 52.1163 109.058C52.1644 109.034 52.2125 109.01 52.2607 108.986C53.4038 109.287 54.565 109.539 55.7323 109.75H55.7262" fill="#CA9E67"/>
<path d="M55.7202 109.762C54.4507 109.605 53.1932 109.407 51.9478 109.16C51.9839 109.136 52.026 109.112 52.0681 109.088C53.2715 109.359 54.4928 109.581 55.7202 109.762Z" fill="#CA9E67"/>
<path d="M55.7082 109.768C54.3966 109.647 53.097 109.479 51.8094 109.262L51.9057 109.184C53.1631 109.425 54.4327 109.617 55.7142 109.762" fill="#CA9E67"/>
<path d="M55.7082 109.768C54.3665 109.678 53.0308 109.545 51.7131 109.365L51.7853 109.286C53.0789 109.491 54.3905 109.654 55.7142 109.768" fill="#CA9E67"/>
<path d="M55.7022 109.774C54.3364 109.72 52.9827 109.617 51.6409 109.467L51.6891 109.389C53.0127 109.563 54.3544 109.69 55.7022 109.768" fill="#CA9E67"/>
<path d="M55.7022 109.78C54.3244 109.762 52.9646 109.696 51.6109 109.581L51.6289 109.497C52.9706 109.635 54.3304 109.732 55.7022 109.774" fill="#CA9E67"/>
<path d="M55.0283 109.786C53.8852 109.786 52.748 109.75 51.6229 109.69V109.605C52.9646 109.708 54.3304 109.768 55.7082 109.78C55.4796 109.786 55.257 109.786 55.0343 109.786" fill="#CA9E67"/>
<path d="M53.5302 109.828C52.9044 109.828 52.2787 109.816 51.659 109.798L51.6229 109.714C52.6217 109.768 53.6325 109.792 54.6433 109.792C54.9922 109.792 55.3472 109.792 55.6962 109.78C54.9682 109.81 54.2462 109.822 53.5242 109.822" fill="#CA9E67"/>
<path d="M52.1223 109.912C51.9959 109.912 51.8696 109.912 51.7432 109.912L51.677 109.828C52.1704 109.84 52.6698 109.846 53.1692 109.846C54.0115 109.846 54.8538 109.828 55.7022 109.792C54.4988 109.876 53.3015 109.912 52.1163 109.912" fill="#CA9E67"/>
<path d="M51.8575 110.02L51.7673 109.936H51.7853C53.0789 109.936 54.3905 109.888 55.7082 109.798C54.4086 109.924 53.1271 109.996 51.8515 110.02" fill="#CA9E67"/>
<path d="M52.014 110.129C51.9718 110.105 51.9297 110.075 51.8936 110.051C53.1571 110.015 54.4266 109.936 55.7142 109.804C54.4688 109.96 53.2353 110.069 52.0079 110.129" fill="#CA9E67"/>
<path d="M55.9067 109.726H55.8947C55.8345 109.341 55.7744 108.907 55.7142 108.432C55.7684 108.432 55.8225 108.432 55.8767 108.432C55.9248 108.432 55.9669 108.432 56.015 108.432C55.9789 108.907 55.9489 109.335 55.9128 109.726" fill="#CA9E67"/>
<path d="M55.9248 109.726H55.9128C55.9789 109.341 56.0451 108.907 56.1053 108.438C56.2016 108.438 56.3038 108.438 56.4001 108.444C56.2437 108.913 56.0872 109.341 55.9248 109.726Z" fill="#CA9E67"/>
<path d="M55.9429 109.726H55.9308C56.1233 109.341 56.3099 108.914 56.4964 108.444C56.5926 108.444 56.6889 108.45 56.7852 108.456C56.5084 108.92 56.2256 109.347 55.9429 109.72" fill="#CA9E67"/>
<path d="M55.9609 109.732H55.9489C56.2617 109.353 56.5746 108.932 56.8814 108.468C56.9777 108.474 57.074 108.48 57.1642 108.492C56.7671 108.95 56.364 109.365 55.9609 109.732Z" fill="#CA9E67"/>
<path d="M55.9789 109.732H55.9669C56.4001 109.365 56.8333 108.956 57.2605 108.498C57.3507 108.504 57.447 108.516 57.5373 108.528C57.0258 108.974 56.5024 109.377 55.9789 109.732Z" fill="#CA9E67"/>
<path d="M55.991 109.732H55.9789C56.5325 109.377 57.08 108.98 57.6215 108.534C57.7117 108.546 57.802 108.558 57.8862 108.571C57.2605 108.998 56.6287 109.389 55.991 109.732Z" fill="#CA9E67"/>
<path d="M56.009 109.738H55.997C56.6648 109.401 57.3207 109.016 57.9765 108.589C58.0607 108.601 58.1449 108.619 58.2292 108.631C57.4951 109.046 56.7551 109.413 56.009 109.738Z" fill="#CA9E67"/>
<path d="M56.0211 109.738H56.009C56.7792 109.419 57.5493 109.052 58.3074 108.643C58.3916 108.661 58.4698 108.673 58.5481 108.691C57.7117 109.082 56.8694 109.431 56.0211 109.738Z" fill="#CA9E67"/>
<path d="M56.0391 109.744H56.0271C56.8995 109.443 57.7659 109.1 58.6263 108.715C58.7045 108.733 58.7767 108.751 58.8489 108.769C57.9223 109.136 56.9837 109.467 56.0391 109.744Z" fill="#CA9E67"/>
<path d="M56.0511 109.744H56.0391C57.0078 109.467 57.9705 109.148 58.9211 108.781C58.9933 108.799 59.0595 108.823 59.1256 108.841C58.1088 109.184 57.086 109.485 56.0511 109.744Z" fill="#CA9E67"/>
<path d="M56.0632 109.75H56.0572C57.1101 109.497 58.157 109.202 59.1979 108.865C59.264 108.889 59.3242 108.907 59.3844 108.932C58.2893 109.25 57.1823 109.521 56.0692 109.744" fill="#CA9E67"/>
<path d="M56.0752 109.756H56.0692C57.2063 109.533 58.3315 109.268 59.4445 108.962C59.5047 108.986 59.5588 109.01 59.613 109.034C58.4458 109.323 57.2665 109.563 56.0812 109.756" fill="#CA9E67"/>
<path d="M56.0812 109.762C57.2846 109.575 58.4819 109.341 59.6611 109.064L59.7574 109.118L59.7995 109.142C58.5721 109.395 57.3327 109.605 56.0812 109.768" fill="#CA9E67"/>
<path d="M56.0872 109.762C57.3507 109.605 58.6022 109.407 59.8416 109.16C59.8837 109.184 59.9199 109.214 59.956 109.238C58.6804 109.455 57.3929 109.629 56.0933 109.762" fill="#CA9E67"/>
<path d="M56.0933 109.768C57.4049 109.647 58.7045 109.479 59.986 109.268L60.0703 109.353C58.7586 109.539 57.435 109.678 56.0933 109.774" fill="#CA9E67"/>
<path d="M56.0993 109.774C57.441 109.684 58.7767 109.557 60.0943 109.377L60.1485 109.461C58.8128 109.611 57.459 109.714 56.0993 109.774Z" fill="#CA9E67"/>
<path d="M56.0993 109.78C57.4651 109.726 58.8188 109.629 60.1605 109.491L60.1846 109.575C58.8369 109.69 57.4711 109.762 56.0993 109.786" fill="#CA9E67"/>
<path d="M56.6468 109.786C56.4663 109.786 56.2798 109.786 56.0993 109.786C57.4771 109.768 58.8369 109.708 60.1906 109.599V109.684C59.0174 109.756 57.8381 109.792 56.6468 109.792" fill="#CA9E67"/>
<path d="M58.1329 109.828C57.459 109.828 56.7792 109.816 56.0993 109.792C56.4061 109.792 56.719 109.792 57.0258 109.792C58.0848 109.792 59.1377 109.762 60.1846 109.708L60.1545 109.792C59.4806 109.816 58.8068 109.828 58.1329 109.828Z" fill="#CA9E67"/>
<path d="M59.5228 109.9C58.3916 109.9 57.2485 109.864 56.0933 109.798C56.8935 109.828 57.6937 109.846 58.4879 109.846C59.0414 109.846 59.5889 109.84 60.1364 109.822L60.0823 109.9C59.8958 109.9 59.7093 109.9 59.5228 109.9Z" fill="#CA9E67"/>
<path d="M59.98 110.002C58.6925 109.984 57.3989 109.918 56.0872 109.798C57.3507 109.882 58.6022 109.924 59.8416 109.924C59.9138 109.924 59.986 109.924 60.0522 109.924L59.974 110.002" fill="#CA9E67"/>
<path d="M59.8477 110.105C58.6082 110.051 57.3507 109.954 56.0872 109.804C57.3868 109.924 58.6744 109.996 59.9499 110.027C59.9198 110.051 59.8837 110.075 59.8416 110.105" fill="#CA9E67"/>
<path d="M59.6732 110.201C58.4879 110.117 57.2846 109.99 56.0752 109.81H56.0812C57.3327 109.96 58.5721 110.069 59.8055 110.129C59.7634 110.153 59.7213 110.177 59.6732 110.201Z" fill="#CA9E67"/>
<path d="M59.4746 110.291C58.3495 110.177 57.2124 110.021 56.0692 109.81H56.0752C57.2725 109.996 58.4578 110.129 59.631 110.219C59.5829 110.243 59.5288 110.267 59.4746 110.291Z" fill="#CA9E67"/>
<path d="M59.24 110.381C58.1871 110.243 57.1281 110.057 56.0572 109.816H56.0632C57.1883 110.027 58.3074 110.195 59.4145 110.315C59.3603 110.339 59.3001 110.357 59.234 110.381" fill="#CA9E67"/>
<path d="M58.9752 110.466C58.0066 110.303 57.0319 110.087 56.0451 109.822H56.0572C57.1101 110.063 58.151 110.255 59.1798 110.406C59.1136 110.43 59.0474 110.448 58.9813 110.466" fill="#CA9E67"/>
<path d="M58.6804 110.538C57.802 110.351 56.9175 110.111 56.0271 109.822H56.0391C57.0018 110.087 57.9584 110.309 58.903 110.478C58.8308 110.496 58.7586 110.514 58.6804 110.532" fill="#CA9E67"/>
<path d="M58.3615 110.61C57.5854 110.4 56.8032 110.141 56.015 109.828H56.0271C56.8935 110.117 57.7539 110.363 58.6022 110.556C58.524 110.574 58.4398 110.592 58.3555 110.604" fill="#CA9E67"/>
<path d="M58.0126 110.67C57.3507 110.442 56.6769 110.165 56.003 109.834H56.015C56.7792 110.147 57.5312 110.412 58.2773 110.628C58.1931 110.646 58.1028 110.658 58.0126 110.67Z" fill="#CA9E67"/>
<path d="M52.1884 110.195C52.1463 110.171 52.1042 110.153 52.0681 110.129C53.1812 110.075 54.4086 109.966 55.7082 109.81H55.7202C54.4808 109.99 53.2955 110.117 52.1945 110.195" fill="#CA9E67"/>
<path d="M52.387 110.279C52.3329 110.255 52.2787 110.237 52.2306 110.213C53.3256 110.129 54.4988 109.996 55.7142 109.81H55.7262C54.5831 110.015 53.458 110.171 52.387 110.279Z" fill="#CA9E67"/>
<path d="M52.6397 110.369C52.5735 110.345 52.5073 110.327 52.4472 110.303C53.5061 110.189 54.6192 110.027 55.7323 109.816H55.7443C54.7094 110.051 53.6565 110.237 52.6337 110.369" fill="#CA9E67"/>
<path d="M52.9405 110.46C52.8563 110.436 52.7841 110.418 52.7119 110.394C53.7227 110.249 54.7515 110.063 55.7563 109.822H55.7684C54.8538 110.081 53.8972 110.297 52.9405 110.46Z" fill="#CA9E67"/>
<path d="M53.2955 110.55C53.1993 110.526 53.109 110.508 53.0188 110.484C53.9574 110.309 54.8899 110.087 55.7684 109.822H55.7864C55.0103 110.105 54.1679 110.351 53.2955 110.55Z" fill="#CA9E67"/>
<path d="M54.0656 110.7C53.9754 110.688 53.8912 110.676 53.8069 110.664C54.4567 110.442 55.1065 110.171 55.7684 109.846C55.1547 110.141 54.4627 110.412 53.7227 110.64C53.6084 110.616 53.5001 110.592 53.3978 110.574C54.2461 110.363 55.0524 110.111 55.7924 109.828H55.8105H55.8225C55.2329 110.171 54.6493 110.46 54.0717 110.7" fill="#CA9E67"/>
<path d="M57.6335 110.718C57.086 110.472 56.5385 110.177 55.9789 109.834H55.985H55.991C56.6408 110.165 57.2785 110.454 57.9163 110.682C57.8742 110.688 57.8321 110.694 57.79 110.7C57.7418 110.706 57.6877 110.712 57.6335 110.718Z" fill="#CA9E67"/>
<path d="M57.2485 110.761C56.8213 110.502 56.3941 110.195 55.9609 109.834H55.9729C56.4964 110.183 57.0198 110.484 57.5373 110.73C57.441 110.742 57.3447 110.755 57.2485 110.761Z" fill="#CA9E67"/>
<path d="M56.8574 110.791C56.5565 110.52 56.2497 110.207 55.9428 109.834H55.9549C56.358 110.195 56.7551 110.508 57.1462 110.767C57.0499 110.773 56.9476 110.785 56.8514 110.791" fill="#CA9E67"/>
<path d="M56.4603 110.809C56.2858 110.532 56.1053 110.213 55.9248 109.834H55.9368C56.2136 110.201 56.4843 110.526 56.7551 110.791C56.6588 110.791 56.5565 110.803 56.4603 110.803" fill="#CA9E67"/>
<path d="M56.0632 110.821C56.009 110.544 55.9609 110.219 55.9067 109.84H55.9188C56.0692 110.213 56.2136 110.538 56.358 110.815C56.2617 110.815 56.1594 110.815 56.0632 110.815" fill="#CA9E67"/>
<path d="M55.9308 110.821C55.8406 110.821 55.7563 110.821 55.6661 110.821C55.7383 110.544 55.8105 110.219 55.8887 109.84H55.9007C55.9188 110.219 55.9428 110.544 55.9609 110.821H55.9308Z" fill="#CA9E67"/>
<path d="M55.5698 110.815C55.4735 110.815 55.3713 110.815 55.275 110.803C55.4735 110.532 55.6661 110.207 55.8706 109.834H55.8827C55.7744 110.213 55.6721 110.538 55.5698 110.815Z" fill="#CA9E67"/>
<path d="M55.1847 110.803C55.0885 110.803 54.9922 110.791 54.8959 110.785C55.2148 110.52 55.5337 110.201 55.8586 109.834H55.8706C55.642 110.207 55.4134 110.526 55.1847 110.797" fill="#CA9E67"/>
<path d="M55.8526 109.834H55.8406C55.3953 110.189 54.9561 110.496 54.5229 110.749C54.6132 110.755 54.7094 110.767 54.8057 110.773C55.1547 110.508 55.5036 110.195 55.8586 109.834" fill="#CA9E67"/>
<path d="M54.4266 110.742C54.3364 110.73 54.2461 110.724 54.1559 110.712C54.7034 110.472 55.263 110.177 55.8225 109.834H55.8345C55.3592 110.189 54.8899 110.49 54.4266 110.742Z" fill="#CA9E67"/>
<path d="M53.482 0.162414C53.6324 0.084198 53.7889 0.0420814 53.9393 0.0360647H53.9874L55.0343 0.00598145C54.9561 0.00598145 54.8779 0.048098 54.7997 0.126314C54.3605 0.132331 53.9212 0.144364 53.476 0.162414" fill="#CA9E67"/>
<path d="M53.5482 0.0541992C53.5482 0.0541992 53.5602 0.0541992 53.5663 0.0541992H53.5482ZM51.7252 0.252749C51.9538 0.174532 52.1884 0.126399 52.4231 0.114366L53.5482 0.0541992C53.3797 0.0662325 53.2113 0.108349 53.0428 0.186566C52.6036 0.204616 52.1644 0.228682 51.7252 0.258765" fill="#CA9E67"/>
<path d="M52.02 0.138428C52.02 0.138428 52.032 0.138428 52.038 0.138428H52.02ZM49.9864 0.38511C50.2631 0.312911 50.5459 0.258761 50.8347 0.234694L51.4123 0.186561L52.02 0.138428C51.7733 0.156478 51.5266 0.204611 51.286 0.282827C50.8467 0.312911 50.4135 0.349011 49.9803 0.391127" fill="#CA9E67"/>
<path d="M50.3113 0.288767C50.3474 0.288767 50.3774 0.28275 50.4135 0.276733L50.3113 0.288767ZM48.2716 0.571549C48.5544 0.505366 48.8372 0.457233 49.12 0.421133L50.3113 0.288767C50.0586 0.31885 49.8059 0.366983 49.5532 0.42715C49.12 0.469266 48.6928 0.5174 48.2716 0.571549Z" fill="#CA9E67"/>
<path d="M48.6687 0.481323C48.6687 0.481323 48.6747 0.481323 48.6807 0.481323H48.6687ZM46.611 0.806223C46.7494 0.776139 46.8938 0.752073 47.0322 0.721989L48.5303 0.499373L48.6687 0.481323C48.3919 0.517423 48.1212 0.565556 47.8444 0.625723C47.7963 0.63174 47.7482 0.637756 47.7 0.643773C47.327 0.691906 46.966 0.746056 46.611 0.800206" fill="#CA9E67"/>
<path d="M45.7506 0.950691L46.4486 0.824341C46.3703 0.836374 46.2921 0.854424 46.2139 0.872474C46.0575 0.896541 45.9071 0.926624 45.7506 0.950691Z" fill="#CA9E67"/>
<path d="M55.2449 0.120333C55.293 0.0421166 55.3472 0 55.4013 0H56.4362H56.4843C56.5144 0 56.5385 0.0421166 56.5686 0.120333C56.37 0.120333 56.1715 0.120333 55.9669 0.120333C55.7262 0.120333 55.4856 0.120333 55.2509 0.120333" fill="#CA9E67"/>
<path d="M58.3074 0.156398C57.8742 0.144364 57.441 0.132331 57.0018 0.126315C56.9476 0.048098 56.8935 0.00598145 56.8393 0.00598145L57.9223 0.0300481C58.0547 0.0300481 58.181 0.0781813 58.3074 0.156398Z" fill="#CA9E67"/>
<path d="M60.0282 0.240664C59.601 0.216597 59.1738 0.192531 58.7406 0.174481C58.5902 0.0962641 58.4398 0.0541476 58.2833 0.0421143L58.8609 0.0661809L59.3844 0.0962641C59.601 0.108297 59.8176 0.156431 60.0282 0.234647" fill="#CA9E67"/>
<path d="M59.7875 0.126343H59.7514C59.7514 0.126343 59.7755 0.126343 59.7875 0.126343ZM61.7068 0.360992C61.2916 0.324892 60.8705 0.294809 60.4493 0.264726C60.2327 0.192526 60.0101 0.144393 59.7875 0.126343L60.8885 0.210576C61.1653 0.234643 61.4421 0.288792 61.7068 0.360992Z" fill="#CA9E67"/>
<path d="M63.3433 0.529487C62.9402 0.481354 62.5311 0.439237 62.1219 0.403137C61.8392 0.324921 61.5564 0.276787 61.2676 0.246704L61.3939 0.258737L62.4769 0.373054C62.7657 0.409154 63.0545 0.457287 63.3433 0.529487Z" fill="#CA9E67"/>
<path d="M63.0365 0.445174L62.8921 0.427124C62.9402 0.433141 62.9883 0.439157 63.0365 0.445174ZM64.9257 0.73999C64.5406 0.68584 64.1496 0.63169 63.7464 0.583557C63.5118 0.529407 63.2711 0.481274 63.0365 0.451191L64.1435 0.601607C64.4083 0.637707 64.667 0.68584 64.9257 0.746007" fill="#CA9E67"/>
<path d="M64.8716 0.709998L64.6008 0.661865C64.6911 0.673899 64.7813 0.691948 64.8716 0.709998ZM66.4299 0.986765C66.0629 0.920581 65.6898 0.860415 65.3048 0.800248C65.1604 0.770165 65.016 0.740082 64.8716 0.716015L66.0147 0.908548C66.1531 0.932615 66.2915 0.962698 66.4299 0.992781" fill="#CA9E67"/>
<path d="M66.6886 1.0289L66.496 0.992798C66.5622 1.00483 66.6224 1.01686 66.6886 1.0289ZM66.9353 1.07703C66.8871 1.07101 66.839 1.05898 66.7909 1.04695C66.7548 1.04093 66.7187 1.03491 66.6826 1.02288L66.9292 1.07101M67.3263 1.14923L66.9292 1.07101C67.0616 1.09508 67.194 1.12516 67.3263 1.14923ZM67.4467 1.1733C67.4046 1.16728 67.3624 1.15525 67.3263 1.14923H67.3624L67.4467 1.1733ZM67.5429 1.19135L67.4467 1.1733C67.4768 1.17931 67.5129 1.18533 67.5429 1.19135Z" fill="#CA9E67"/>
<path d="M39.373 37.5079C39.4993 31.9726 39.8964 26.9186 40.5222 22.4422C45.516 22.015 50.6241 21.8104 55.6781 21.8104C55.8285 21.8104 55.9729 21.8104 56.1233 21.8104C56.1173 26.2688 56.1113 31.3047 56.0993 36.834C55.9368 36.834 55.7804 36.834 55.6179 36.834C50.1969 36.834 44.7218 37.0566 39.367 37.5139" fill="#CA9E67"/>
<path d="M22.6106 39.8482C22.8573 34.3009 23.6394 29.1867 24.8849 24.6201C27.4179 24.1027 30.1555 23.6394 33.0916 23.2423C35.1433 22.9655 37.225 22.7309 39.3309 22.5383C38.657 27.0207 38.2358 32.0807 38.0974 37.6161C35.8412 37.8266 33.609 38.0793 31.4129 38.3742C28.2662 38.7953 25.3301 39.2947 22.6106 39.8482Z" fill="#CA9E67"/>
<path d="M10.0298 43.4522C10.3667 37.8748 11.4437 32.6824 13.1524 27.9834C16.0945 26.8041 19.6985 25.7332 23.9042 24.8307C22.6226 29.4033 21.8104 34.5175 21.5577 40.0709C17.0452 41.0396 13.1825 42.1887 10.0298 43.4522Z" fill="#CA9E67"/>
<path d="M2.38861 47.9046C2.77368 42.2971 4.03116 37.0024 6.02267 32.135C7.46667 30.7632 9.6447 29.4576 12.4846 28.2603C10.7518 32.9713 9.65673 38.1697 9.31378 43.7471C6.26935 45.0287 3.94091 46.4366 2.38861 47.9046Z" fill="#CA9E67"/>
<path d="M0.168465 51.7252C0.367015 49.9322 0.571581 47.6158 0.908514 45.8951C2.19608 40.1552 2.22014 40.0469 3.32119 36.9603L4.25979 34.5416C4.55461 33.8377 5.03594 33.1337 5.69777 32.4539C3.69422 37.3334 2.43073 42.634 2.03964 48.2416C0.962664 49.5532 0.348965 50.3053 0.162449 51.7252M0.138382 51.9538C0.144399 51.8756 0.156432 51.7974 0.162449 51.7252C0.156432 51.8034 0.144399 51.8816 0.138382 51.9538Z" fill="#CA9E67"/>
<path d="M73.6799 37.6583C68.4454 37.1649 62.9522 36.8821 57.3808 36.834C57.3808 31.3047 57.3628 26.2688 57.3207 21.8104C62.513 21.8586 67.6392 22.1173 72.5247 22.5806C73.1685 27.069 73.5656 32.123 73.6799 37.6583Z" fill="#CA9E67"/>
<path d="M89.4616 39.9747C84.9973 39.0421 80.0756 38.3021 74.8833 37.7786C74.7629 32.2433 74.3297 27.1833 73.6438 22.6888C78.4872 23.1822 83.0779 23.8681 87.2415 24.7405C88.4689 29.3132 89.233 34.4273 89.4616 39.9747Z" fill="#CA9E67"/>
<path d="M102.067 43.6448C98.7995 42.3151 94.8766 41.1599 90.4845 40.1972C90.2498 34.6439 89.4616 29.5297 88.1981 24.951C92.2955 25.8475 95.9536 26.9245 98.998 28.17C100.689 32.875 101.748 38.0734 102.067 43.6508" fill="#CA9E67"/>
<path d="M109.954 48.404C109.034 47.4594 107.776 46.5208 106.164 45.6062C105.153 45.0286 104.028 44.4811 102.807 43.9577C102.488 38.3802 101.411 33.1758 99.6899 28.4528C100.827 28.9401 101.874 29.4575 102.819 29.993C104.323 30.8474 105.496 31.7198 106.35 32.6042C108.336 37.4898 109.575 42.7965 109.948 48.404" fill="#CA9E67"/>
<path d="M111.874 52.1403C111.513 50.4196 111.501 50.3534 110.285 48.759C109.912 43.1454 108.661 37.8327 106.669 32.9352C107.193 33.5308 107.578 34.1325 107.824 34.7342L107.843 34.7763C109.804 40.1431 109.876 40.3537 110.616 43.5546C111.091 46.1177 111.597 49.5532 111.874 52.1403Z" fill="#CA9E67"/>
<path d="M48.9695 20.9079C49.2283 17.2137 49.5652 13.9346 49.9623 11.1369C51.8936 11.0647 53.831 11.0286 55.7563 11.0286C57.6817 11.0286 59.4265 11.0586 61.2375 11.1248C61.5624 13.9226 61.8331 17.1956 62.0377 20.8899C59.9379 20.8177 57.82 20.7816 55.6901 20.7816C53.5602 20.7816 51.2138 20.8237 48.9756 20.9019" fill="#CA9E67"/>
<path d="M34.8545 22.0149C35.6186 18.2786 36.6053 14.9514 37.7786 12.0935C41.4126 11.6422 45.161 11.3414 48.9274 11.179C48.4641 13.9767 48.0791 17.2558 47.7722 20.956C43.4041 21.1486 39.0601 21.4975 34.8485 22.0149" fill="#CA9E67"/>
<path d="M22.3278 24.211C23.5432 20.3964 25.1075 16.967 26.9666 13.9887C29.7824 13.3209 32.9532 12.7372 36.4489 12.2679C36.5632 12.2499 36.6775 12.2379 36.7858 12.2258C35.5464 15.0898 34.5115 18.423 33.7053 22.1653C33.5729 22.1834 33.4466 22.2014 33.3142 22.2195C29.265 22.767 25.5948 23.4349 22.3278 24.211Z" fill="#CA9E67"/>
<path d="M12.8937 27.1772C14.446 23.2544 16.4435 19.6925 18.8261 16.5518C20.8778 15.6854 23.3446 14.8852 26.1845 14.1813C24.2712 17.1716 22.6647 20.6131 21.4193 24.4337C18.1282 25.2519 15.2763 26.1785 12.8937 27.1833" fill="#CA9E67"/>
<path d="M6.84093 30.709C8.60983 26.6598 10.8901 22.9355 13.6037 19.5962C14.7288 18.6155 16.2991 17.6709 18.2786 16.7925C15.8599 19.9512 13.8323 23.5251 12.2559 27.46C9.96358 28.4768 8.14655 29.5719 6.84093 30.709Z" fill="#CA9E67"/>
<path d="M4.95772 32.9713C5.61955 31.6115 6.40773 29.8908 7.13575 28.6453C10.0478 23.8922 10.1621 23.7057 12.2499 21.0643L12.6229 20.6071C12.8275 20.3604 13.0561 20.1137 13.3088 19.873C10.5713 23.2243 8.27891 26.9667 6.49798 31.0279C5.82412 31.6657 5.30669 32.3155 4.95772 32.9773M4.80129 33.2962C4.84942 33.1879 4.89755 33.0856 4.95772 32.9773C4.90357 33.0856 4.85544 33.1879 4.80129 33.2962Z" fill="#CA9E67"/>
<path d="M75.6775 21.9006C71.6884 21.4373 67.4948 21.1124 63.211 20.9379C62.9643 17.2377 62.6394 13.9646 62.2483 11.1669C65.9485 11.3173 69.5645 11.6001 73.0061 11.9972C74.083 14.8491 74.9795 18.1703 75.6775 21.9006Z" fill="#CA9E67"/>
<path d="M87.8973 23.8982C84.4618 23.1461 80.7194 22.5204 76.7605 22.033C76.0264 18.2967 75.0758 14.9695 73.9447 12.1116C77.3561 12.5327 80.5871 13.0742 83.5533 13.718C85.3041 16.6782 86.7662 20.0957 87.8973 23.8982Z" fill="#CA9E67"/>
<path d="M97.891 26.8042C95.2557 25.7813 92.1992 24.8788 88.8178 24.1027C87.6566 20.2941 86.1465 16.8707 84.3475 13.8984C87.2656 14.5663 89.9008 15.3485 92.1751 16.2269C94.4735 19.3495 96.3988 22.8933 97.891 26.8042Z" fill="#CA9E67"/>
<path d="M104.792 30.4984C104.112 29.9569 103.312 29.4214 102.385 28.8919C101.266 28.2542 99.9968 27.6525 98.5949 27.0809C97.0787 23.1641 95.1233 19.6022 92.7828 16.4675C93.9922 16.9609 95.0872 17.4783 96.0499 18.0319C96.8501 18.4891 97.542 18.9464 98.1316 19.4157C100.809 22.7429 103.053 26.4612 104.792 30.4984Z" fill="#CA9E67"/>
<path d="M107.139 33.1638C106.729 32.3756 106.08 31.5934 105.183 30.8233C103.432 26.7741 101.17 23.0377 98.4686 19.6985C98.8777 20.0475 99.2266 20.4024 99.5154 20.7574C100.815 22.4902 102.506 24.8307 103.691 26.6357C104.774 28.555 106.146 31.1181 107.139 33.1638ZM107.283 33.4646C107.235 33.3623 107.187 33.266 107.139 33.1638C107.193 33.266 107.241 33.3683 107.283 33.4646Z" fill="#CA9E67"/>
<path d="M45.0286 10.6616C45.6363 8.42939 46.3222 6.52211 47.0683 4.9638C49.5231 4.78931 52.0079 4.69305 54.4808 4.66296C54.3424 6.19119 54.2221 8.08042 54.1078 10.2946C51.0754 10.3246 48.0309 10.445 45.0226 10.6616" fill="#CA9E67"/>
<path d="M35.2215 11.7205C36.3647 9.42812 37.6522 7.45465 39.0661 5.83016C39.4873 5.76999 39.9145 5.70381 40.3537 5.64966C42.285 5.39094 44.2585 5.18036 46.256 5.02393C45.4438 6.58224 44.6977 8.50155 44.0299 10.7337C41.5811 10.9263 39.1624 11.179 36.7979 11.4978C36.2624 11.57 35.7389 11.6422 35.2215 11.7205Z" fill="#CA9E67"/>
<path d="M26.7139 13.375C28.3264 10.9924 30.1374 8.91669 32.1169 7.17787C33.9821 6.71459 36.0458 6.29944 38.302 5.94446C36.8279 7.58099 35.4862 9.56648 34.2889 11.8648C31.5273 12.298 28.9943 12.8095 26.7079 13.375" fill="#CA9E67"/>
<path d="M20.0475 15.4749C21.7562 14.789 23.7357 14.1452 25.9619 13.5676C27.6104 11.179 29.4696 9.0852 31.5032 7.33435C29.6862 7.80967 28.0677 8.33312 26.6718 8.89266C24.2411 10.7759 22.0149 12.978 20.0415 15.4749" fill="#CA9E67"/>
<path d="M13.8383 19.1871C15.2763 17.6288 17.0873 15.6854 18.6035 14.3377C19.6263 13.4833 20.9741 12.3161 22.033 11.4978C21.7622 11.7264 21.5095 11.937 21.2689 12.1356C21.7923 11.7084 22.3097 11.2872 22.8512 10.8841C23.7477 10.2523 24.8728 9.65068 26.2206 9.0791C23.7477 10.9743 21.4915 13.1945 19.4879 15.7034C17.8394 16.4014 16.4555 17.1414 15.3545 17.9115C16.8887 16.1005 18.5674 14.4339 20.3543 12.8937C17.9296 14.9393 17.3159 15.5651 14.9995 18.1703C14.5603 18.5012 14.1692 18.8381 13.8383 19.1811" fill="#CA9E67"/>
<path d="M13.5074 19.5421C13.6097 19.4218 13.724 19.3015 13.8383 19.1871C13.73 19.3075 13.6157 19.4278 13.5074 19.5421Z" fill="#CA9E67"/>
<path d="M64.1135 10.5111C61.3699 10.3606 58.5781 10.2884 55.7623 10.2884C55.5518 10.2884 55.3412 10.2884 55.1246 10.2884C55.1787 8.07432 55.2449 6.19111 55.3111 4.65686C55.4856 4.65686 55.6601 4.65686 55.8285 4.65686C58.1269 4.65686 60.4072 4.71703 62.6454 4.83736C63.1809 6.38364 63.6742 8.2849 64.1074 10.505" fill="#CA9E67"/>
<path d="M73.6318 11.3473C70.8882 11.0104 68.0243 10.7517 65.0942 10.5712C64.6068 8.34504 64.0533 6.43776 63.4516 4.89148C65.8463 5.03588 68.1807 5.24646 70.4189 5.52323C71.5982 7.12366 72.6752 9.07907 73.6318 11.3473Z" fill="#CA9E67"/>
<path d="M82.2657 12.7553C79.847 12.2499 77.2538 11.8167 74.5343 11.4617C73.5295 9.18738 72.3984 7.22595 71.1529 5.61951C73.3731 5.90831 75.4849 6.26329 77.4644 6.67844C79.2273 8.37513 80.8337 10.4148 82.2657 12.7613" fill="#CA9E67"/>
<path d="M89.6421 14.7046C87.6626 14.0428 85.4545 13.4472 83.0719 12.9237C81.5979 10.5652 79.9433 8.51952 78.1263 6.81079C80.0696 7.23797 81.8746 7.72532 83.4871 8.2608C85.7433 10.0899 87.807 12.2498 89.6421 14.6986" fill="#CA9E67"/>
<path d="M95.3459 17.1595C93.92 16.3533 92.2233 15.6072 90.2919 14.9273C88.4268 12.4605 86.3209 10.2885 84.0226 8.44739C85.5989 9.00092 86.9888 9.6086 88.15 10.2704C90.7913 12.2619 93.204 14.5723 95.3519 17.1595" fill="#CA9E67"/>
<path d="M98.6129 19.6745C97.9511 18.9164 97.0185 18.1643 95.8032 17.4303C93.6372 14.8251 91.1944 12.5026 88.517 10.4871C88.878 10.7037 89.2089 10.9263 89.5098 11.1489L91.5975 12.7854C95.5986 16.3292 95.8393 16.5398 98.264 19.2654L98.6129 19.6685M98.6551 19.7166L98.6129 19.6685C98.6129 19.6685 98.643 19.6986 98.6551 19.7166Z" fill="#CA9E67"/>
<path d="M51.3221 4.24175C51.647 3.1046 51.9899 2.19007 52.3509 1.50417C53.5362 1.46205 54.7154 1.43799 55.8947 1.43799C56.1835 1.43799 56.4663 1.43799 56.7551 1.43799C56.8153 2.11787 56.8754 3.02638 56.9296 4.15752C56.5686 4.15752 56.2016 4.15752 55.8345 4.15752C54.3304 4.15752 52.8262 4.1876 51.316 4.24175" fill="#CA9E67"/>
<path d="M44.9444 4.65093C45.6965 3.48971 46.4967 2.5451 47.339 1.82912C48.783 1.69675 50.2451 1.59447 51.7191 1.5343C51.298 2.2202 50.8949 3.14075 50.5158 4.2779C48.6446 4.36213 46.7795 4.48246 44.9444 4.65694" fill="#CA9E67"/>
<path d="M38.8014 5.41495C39.9686 4.19959 41.2081 3.20083 42.5137 2.42468C43.0251 2.34646 43.5425 2.26824 44.078 2.19604C44.9504 2.07571 45.8349 1.97343 46.7253 1.88318C45.8228 2.60518 44.9685 3.55581 44.1622 4.72304C43.0251 4.83736 41.9 4.96972 40.7869 5.12014C40.107 5.21039 39.4452 5.30665 38.7954 5.40894" fill="#CA9E67"/>
<path d="M33.3984 6.46194C34.9267 5.18039 36.5572 4.10341 38.2719 3.24905C39.4031 2.9783 40.6305 2.73161 41.9421 2.51501C40.5823 3.29718 39.2887 4.30798 38.0734 5.52936C36.4007 5.80612 34.8424 6.11899 33.3984 6.46194Z" fill="#CA9E67"/>
<path d="M28.9281 7.74951C30.7571 6.37771 32.7125 5.21048 34.7582 4.25985C35.6727 3.94097 36.6835 3.64615 37.7906 3.36938C36.0337 4.23578 34.3551 5.31878 32.7847 6.61236C31.3768 6.96133 30.0893 7.34038 28.9221 7.74951" fill="#CA9E67"/>
<path d="M25.4324 9.21753C26.8042 8.24284 28.2301 7.35839 29.7102 6.55817C30.6789 6.07684 31.9605 5.41501 32.9412 4.96978C33.3864 4.77123 33.8617 4.57869 34.3731 4.39819C32.2854 5.36086 30.2999 6.54012 28.4347 7.92395C27.3036 8.33309 26.3048 8.76628 25.4324 9.22355" fill="#CA9E67"/>
<path d="M27.093 8.06837C27.6044 7.74949 28.1158 7.44264 28.6393 7.14783L27.093 8.06837ZM24.223 9.91549L26.2146 8.58581L27.087 8.06837C26.4011 8.49556 25.7272 8.94681 25.0654 9.41611C24.7645 9.57855 24.4818 9.74702 24.217 9.91549M23.8199 10.1802C23.9463 10.09 24.0786 10.0057 24.217 9.91549L23.8199 10.1802Z" fill="#CA9E67"/>
<path d="M63.2471 4.38613C61.436 4.27783 59.5949 4.20563 57.7358 4.18156C57.6275 3.05043 57.5132 2.14192 57.3929 1.46204C58.8549 1.4861 60.3049 1.54025 61.7248 1.62449C62.2603 2.32242 62.7717 3.24898 63.2531 4.39215" fill="#CA9E67"/>
<path d="M69.2878 4.90959C67.5791 4.71104 65.8162 4.54859 64.0172 4.42825C63.4877 3.27907 62.9222 2.35251 62.3265 1.64856C63.7404 1.74483 65.1243 1.87118 66.472 2.02761C67.4647 2.76164 68.4093 3.73032 69.2938 4.90959" fill="#CA9E67"/>
<path d="M74.9073 5.73391C73.349 5.45113 71.7125 5.20445 70.0158 4.99988C69.0832 3.8146 68.0844 2.84592 67.0376 2.09985C68.3672 2.2623 69.6488 2.45484 70.8762 2.67745C72.2961 3.47767 73.6438 4.5005 74.9073 5.73391Z" fill="#CA9E67"/>
<path d="M79.9433 6.8409C78.5775 6.47991 77.1154 6.15501 75.5752 5.86019C74.2636 4.61474 72.8737 3.58589 71.4056 2.77966C72.615 3.0083 73.7642 3.26701 74.8351 3.54979C76.6341 4.42823 78.3428 5.53529 79.9433 6.8409Z" fill="#CA9E67"/>
<path d="M84.2392 8.21274C83.114 7.77352 81.8686 7.37041 80.5269 6.99738C78.8843 5.67973 77.1335 4.56063 75.2924 3.67017C76.3453 3.95897 77.32 4.27785 78.2105 4.6208C80.3344 5.60753 82.3499 6.80484 84.2392 8.20672" fill="#CA9E67"/>
<path d="M87.6205 9.82514C87.5062 9.75294 87.3859 9.68676 87.2595 9.61456C86.5074 9.18738 85.6531 8.77824 84.7085 8.39318C82.7831 6.97927 80.7315 5.7639 78.5775 4.76514C78.8182 4.8614 79.0528 4.96369 79.2754 5.06597C80.587 5.71577 82.3379 6.58818 83.6194 7.29213L85.1116 8.17056C85.9659 8.69401 86.8023 9.24153 87.6145 9.82514" fill="#CA9E67"/>
<path d="M86.6333 9.1331L86.6218 9.12732L86.6333 9.1331Z" fill="#CA9E67"/>
<path d="M88.1319 10.1502C88.0778 10.1141 88.0236 10.078 87.9695 10.0419L86.6338 9.12732L88.1319 10.1502ZM88.3425 10.2946L88.1319 10.1502C88.2041 10.1983 88.2703 10.2464 88.3425 10.2946Z" fill="#CA9E67"/>
<path d="M50.6963 1.3116C51.0874 0.866368 51.4965 0.535452 51.9117 0.330886C52.6878 0.288769 53.47 0.252669 54.2522 0.234619C54.0656 0.427152 53.8851 0.752051 53.7167 1.19127C52.7119 1.21533 51.7011 1.25745 50.7023 1.3116" fill="#CA9E67"/>
<path d="M47.1164 1.59446C48.1031 1.4982 49.0959 1.41396 50.0947 1.3538C50.5339 0.902548 50.9851 0.571632 51.4484 0.367065C50.6723 0.415199 49.9021 0.481382 49.138 0.553582C48.4461 0.782214 47.7662 1.13118 47.1164 1.60048" fill="#CA9E67"/>
<path d="M43.6328 2.02165C44.5413 1.52227 45.4739 1.1372 46.4365 0.878486C46.6772 0.842386 46.9179 0.806286 47.1645 0.776203C47.6639 0.71002 48.1693 0.649853 48.6747 0.595703C47.9347 0.824336 47.2127 1.17932 46.5208 1.65463C45.8649 1.72683 45.2152 1.80505 44.5714 1.88928C44.2525 1.9314 43.9396 1.97352 43.6268 2.02165" fill="#CA9E67"/>
<path d="M40.456 2.58111C41.5931 2.03961 42.7664 1.61845 43.9757 1.3116C44.6195 1.17923 45.2994 1.0589 46.0094 0.94458C45.0046 1.20931 44.0239 1.6004 43.0792 2.10579C42.1647 2.25019 41.2863 2.40663 40.456 2.57509" fill="#CA9E67"/>
<path d="M37.6582 3.24302C38.5246 2.86397 39.4091 2.53305 40.3056 2.25027C41.2442 1.99757 42.4956 1.66064 43.4342 1.43201C42.2429 1.73886 41.0817 2.16002 39.9566 2.68347C39.1443 2.85795 38.3742 3.04447 37.6582 3.24302Z" fill="#CA9E67"/>
<path d="M35.2696 4.00106C35.6788 3.82658 36.0879 3.66413 36.503 3.5077C37.4537 3.17678 38.7172 2.74358 39.6798 2.44275C38.8495 2.7135 38.0373 3.02035 37.2371 3.36931C36.5331 3.56786 35.8773 3.78446 35.2756 4.00106" fill="#CA9E67"/>
<path d="M34.5536 4.27178L35.3779 3.93484L35.8653 3.74231L34.9086 4.13339C34.7883 4.18153 34.668 4.22364 34.5536 4.27178ZM34.3009 4.37406C34.3852 4.33796 34.4694 4.30788 34.5536 4.27178L34.3009 4.37406Z" fill="#CA9E67"/>
<path d="M54.3244 1.17922C54.4567 0.740002 54.5891 0.421119 54.7275 0.228586C55.1366 0.222569 55.5458 0.216553 55.9549 0.216553C56.3219 0.216553 56.6949 0.216553 57.0619 0.222569C57.1582 0.415102 57.2485 0.733985 57.3387 1.1732C56.8634 1.16718 56.3881 1.16117 55.9128 1.16117C55.3833 1.16117 54.8538 1.16117 54.3244 1.1732" fill="#CA9E67"/>
<path d="M60.9006 1.29957C59.9199 1.24542 58.9331 1.20932 57.9344 1.18525C57.802 0.746035 57.6636 0.427152 57.5252 0.234619C58.2954 0.252669 59.0655 0.282752 59.8236 0.318852C60.1966 0.523418 60.5516 0.848318 60.9006 1.29957Z" fill="#CA9E67"/>
<path d="M64.3601 1.55835C63.4155 1.4681 62.4589 1.3959 61.4842 1.33573C61.0931 0.884481 60.69 0.553565 60.2748 0.348999C61.0269 0.397132 61.773 0.451282 62.501 0.523482C63.1388 0.746098 63.7585 1.09506 64.3541 1.55835" fill="#CA9E67"/>
<path d="M67.6693 1.93738C66.7788 1.81103 65.8583 1.70273 64.9257 1.60647C64.2879 1.13717 63.6261 0.782186 62.9462 0.55957C63.6682 0.63177 64.3782 0.716003 65.0701 0.81227C65.9606 1.06497 66.833 1.438 67.6693 1.93738Z" fill="#CA9E67"/>
<path d="M70.7739 2.44275C69.9436 2.28631 69.0892 2.14192 68.2048 2.01557C67.3264 1.51618 66.4178 1.13713 65.4853 0.878418C66.1712 0.980701 66.833 1.089 67.4768 1.20933C68.6079 1.49813 69.7089 1.91328 70.7739 2.44275Z" fill="#CA9E67"/>
<path d="M73.6198 3.06844C72.8677 2.87591 72.0855 2.70142 71.2673 2.53897C70.1662 2.00349 69.0291 1.58233 67.8618 1.28149C68.3612 1.38979 69.0291 1.53419 69.5284 1.65453L69.7872 1.72071C71.1048 2.05764 72.3803 2.50889 73.6198 3.06844Z" fill="#CA9E67"/>
<path d="M70.6957 1.96147L70.3708 1.87122C70.4791 1.9013 70.5874 1.93138 70.6957 1.96147ZM76.1588 3.80858C75.503 3.58596 74.799 3.3814 74.065 3.18886C72.976 2.70151 71.8509 2.29238 70.7017 1.96748L71.2973 2.12993C72.0795 2.3706 73.1264 2.67745 73.9026 2.94218L76.1588 3.8146" fill="#CA9E67"/>
<path d="M75.521 3.51969L74.6667 3.20081C74.9555 3.30309 75.2383 3.41139 75.521 3.51969ZM77.4885 4.28982C77.1876 4.16949 76.8688 4.04915 76.5439 3.93484C76.2069 3.79044 75.864 3.64604 75.521 3.51367L76.4296 3.8506L77.4885 4.2838M77.8796 4.44024L77.4885 4.2838C77.6208 4.33795 77.7472 4.3921 77.8796 4.44024Z" fill="#CA9E67"/>
<path d="M108.986 74.1612C109.497 72.6571 109.184 71.1228 107.981 69.6066C109.732 64.2458 110.688 58.5781 110.7 52.754C110.7 51.9658 110.688 51.1836 110.652 50.4075C111.477 51.4484 111.904 52.5013 111.952 53.5421L112.006 56.0872C111.753 62.1339 111.747 62.2482 111.194 65.5333C110.372 69.392 109.635 72.268 108.986 74.1612Z" fill="#CA9E67"/>
<path d="M107.698 69.2697C106.802 68.2529 105.496 67.2481 103.775 66.2674C102.62 65.6116 101.308 64.9858 99.8704 64.4022C101.351 58.8669 102.157 53.109 102.169 47.2788C102.169 46.4907 102.157 45.7145 102.133 44.9384C103.649 45.5581 105.021 46.2079 106.236 46.8998C108.047 47.9286 109.419 48.9876 110.357 50.0585C110.388 50.8347 110.406 51.6168 110.406 52.405C110.394 58.2352 109.449 63.9089 107.704 69.2757" fill="#CA9E67"/>
<path d="M99.1364 64.1074C95.4362 62.6755 90.9176 61.4661 85.8576 60.5035C86.8684 54.8418 87.422 49.0056 87.434 43.1815C87.434 42.3933 87.428 41.6172 87.4099 40.847C92.7287 41.8578 97.4698 43.1274 101.363 44.6315C101.387 45.4017 101.405 46.1838 101.399 46.972C101.387 52.8021 100.592 58.5661 99.1364 64.1074Z" fill="#CA9E67"/>
<path d="M84.8348 60.317C79.7026 59.3904 74.047 58.7165 68.1326 58.3194C68.5477 52.5795 68.7824 46.7073 68.7944 40.8832C68.7944 40.095 68.7944 39.3188 68.7884 38.5487C74.9976 38.9639 80.942 39.6738 86.333 40.6485C86.351 41.4186 86.357 42.1948 86.357 42.983C86.345 48.8131 85.8155 54.6493 84.8348 60.317Z" fill="#CA9E67"/>
<path d="M66.9593 58.2413C63.2471 58.0186 59.4385 57.8983 55.6059 57.8983C53.3015 57.8983 50.9911 57.9404 48.6808 58.0247C48.4461 52.2788 48.3258 46.4005 48.3378 40.5703C48.3378 39.7822 48.3378 39.006 48.3498 38.2359C50.7745 38.1456 53.2053 38.1035 55.624 38.1035C59.6491 38.1035 63.6502 38.2238 67.555 38.4585C67.555 39.2286 67.561 40.0048 67.561 40.793C67.549 46.6231 67.3384 52.4953 66.9654 58.2352" fill="#CA9E67"/>
<path d="M29.4816 59.8176C28.6032 54.1319 28.1339 48.2837 28.1459 42.4596C28.1459 41.6714 28.1579 40.8953 28.176 40.1251C29.2169 39.9627 30.2878 39.8062 31.3829 39.6558C36.4669 38.9699 41.7435 38.5247 47.0562 38.29C47.0502 39.0602 47.0442 39.8363 47.0442 40.6245C47.0322 46.4546 47.1766 52.3269 47.4533 58.0728C42.3994 58.2954 37.3754 58.7226 32.5381 59.3724C31.4972 59.5108 30.4804 59.6612 29.4876 59.8176" fill="#CA9E67"/>
<path d="M14.3437 63.3974C12.9599 57.832 12.2138 52.05 12.2258 46.2199C12.2258 45.4317 12.2439 44.6555 12.274 43.8794C16.2931 42.4835 21.2388 41.2682 27.0088 40.3115C26.9907 41.0817 26.9787 41.8578 26.9787 42.646C26.9666 48.4761 27.46 54.3183 28.3745 59.998C22.8753 60.9125 18.1703 62.0677 14.3497 63.3974" fill="#CA9E67"/>
<path d="M5.22246 68.1326C3.53178 62.7236 2.62326 57.0319 2.6353 51.2017C2.6353 50.4135 2.65335 49.6314 2.68945 48.8552C4.62079 47.1706 7.58098 45.5822 11.4738 44.1622C11.4437 44.9324 11.4316 45.7145 11.4256 46.5027C11.4136 52.3328 12.1717 58.1028 13.5856 63.6622C9.87935 65.0099 7.06355 66.5261 5.22246 68.1266" fill="#CA9E67"/>
<path d="M2.80978 73.4753C2.29836 71.7305 1.58238 69.4141 1.20935 67.6392L0.776148 65.3468C0.0360999 59.5047 0 59.276 0 55.9067L0.0601665 53.3616C0.12635 51.9417 0.896481 50.5398 2.31641 49.1981C2.28031 49.9743 2.26226 50.7564 2.26226 51.5446C2.25023 57.3748 3.16476 63.0605 4.86747 68.4574C3.16476 70.0699 2.44276 71.7726 2.80978 73.4813" fill="#CA9E67"/>
</svg>
