<svg width="172" height="186" viewBox="0 0 172 186" fill="none" xmlns="http://www.w3.org/2000/svg">
<g clip-path="url(#clip0_5_2496)">
<path d="M16.2456 35.3367C14.4244 35.3367 12.6395 35.4823 11.0004 35.919V23.5093C14.7158 28.7861 22.6929 33.1532 26.3354 33.1532C27.5375 33.1532 28.266 32.7165 28.266 31.6611C28.266 27.7672 10.5997 27.6216 10.5997 15.7578C10.5997 9.2072 14.8251 5.93192 23.2393 5.93192C26.2626 5.93192 29.6501 6.40501 32.8191 6.40501C34.4218 6.40501 35.9881 6.29584 37.4451 5.93192V15.4303C35.0046 10.9176 28.7395 8.73411 24.8056 8.73411C22.8022 8.73411 21.3816 9.31638 21.3816 10.4081C21.3816 13.7198 39.9585 12.81 39.9585 26.0567C39.9585 32.1342 35.551 35.9554 28.1567 35.9554C24.0771 35.9554 19.9974 35.3367 16.2092 35.3367" fill="#CA9E67"/>
<path d="M42.7997 32.7893C43.1275 30.0235 43.2368 26.3843 43.2003 22.7815V16.0489H40.6141V13.4651C46.9886 13.4651 52.1609 9.02524 56.2406 5.78635V13.4651H58.6446V16.0489H56.2406V20.052C56.2041 25.0014 56.3498 30.0963 56.6777 32.7893C56.9326 34.8636 57.5883 35.082 57.9161 35.4095H41.5976C41.889 35.082 42.5447 34.8636 42.7997 32.7893Z" fill="#CA9E67"/>
<path d="M62.2143 32.5709C60.903 30.533 60.7937 28.9681 60.7937 24.5283C60.7937 20.4887 60.648 18.378 60.3566 16.1217C60.1016 14.0473 59.446 13.829 59.1182 13.5015H75.4367C75.1453 13.829 74.4896 14.011 74.2346 16.1217C73.9432 18.3052 73.834 20.2704 73.834 24.2735C73.834 27.8763 73.7975 31.0425 75.3274 31.0425C76.6387 31.0425 76.748 28.7498 76.748 25.8384V13.5379H91.4274C91.136 13.8654 90.4803 14.0473 90.2253 16.1581C89.9339 18.3416 89.8246 20.3068 89.8246 24.3099C89.8246 28.6406 89.9339 30.4238 90.2253 32.8621C90.4803 34.9 91.136 35.1548 91.4274 35.4823H76.748V33.3715C75.1817 35.0092 72.7412 35.9918 69.1351 35.9918C66.0025 35.9918 63.5256 34.7908 62.1779 32.6437" fill="#CA9E67"/>
<path d="M108.693 24.0552C108.693 16.7768 108.657 15.503 107.199 15.503C105.742 15.503 105.888 16.7768 105.888 24.0552C105.888 31.3336 105.852 32.8257 107.309 32.8257C108.766 32.8257 108.693 31.3336 108.693 24.0552ZM92.4473 24.4191C92.4473 17.359 97.4011 12.992 105.488 12.992C106.617 12.992 107.709 13.0648 108.657 13.2467C108.62 11.1724 108.584 9.6439 108.511 9.02524C108.256 6.98728 107.6 6.76893 107.272 6.40501H123.591C123.299 6.73254 122.644 6.98728 122.389 9.02524C121.77 14.1565 121.77 27.6944 122.389 32.8257C122.644 34.9 123.299 35.1184 123.591 35.4459H105.524C97.4011 35.4459 92.4837 31.5883 92.4837 24.4555" fill="#CA9E67"/>
<path d="M124.611 6.04109C124.611 2.72941 128.144 0 132.442 0C136.74 0 140.31 2.72941 140.31 6.04109C140.31 9.35277 136.777 12.1186 132.442 12.1186C128.108 12.1186 124.611 9.38916 124.611 6.04109ZM125.594 32.7893C125.849 30.5694 126.031 28.6042 126.031 24.6374C126.031 20.2704 125.922 18.4872 125.594 16.0853C125.339 14.0473 124.684 13.7926 124.392 13.4651H139.072V24.3463C139.072 28.4222 139.217 30.4966 139.472 32.7529C139.727 34.8272 140.383 35.0456 140.711 35.3731H124.392C124.684 35.0456 125.339 34.8272 125.594 32.7529" fill="#CA9E67"/>
<path d="M158.304 24.965V23.9096C158.304 18.2324 158.341 15.7214 156.811 15.7214C155.281 15.7214 155.354 18.2324 155.354 23.9096V24.965C155.354 30.7513 155.317 33.1896 156.811 33.1896C158.304 33.1896 158.304 30.7513 158.304 24.965ZM141.731 24.4191C141.731 18.1233 145.956 12.992 156.738 12.992C167.52 12.992 171.964 18.1233 171.964 24.4191C171.964 30.7149 167.556 35.919 156.738 35.919C145.92 35.919 141.731 30.7513 141.731 24.4191Z" fill="#CA9E67"/>
<path d="M54.4193 127.736C48.4456 127.591 48.2999 111.36 48.4456 96.9849C48.4456 83.811 48.8827 64.4868 54.1279 64.3412C59.5553 64.4868 59.9559 83.8474 59.9559 96.9849C60.1016 111.36 60.5387 127.591 54.4193 127.736ZM78.5328 119.366C87.6027 106.01 97.5468 89.9976 102.974 80.7904L103.921 79.1892C93.9407 63.395 73.9797 55.4615 55.9856 55.4615C26.2626 55.4615 0 66.7067 0 96.9849C0 127.263 26.554 136.47 56.2406 136.47C52.8895 143.312 46.4786 149.717 32.9648 149.717C26.554 149.717 22.7294 147.643 16.4278 144.44L11.8018 152.774C21.418 157.905 32.5277 160.598 43.7103 160.962C45.1673 160.962 46.5879 160.962 48.0085 160.962L51.3232 156.668C57.0419 149.317 69.1715 133.195 78.4964 119.366" fill="#CA9E67"/>
<path d="M111.133 130.356C111.133 117.037 110.988 109.213 105.597 109.213C100.206 109.213 99.7687 117.183 99.7687 130.502C99.7687 142.038 100.206 149.28 105.597 149.28C110.988 149.28 111.133 142.148 111.133 130.356ZM111.133 160.526H56.3134C62.7243 152.265 74.5989 136.398 83.7416 122.896C93.5036 108.521 103.521 92.2176 108.365 83.9929C130.366 83.9929 139.691 83.8474 158.086 83.8474V135.16C158.086 138.654 157.794 141.711 157.94 149.171H167.119V160.562H158.086C158.741 171.006 160.016 181.56 163.513 186.036H105.05C108.402 181.56 111.17 170.752 111.17 160.562" fill="#CA9E67"/>
</g>
<defs>
<clipPath id="clip0_5_2496">
<rect width="172" height="186" fill="white"/>
</clipPath>
</defs>
</svg>
