<svg width="295" height="83" viewBox="0 0 295 83" fill="none" xmlns="http://www.w3.org/2000/svg">
<path d="M0.37575 81V1.09604H24.5006C41.4034 1.09604 66.4502 1.09604 66.4502 29.6771C66.4502 44.4286 59.5354 51.497 50.623 55.0312L68.7551 81H44.9376L30.0324 58.4118C27.7275 58.4118 25.5762 58.4118 23.5786 58.4118H21.2737V81H0.37575ZM30.3397 20.7647H21.2737V39.9724H30.3397C38.1765 39.9724 44.9376 39.9724 44.9376 30.2917C44.9376 20.7647 37.7155 20.7647 30.3397 20.7647ZM108.592 82.0756C96.7602 82.0756 86.1576 78.6951 78.0135 72.7023L86.7722 55.3385C93.3797 60.102 101.216 62.7143 107.67 62.7143C113.509 62.7143 116.275 61.024 116.275 58.4118C116.275 49.3457 80.1648 48.7311 80.1648 23.2233C80.1648 9.85474 91.0747 0.0204086 108.746 0.0204086C120.27 0.0204086 128.568 3.55463 136.405 8.77911L127.953 25.8355C122.114 22.3013 115.661 19.3818 108.592 19.3818C103.675 19.3818 101.524 21.2257 101.524 23.377C101.524 32.7503 137.634 31.06 137.634 57.9508C137.634 72.8559 126.417 82.0756 108.592 82.0756ZM148.034 1.09604H169.854L184.759 56.7215L199.511 1.09604H221.331L197.974 81H171.391L148.034 1.09604ZM232.126 81V1.09604H253.638C268.236 1.09604 294.82 1.09604 294.82 30.7527C294.82 60.563 268.544 60.563 253.946 60.563H253.024V81H232.126ZM259.017 20.7647H253.024V40.8944H259.017C265.624 40.8944 273.307 40.8944 273.307 30.599C273.307 20.7647 265.163 20.7647 259.017 20.7647Z" fill="white"/>
<path d="M0.37575 81H-19.6243V101H0.37575V81ZM0.37575 1.09604V-18.904H-19.6243V1.09604H0.37575ZM50.623 55.0312L43.2505 36.4397L19.7548 45.7569L34.2247 66.4809L50.623 55.0312ZM68.7551 81V101H107.112L85.1534 69.5503L68.7551 81ZM44.9376 81L28.2443 92.0153L34.173 101H44.9376V81ZM30.0324 58.4118L46.7256 47.3965L40.7969 38.4118H30.0324V58.4118ZM21.2737 58.4118V38.4118H1.27371V58.4118H21.2737ZM21.2737 81V101H41.2737V81H21.2737ZM21.2737 20.7647V0.764709H1.27371V20.7647H21.2737ZM21.2737 39.9724H1.27371V59.9724H21.2737V39.9724ZM20.3757 81V1.09604H-19.6242V81H20.3757ZM0.37575 21.096H24.5006V-18.904H0.37575V21.096ZM24.5006 21.096C28.8568 21.096 32.6651 21.1099 36.3042 21.4539C39.9558 21.799 42.4102 22.4009 43.9661 23.0646C45.3007 23.634 45.4842 24.0235 45.5032 24.0527C45.555 24.1324 46.4502 25.4783 46.4502 29.6771H86.4502C86.4502 19.5854 84.2146 10.2134 79.0418 2.2546C73.8363 -5.75462 66.7017 -10.724 59.6617 -13.7273C46.8285 -19.202 31.9652 -18.904 24.5006 -18.904V21.096ZM46.4502 29.6771C46.4502 33.8507 45.5151 35.0614 45.5051 35.0758C45.4601 35.1398 45.0948 35.7083 43.2505 36.4397L57.9956 73.6228C65.0637 70.8199 72.6119 66.0871 78.2524 58.0455C83.9279 49.9542 86.4502 40.255 86.4502 29.6771H46.4502ZM34.2247 66.4809L52.3568 92.4497L85.1534 69.5503L67.0213 43.5815L34.2247 66.4809ZM68.7551 61H44.9376V101H68.7551V61ZM61.6308 69.9847L46.7256 47.3965L13.3392 69.427L28.2443 92.0153L61.6308 69.9847ZM30.0324 38.4118C30.0279 38.4118 30.0234 38.4118 30.0189 38.4118C30.0144 38.4118 30.0099 38.4118 30.0054 38.4118C30.0009 38.4118 29.9964 38.4118 29.9919 38.4118C29.9874 38.4118 29.9829 38.4118 29.9784 38.4118C29.9739 38.4118 29.9694 38.4118 29.9649 38.4118C29.9604 38.4118 29.9559 38.4118 29.9514 38.4118C29.9469 38.4118 29.9425 38.4118 29.938 38.4118C29.9335 38.4118 29.929 38.4118 29.9245 38.4118C29.92 38.4118 29.9155 38.4118 29.911 38.4118C29.9065 38.4118 29.902 38.4118 29.8975 38.4118C29.893 38.4118 29.8886 38.4118 29.8841 38.4118C29.8796 38.4118 29.8751 38.4118 29.8706 38.4118C29.8661 38.4118 29.8616 38.4118 29.8571 38.4118C29.8527 38.4118 29.8482 38.4118 29.8437 38.4118C29.8392 38.4118 29.8347 38.4118 29.8302 38.4118C29.8257 38.4118 29.8213 38.4118 29.8168 38.4118C29.8123 38.4118 29.8078 38.4118 29.8033 38.4118C29.7988 38.4118 29.7944 38.4118 29.7899 38.4118C29.7854 38.4118 29.7809 38.4118 29.7764 38.4118C29.772 38.4118 29.7675 38.4118 29.763 38.4118C29.7585 38.4118 29.7541 38.4118 29.7496 38.4118C29.7451 38.4118 29.7406 38.4118 29.7361 38.4118C29.7317 38.4118 29.7272 38.4118 29.7227 38.4118C29.7182 38.4118 29.7138 38.4118 29.7093 38.4118C29.7048 38.4118 29.7003 38.4118 29.6959 38.4118C29.6914 38.4118 29.6869 38.4118 29.6825 38.4118C29.678 38.4118 29.6735 38.4118 29.669 38.4118C29.6646 38.4118 29.6601 38.4118 29.6556 38.4118C29.6512 38.4118 29.6467 38.4118 29.6422 38.4118C29.6378 38.4118 29.6333 38.4118 29.6288 38.4118C29.6244 38.4118 29.6199 38.4118 29.6154 38.4118C29.611 38.4118 29.6065 38.4118 29.602 38.4118C29.5976 38.4118 29.5931 38.4118 29.5886 38.4118C29.5842 38.4118 29.5797 38.4118 29.5753 38.4118C29.5708 38.4118 29.5663 38.4118 29.5619 38.4118C29.5574 38.4118 29.553 38.4118 29.5485 38.4118C29.544 38.4118 29.5396 38.4118 29.5351 38.4118C29.5307 38.4118 29.5262 38.4118 29.5217 38.4118C29.5173 38.4118 29.5128 38.4118 29.5084 38.4118C29.5039 38.4118 29.4995 38.4118 29.495 38.4118C29.4906 38.4118 29.4861 38.4118 29.4816 38.4118C29.4772 38.4118 29.4727 38.4118 29.4683 38.4118C29.4638 38.4118 29.4594 38.4118 29.4549 38.4118C29.4505 38.4118 29.446 38.4118 29.4416 38.4118C29.4371 38.4118 29.4327 38.4118 29.4282 38.4118C29.4238 38.4118 29.4193 38.4118 29.4149 38.4118C29.4104 38.4118 29.406 38.4118 29.4015 38.4118C29.3971 38.4118 29.3927 38.4118 29.3882 38.4118C29.3838 38.4118 29.3793 38.4118 29.3749 38.4118C29.3704 38.4118 29.366 38.4118 29.3615 38.4118C29.3571 38.4118 29.3527 38.4118 29.3482 38.4118C29.3438 38.4118 29.3393 38.4118 29.3349 38.4118C29.3304 38.4118 29.326 38.4118 29.3216 38.4118C29.3171 38.4118 29.3127 38.4118 29.3083 38.4118C29.3038 38.4118 29.2994 38.4118 29.2949 38.4118C29.2905 38.4118 29.2861 38.4118 29.2816 38.4118C29.2772 38.4118 29.2728 38.4118 29.2683 38.4118C29.2639 38.4118 29.2594 38.4118 29.255 38.4118C29.2506 38.4118 29.2461 38.4118 29.2417 38.4118C29.2373 38.4118 29.2328 38.4118 29.2284 38.4118C29.224 38.4118 29.2196 38.4118 29.2151 38.4118C29.2107 38.4118 29.2063 38.4118 29.2018 38.4118C29.1974 38.4118 29.193 38.4118 29.1886 38.4118C29.1841 38.4118 29.1797 38.4118 29.1753 38.4118C29.1708 38.4118 29.1664 38.4118 29.162 38.4118C29.1576 38.4118 29.1531 38.4118 29.1487 38.4118C29.1443 38.4118 29.1399 38.4118 29.1354 38.4118C29.131 38.4118 29.1266 38.4118 29.1222 38.4118C29.1178 38.4118 29.1133 38.4118 29.1089 38.4118C29.1045 38.4118 29.1001 38.4118 29.0956 38.4118C29.0912 38.4118 29.0868 38.4118 29.0824 38.4118C29.078 38.4118 29.0736 38.4118 29.0691 38.4118C29.0647 38.4118 29.0603 38.4118 29.0559 38.4118C29.0515 38.4118 29.0471 38.4118 29.0426 38.4118C29.0382 38.4118 29.0338 38.4118 29.0294 38.4118C29.025 38.4118 29.0206 38.4118 29.0162 38.4118C29.0117 38.4118 29.0073 38.4118 29.0029 38.4118C28.9985 38.4118 28.9941 38.4118 28.9897 38.4118C28.9853 38.4118 28.9809 38.4118 28.9765 38.4118C28.9721 38.4118 28.9676 38.4118 28.9632 38.4118C28.9588 38.4118 28.9544 38.4118 28.95 38.4118C28.9456 38.4118 28.9412 38.4118 28.9368 38.4118C28.9324 38.4118 28.928 38.4118 28.9236 38.4118C28.9192 38.4118 28.9148 38.4118 28.9104 38.4118C28.906 38.4118 28.9016 38.4118 28.8972 38.4118C28.8928 38.4118 28.8884 38.4118 28.884 38.4118C28.8796 38.4118 28.8752 38.4118 28.8708 38.4118C28.8664 38.4118 28.862 38.4118 28.8576 38.4118C28.8532 38.4118 28.8488 38.4118 28.8444 38.4118C28.84 38.4118 28.8356 38.4118 28.8312 38.4118C28.8268 38.4118 28.8224 38.4118 28.818 38.4118C28.8136 38.4118 28.8092 38.4118 28.8048 38.4118C28.8004 38.4118 28.796 38.4118 28.7916 38.4118C28.7872 38.4118 28.7828 38.4118 28.7784 38.4118C28.7741 38.4118 28.7697 38.4118 28.7653 38.4118C28.7609 38.4118 28.7565 38.4118 28.7521 38.4118C28.7477 38.4118 28.7433 38.4118 28.7389 38.4118C28.7345 38.4118 28.7302 38.4118 28.7258 38.4118C28.7214 38.4118 28.717 38.4118 28.7126 38.4118C28.7082 38.4118 28.7038 38.4118 28.6995 38.4118C28.6951 38.4118 28.6907 38.4118 28.6863 38.4118C28.6819 38.4118 28.6775 38.4118 28.6732 38.4118C28.6688 38.4118 28.6644 38.4118 28.66 38.4118C28.6556 38.4118 28.6512 38.4118 28.6469 38.4118C28.6425 38.4118 28.6381 38.4118 28.6337 38.4118C28.6294 38.4118 28.625 38.4118 28.6206 38.4118C28.6162 38.4118 28.6118 38.4118 28.6075 38.4118C28.6031 38.4118 28.5987 38.4118 28.5943 38.4118C28.59 38.4118 28.5856 38.4118 28.5812 38.4118C28.5768 38.4118 28.5725 38.4118 28.5681 38.4118C28.5637 38.4118 28.5594 38.4118 28.555 38.4118C28.5506 38.4118 28.5462 38.4118 28.5419 38.4118C28.5375 38.4118 28.5331 38.4118 28.5288 38.4118C28.5244 38.4118 28.52 38.4118 28.5157 38.4118C28.5113 38.4118 28.5069 38.4118 28.5025 38.4118C28.4982 38.4118 28.4938 38.4118 28.4894 38.4118C28.4851 38.4118 28.4807 38.4118 28.4764 38.4118C28.472 38.4118 28.4676 38.4118 28.4633 38.4118C28.4589 38.4118 28.4545 38.4118 28.4502 38.4118C28.4458 38.4118 28.4414 38.4118 28.4371 38.4118C28.4327 38.4118 28.4284 38.4118 28.424 38.4118C28.4196 38.4118 28.4153 38.4118 28.4109 38.4118C28.4066 38.4118 28.4022 38.4118 28.3979 38.4118C28.3935 38.4118 28.3891 38.4118 28.3848 38.4118C28.3804 38.4118 28.3761 38.4118 28.3717 38.4118C28.3674 38.4118 28.363 38.4118 28.3587 38.4118C28.3543 38.4118 28.3499 38.4118 28.3456 38.4118C28.3412 38.4118 28.3369 38.4118 28.3325 38.4118C28.3282 38.4118 28.3238 38.4118 28.3195 38.4118C28.3151 38.4118 28.3108 38.4118 28.3064 38.4118C28.3021 38.4118 28.2977 38.4118 28.2934 38.4118C28.289 38.4118 28.2847 38.4118 28.2803 38.4118C28.276 38.4118 28.2716 38.4118 28.2673 38.4118C28.263 38.4118 28.2586 38.4118 28.2543 38.4118C28.2499 38.4118 28.2456 38.4118 28.2412 38.4118C28.2369 38.4118 28.2325 38.4118 28.2282 38.4118C28.2239 38.4118 28.2195 38.4118 28.2152 38.4118C28.2108 38.4118 28.2065 38.4118 28.2022 38.4118C28.1978 38.4118 28.1935 38.4118 28.1891 38.4118C28.1848 38.4118 28.1805 38.4118 28.1761 38.4118C28.1718 38.4118 28.1674 38.4118 28.1631 38.4118C28.1588 38.4118 28.1544 38.4118 28.1501 38.4118C28.1458 38.4118 28.1414 38.4118 28.1371 38.4118C28.1328 38.4118 28.1284 38.4118 28.1241 38.4118C28.1198 38.4118 28.1154 38.4118 28.1111 38.4118C28.1068 38.4118 28.1024 38.4118 28.0981 38.4118C28.0938 38.4118 28.0894 38.4118 28.0851 38.4118C28.0808 38.4118 28.0765 38.4118 28.0721 38.4118C28.0678 38.4118 28.0635 38.4118 28.0591 38.4118C28.0548 38.4118 28.0505 38.4118 28.0462 38.4118C28.0418 38.4118 28.0375 38.4118 28.0332 38.4118C28.0289 38.4118 28.0245 38.4118 28.0202 38.4118C28.0159 38.4118 28.0116 38.4118 28.0073 38.4118C28.0029 38.4118 27.9986 38.4118 27.9943 38.4118C27.99 38.4118 27.9856 38.4118 27.9813 38.4118C27.977 38.4118 27.9727 38.4118 27.9684 38.4118C27.964 38.4118 27.9597 38.4118 27.9554 38.4118C27.9511 38.4118 27.9468 38.4118 27.9425 38.4118C27.9381 38.4118 27.9338 38.4118 27.9295 38.4118C27.9252 38.4118 27.9209 38.4118 27.9166 38.4118C27.9123 38.4118 27.9079 38.4118 27.9036 38.4118C27.8993 38.4118 27.895 38.4118 27.8907 38.4118C27.8864 38.4118 27.8821 38.4118 27.8778 38.4118C27.8734 38.4118 27.8691 38.4118 27.8648 38.4118C27.8605 38.4118 27.8562 38.4118 27.8519 38.4118C27.8476 38.4118 27.8433 38.4118 27.839 38.4118C27.8347 38.4118 27.8304 38.4118 27.8261 38.4118C27.8217 38.4118 27.8174 38.4118 27.8131 38.4118C27.8088 38.4118 27.8045 38.4118 27.8002 38.4118C27.7959 38.4118 27.7916 38.4118 27.7873 38.4118C27.783 38.4118 27.7787 38.4118 27.7744 38.4118C27.7701 38.4118 27.7658 38.4118 27.7615 38.4118C27.7572 38.4118 27.7529 38.4118 27.7486 38.4118C27.7443 38.4118 27.74 38.4118 27.7357 38.4118C27.7314 38.4118 27.7271 38.4118 27.7228 38.4118C27.7185 38.4118 27.7142 38.4118 27.7099 38.4118C27.7056 38.4118 27.7013 38.4118 27.697 38.4118C27.6928 38.4118 27.6885 38.4118 27.6842 38.4118C27.6799 38.4118 27.6756 38.4118 27.6713 38.4118C27.667 38.4118 27.6627 38.4118 27.6584 38.4118C27.6541 38.4118 27.6498 38.4118 27.6455 38.4118C27.6413 38.4118 27.637 38.4118 27.6327 38.4118C27.6284 38.4118 27.6241 38.4118 27.6198 38.4118C27.6155 38.4118 27.6112 38.4118 27.607 38.4118C27.6027 38.4118 27.5984 38.4118 27.5941 38.4118C27.5898 38.4118 27.5855 38.4118 27.5812 38.4118C27.577 38.4118 27.5727 38.4118 27.5684 38.4118C27.5641 38.4118 27.5598 38.4118 27.5555 38.4118C27.5513 38.4118 27.547 38.4118 27.5427 38.4118C27.5384 38.4118 27.5341 38.4118 27.5299 38.4118C27.5256 38.4118 27.5213 38.4118 27.517 38.4118C27.5128 38.4118 27.5085 38.4118 27.5042 38.4118C27.4999 38.4118 27.4956 38.4118 27.4914 38.4118C27.4871 38.4118 27.4828 38.4118 27.4785 38.4118C27.4743 38.4118 27.47 38.4118 27.4657 38.4118C27.4615 38.4118 27.4572 38.4118 27.4529 38.4118C27.4486 38.4118 27.4444 38.4118 27.4401 38.4118C27.4358 38.4118 27.4316 38.4118 27.4273 38.4118C27.423 38.4118 27.4187 38.4118 27.4145 38.4118C27.4102 38.4118 27.4059 38.4118 27.4017 38.4118C27.3974 38.4118 27.3931 38.4118 27.3889 38.4118C27.3846 38.4118 27.3803 38.4118 27.3761 38.4118C27.3718 38.4118 27.3675 38.4118 27.3633 38.4118C27.359 38.4118 27.3548 38.4118 27.3505 38.4118C27.3462 38.4118 27.342 38.4118 27.3377 38.4118C27.3334 38.4118 27.3292 38.4118 27.3249 38.4118C27.3207 38.4118 27.3164 38.4118 27.3121 38.4118C27.3079 38.4118 27.3036 38.4118 27.2994 38.4118C27.2951 38.4118 27.2909 38.4118 27.2866 38.4118C27.2823 38.4118 27.2781 38.4118 27.2738 38.4118C27.2696 38.4118 27.2653 38.4118 27.2611 38.4118C27.2568 38.4118 27.2526 38.4118 27.2483 38.4118C27.244 38.4118 27.2398 38.4118 27.2355 38.4118C27.2313 38.4118 27.227 38.4118 27.2228 38.4118C27.2185 38.4118 27.2143 38.4118 27.21 38.4118C27.2058 38.4118 27.2015 38.4118 27.1973 38.4118C27.193 38.4118 27.1888 38.4118 27.1845 38.4118C27.1803 38.4118 27.1761 38.4118 27.1718 38.4118C27.1676 38.4118 27.1633 38.4118 27.1591 38.4118C27.1548 38.4118 27.1506 38.4118 27.1463 38.4118C27.1421 38.4118 27.1378 38.4118 27.1336 38.4118C27.1294 38.4118 27.1251 38.4118 27.1209 38.4118C27.1166 38.4118 27.1124 38.4118 27.1082 38.4118C27.1039 38.4118 27.0997 38.4118 27.0954 38.4118C27.0912 38.4118 27.087 38.4118 27.0827 38.4118C27.0785 38.4118 27.0742 38.4118 27.07 38.4118C27.0658 38.4118 27.0615 38.4118 27.0573 38.4118C27.0531 38.4118 27.0488 38.4118 27.0446 38.4118C27.0404 38.4118 27.0361 38.4118 27.0319 38.4118C27.0277 38.4118 27.0234 38.4118 27.0192 38.4118C27.015 38.4118 27.0107 38.4118 27.0065 38.4118C27.0023 38.4118 26.998 38.4118 26.9938 38.4118C26.9896 38.4118 26.9854 38.4118 26.9811 38.4118C26.9769 38.4118 26.9727 38.4118 26.9684 38.4118C26.9642 38.4118 26.96 38.4118 26.9558 38.4118C26.9515 38.4118 26.9473 38.4118 26.9431 38.4118C26.9389 38.4118 26.9346 38.4118 26.9304 38.4118C26.9262 38.4118 26.922 38.4118 26.9177 38.4118C26.9135 38.4118 26.9093 38.4118 26.9051 38.4118C26.9008 38.4118 26.8966 38.4118 26.8924 38.4118C26.8882 38.4118 26.884 38.4118 26.8797 38.4118C26.8755 38.4118 26.8713 38.4118 26.8671 38.4118C26.8629 38.4118 26.8587 38.4118 26.8544 38.4118C26.8502 38.4118 26.846 38.4118 26.8418 38.4118C26.8376 38.4118 26.8334 38.4118 26.8291 38.4118C26.8249 38.4118 26.8207 38.4118 26.8165 38.4118C26.8123 38.4118 26.8081 38.4118 26.8039 38.4118C26.7997 38.4118 26.7954 38.4118 26.7912 38.4118C26.787 38.4118 26.7828 38.4118 26.7786 38.4118C26.7744 38.4118 26.7702 38.4118 26.766 38.4118C26.7618 38.4118 26.7576 38.4118 26.7533 38.4118C26.7491 38.4118 26.7449 38.4118 26.7407 38.4118C26.7365 38.4118 26.7323 38.4118 26.7281 38.4118C26.7239 38.4118 26.7197 38.4118 26.7155 38.4118C26.7113 38.4118 26.7071 38.4118 26.7029 38.4118C26.6987 38.4118 26.6945 38.4118 26.6903 38.4118C26.6861 38.4118 26.6819 38.4118 26.6777 38.4118C26.6735 38.4118 26.6693 38.4118 26.6651 38.4118C26.6609 38.4118 26.6567 38.4118 26.6525 38.4118C26.6483 38.4118 26.6441 38.4118 26.6399 38.4118C26.6357 38.4118 26.6315 38.4118 26.6273 38.4118C26.6231 38.4118 26.6189 38.4118 26.6147 38.4118C26.6105 38.4118 26.6063 38.4118 26.6021 38.4118C26.5979 38.4118 26.5937 38.4118 26.5895 38.4118C26.5854 38.4118 26.5812 38.4118 26.577 38.4118C26.5728 38.4118 26.5686 38.4118 26.5644 38.4118C26.5602 38.4118 26.556 38.4118 26.5518 38.4118C26.5476 38.4118 26.5435 38.4118 26.5393 38.4118C26.5351 38.4118 26.5309 38.4118 26.5267 38.4118C26.5225 38.4118 26.5183 38.4118 26.5141 38.4118C26.51 38.4118 26.5058 38.4118 26.5016 38.4118C26.4974 38.4118 26.4932 38.4118 26.489 38.4118C26.4849 38.4118 26.4807 38.4118 26.4765 38.4118C26.4723 38.4118 26.4681 38.4118 26.464 38.4118C26.4598 38.4118 26.4556 38.4118 26.4514 38.4118C26.4472 38.4118 26.4431 38.4118 26.4389 38.4118C26.4347 38.4118 26.4305 38.4118 26.4263 38.4118C26.4222 38.4118 26.418 38.4118 26.4138 38.4118C26.4096 38.4118 26.4055 38.4118 26.4013 38.4118C26.3971 38.4118 26.3929 38.4118 26.3888 38.4118C26.3846 38.4118 26.3804 38.4118 26.3762 38.4118C26.3721 38.4118 26.3679 38.4118 26.3637 38.4118C26.3596 38.4118 26.3554 38.4118 26.3512 38.4118C26.347 38.4118 26.3429 38.4118 26.3387 38.4118C26.3345 38.4118 26.3304 38.4118 26.3262 38.4118C26.322 38.4118 26.3179 38.4118 26.3137 38.4118C26.3095 38.4118 26.3054 38.4118 26.3012 38.4118C26.297 38.4118 26.2929 38.4118 26.2887 38.4118C26.2845 38.4118 26.2804 38.4118 26.2762 38.4118C26.2721 38.4118 26.2679 38.4118 26.2637 38.4118C26.2596 38.4118 26.2554 38.4118 26.2513 38.4118C26.2471 38.4118 26.2429 38.4118 26.2388 38.4118C26.2346 38.4118 26.2305 38.4118 26.2263 38.4118C26.2221 38.4118 26.218 38.4118 26.2138 38.4118C26.2097 38.4118 26.2055 38.4118 26.2014 38.4118C26.1972 38.4118 26.193 38.4118 26.1889 38.4118C26.1847 38.4118 26.1806 38.4118 26.1764 38.4118C26.1723 38.4118 26.1681 38.4118 26.164 38.4118C26.1598 38.4118 26.1557 38.4118 26.1515 38.4118C26.1474 38.4118 26.1432 38.4118 26.1391 38.4118C26.1349 38.4118 26.1308 38.4118 26.1266 38.4118C26.1225 38.4118 26.1183 38.4118 26.1142 38.4118C26.11 38.4118 26.1059 38.4118 26.1017 38.4118C26.0976 38.4118 26.0934 38.4118 26.0893 38.4118C26.0851 38.4118 26.081 38.4118 26.0769 38.4118C26.0727 38.4118 26.0686 38.4118 26.0644 38.4118C26.0603 38.4118 26.0561 38.4118 26.052 38.4118C26.0479 38.4118 26.0437 38.4118 26.0396 38.4118C26.0354 38.4118 26.0313 38.4118 26.0271 38.4118C26.023 38.4118 26.0189 38.4118 26.0147 38.4118C26.0106 38.4118 26.0065 38.4118 26.0023 38.4118C25.9982 38.4118 25.994 38.4118 25.9899 38.4118C25.9858 38.4118 25.9816 38.4118 25.9775 38.4118C25.9734 38.4118 25.9692 38.4118 25.9651 38.4118C25.961 38.4118 25.9568 38.4118 25.9527 38.4118C25.9486 38.4118 25.9444 38.4118 25.9403 38.4118C25.9362 38.4118 25.932 38.4118 25.9279 38.4118C25.9238 38.4118 25.9197 38.4118 25.9155 38.4118C25.9114 38.4118 25.9073 38.4118 25.9031 38.4118C25.899 38.4118 25.8949 38.4118 25.8908 38.4118C25.8866 38.4118 25.8825 38.4118 25.8784 38.4118C25.8743 38.4118 25.8701 38.4118 25.866 38.4118C25.8619 38.4118 25.8578 38.4118 25.8536 38.4118C25.8495 38.4118 25.8454 38.4118 25.8413 38.4118C25.8371 38.4118 25.833 38.4118 25.8289 38.4118C25.8248 38.4118 25.8207 38.4118 25.8165 38.4118C25.8124 38.4118 25.8083 38.4118 25.8042 38.4118C25.8001 38.4118 25.7959 38.4118 25.7918 38.4118C25.7877 38.4118 25.7836 38.4118 25.7795 38.4118C25.7754 38.4118 25.7712 38.4118 25.7671 38.4118C25.763 38.4118 25.7589 38.4118 25.7548 38.4118C25.7507 38.4118 25.7466 38.4118 25.7425 38.4118C25.7383 38.4118 25.7342 38.4118 25.7301 38.4118C25.726 38.4118 25.7219 38.4118 25.7178 38.4118C25.7137 38.4118 25.7096 38.4118 25.7055 38.4118C25.7013 38.4118 25.6972 38.4118 25.6931 38.4118C25.689 38.4118 25.6849 38.4118 25.6808 38.4118C25.6767 38.4118 25.6726 38.4118 25.6685 38.4118C25.6644 38.4118 25.6603 38.4118 25.6562 38.4118C25.6521 38.4118 25.648 38.4118 25.6439 38.4118C25.6398 38.4118 25.6357 38.4118 25.6315 38.4118C25.6274 38.4118 25.6233 38.4118 25.6192 38.4118C25.6151 38.4118 25.611 38.4118 25.6069 38.4118C25.6028 38.4118 25.5987 38.4118 25.5947 38.4118C25.5905 38.4118 25.5865 38.4118 25.5824 38.4118C25.5783 38.4118 25.5742 38.4118 25.5701 38.4118C25.566 38.4118 25.5619 38.4118 25.5578 38.4118C25.5537 38.4118 25.5496 38.4118 25.5455 38.4118C25.5414 38.4118 25.5373 38.4118 25.5332 38.4118C25.5291 38.4118 25.525 38.4118 25.5209 38.4118C25.5168 38.4118 25.5128 38.4118 25.5087 38.4118C25.5046 38.4118 25.5005 38.4118 25.4964 38.4118C25.4923 38.4118 25.4882 38.4118 25.4841 38.4118C25.48 38.4118 25.476 38.4118 25.4719 38.4118C25.4678 38.4118 25.4637 38.4118 25.4596 38.4118C25.4555 38.4118 25.4514 38.4118 25.4474 38.4118C25.4433 38.4118 25.4392 38.4118 25.4351 38.4118C25.431 38.4118 25.4269 38.4118 25.4229 38.4118C25.4188 38.4118 25.4147 38.4118 25.4106 38.4118C25.4065 38.4118 25.4025 38.4118 25.3984 38.4118C25.3943 38.4118 25.3902 38.4118 25.3861 38.4118C25.3821 38.4118 25.378 38.4118 25.3739 38.4118C25.3698 38.4118 25.3657 38.4118 25.3617 38.4118C25.3576 38.4118 25.3535 38.4118 25.3494 38.4118C25.3454 38.4118 25.3413 38.4118 25.3372 38.4118C25.3331 38.4118 25.3291 38.4118 25.325 38.4118C25.3209 38.4118 25.3169 38.4118 25.3128 38.4118C25.3087 38.4118 25.3046 38.4118 25.3006 38.4118C25.2965 38.4118 25.2924 38.4118 25.2884 38.4118C25.2843 38.4118 25.2802 38.4118 25.2762 38.4118C25.2721 38.4118 25.268 38.4118 25.264 38.4118C25.2599 38.4118 25.2558 38.4118 25.2518 38.4118C25.2477 38.4118 25.2436 38.4118 25.2396 38.4118C25.2355 38.4118 25.2314 38.4118 25.2274 38.4118C25.2233 38.4118 25.2192 38.4118 25.2152 38.4118C25.2111 38.4118 25.2071 38.4118 25.203 38.4118C25.1989 38.4118 25.1949 38.4118 25.1908 38.4118C25.1868 38.4118 25.1827 38.4118 25.1786 38.4118C25.1746 38.4118 25.1705 38.4118 25.1665 38.4118C25.1624 38.4118 25.1583 38.4118 25.1543 38.4118C25.1502 38.4118 25.1462 38.4118 25.1421 38.4118C25.1381 38.4118 25.134 38.4118 25.13 38.4118C25.1259 38.4118 25.1218 38.4118 25.1178 38.4118C25.1137 38.4118 25.1097 38.4118 25.1056 38.4118C25.1016 38.4118 25.0975 38.4118 25.0935 38.4118C25.0894 38.4118 25.0854 38.4118 25.0813 38.4118C25.0773 38.4118 25.0732 38.4118 25.0692 38.4118C25.0651 38.4118 25.0611 38.4118 25.057 38.4118C25.053 38.4118 25.049 38.4118 25.0449 38.4118C25.0409 38.4118 25.0368 38.4118 25.0328 38.4118C25.0287 38.4118 25.0247 38.4118 25.0206 38.4118C25.0166 38.4118 25.0126 38.4118 25.0085 38.4118C25.0045 38.4118 25.0004 38.4118 24.9964 38.4118C24.9923 38.4118 24.9883 38.4118 24.9843 38.4118C24.9802 38.4118 24.9762 38.4118 24.9722 38.4118C24.9681 38.4118 24.9641 38.4118 24.96 38.4118C24.956 38.4118 24.952 38.4118 24.9479 38.4118C24.9439 38.4118 24.9399 38.4118 24.9358 38.4118C24.9318 38.4118 24.9277 38.4118 24.9237 38.4118C24.9197 38.4118 24.9156 38.4118 24.9116 38.4118C24.9076 38.4118 24.9035 38.4118 24.8995 38.4118C24.8955 38.4118 24.8915 38.4118 24.8874 38.4118C24.8834 38.4118 24.8794 38.4118 24.8753 38.4118C24.8713 38.4118 24.8673 38.4118 24.8632 38.4118C24.8592 38.4118 24.8552 38.4118 24.8512 38.4118C24.8471 38.4118 24.8431 38.4118 24.8391 38.4118C24.8351 38.4118 24.831 38.4118 24.827 38.4118C24.823 38.4118 24.819 38.4118 24.8149 38.4118C24.8109 38.4118 24.8069 38.4118 24.8029 38.4118C24.7988 38.4118 24.7948 38.4118 24.7908 38.4118C24.7868 38.4118 24.7828 38.4118 24.7787 38.4118C24.7747 38.4118 24.7707 38.4118 24.7667 38.4118C24.7627 38.4118 24.7586 38.4118 24.7546 38.4118C24.7506 38.4118 24.7466 38.4118 24.7426 38.4118C24.7386 38.4118 24.7345 38.4118 24.7305 38.4118C24.7265 38.4118 24.7225 38.4118 24.7185 38.4118C24.7145 38.4118 24.7105 38.4118 24.7064 38.4118C24.7024 38.4118 24.6984 38.4118 24.6944 38.4118C24.6904 38.4118 24.6864 38.4118 24.6824 38.4118C24.6784 38.4118 24.6744 38.4118 24.6703 38.4118C24.6663 38.4118 24.6623 38.4118 24.6583 38.4118C24.6543 38.4118 24.6503 38.4118 24.6463 38.4118C24.6423 38.4118 24.6383 38.4118 24.6343 38.4118C24.6303 38.4118 24.6263 38.4118 24.6223 38.4118C24.6183 38.4118 24.6143 38.4118 24.6102 38.4118C24.6062 38.4118 24.6022 38.4118 24.5982 38.4118C24.5942 38.4118 24.5902 38.4118 24.5862 38.4118C24.5822 38.4118 24.5782 38.4118 24.5742 38.4118C24.5702 38.4118 24.5662 38.4118 24.5622 38.4118C24.5582 38.4118 24.5542 38.4118 24.5502 38.4118C24.5462 38.4118 24.5422 38.4118 24.5382 38.4118C24.5343 38.4118 24.5303 38.4118 24.5263 38.4118C24.5223 38.4118 24.5183 38.4118 24.5143 38.4118C24.5103 38.4118 24.5063 38.4118 24.5023 38.4118C24.4983 38.4118 24.4943 38.4118 24.4903 38.4118C24.4863 38.4118 24.4823 38.4118 24.4783 38.4118C24.4744 38.4118 24.4704 38.4118 24.4664 38.4118C24.4624 38.4118 24.4584 38.4118 24.4544 38.4118C24.4504 38.4118 24.4464 38.4118 24.4424 38.4118C24.4385 38.4118 24.4345 38.4118 24.4305 38.4118C24.4265 38.4118 24.4225 38.4118 24.4185 38.4118C24.4145 38.4118 24.4106 38.4118 24.4066 38.4118C24.4026 38.4118 24.3986 38.4118 24.3946 38.4118C24.3906 38.4118 24.3867 38.4118 24.3827 38.4118C24.3787 38.4118 24.3747 38.4118 24.3707 38.4118C24.3668 38.4118 24.3628 38.4118 24.3588 38.4118C24.3548 38.4118 24.3508 38.4118 24.3469 38.4118C24.3429 38.4118 24.3389 38.4118 24.3349 38.4118C24.331 38.4118 24.327 38.4118 24.323 38.4118C24.319 38.4118 24.3151 38.4118 24.3111 38.4118C24.3071 38.4118 24.3031 38.4118 24.2992 38.4118C24.2952 38.4118 24.2912 38.4118 24.2872 38.4118C24.2833 38.4118 24.2793 38.4118 24.2753 38.4118C24.2714 38.4118 24.2674 38.4118 24.2634 38.4118C24.2594 38.4118 24.2555 38.4118 24.2515 38.4118C24.2475 38.4118 24.2436 38.4118 24.2396 38.4118C24.2356 38.4118 24.2317 38.4118 24.2277 38.4118C24.2237 38.4118 24.2198 38.4118 24.2158 38.4118C24.2118 38.4118 24.2079 38.4118 24.2039 38.4118C24.2 38.4118 24.196 38.4118 24.192 38.4118C24.1881 38.4118 24.1841 38.4118 24.1801 38.4118C24.1762 38.4118 24.1722 38.4118 24.1683 38.4118C24.1643 38.4118 24.1603 38.4118 24.1564 38.4118C24.1524 38.4118 24.1485 38.4118 24.1445 38.4118C24.1405 38.4118 24.1366 38.4118 24.1326 38.4118C24.1287 38.4118 24.1247 38.4118 24.1208 38.4118C24.1168 38.4118 24.1129 38.4118 24.1089 38.4118C24.1049 38.4118 24.101 38.4118 24.097 38.4118C24.0931 38.4118 24.0891 38.4118 24.0852 38.4118C24.0812 38.4118 24.0773 38.4118 24.0733 38.4118C24.0694 38.4118 24.0654 38.4118 24.0615 38.4118C24.0575 38.4118 24.0536 38.4118 24.0496 38.4118C24.0457 38.4118 24.0417 38.4118 24.0378 38.4118C24.0338 38.4118 24.0299 38.4118 24.0259 38.4118C24.022 38.4118 24.0181 38.4118 24.0141 38.4118C24.0102 38.4118 24.0062 38.4118 24.0023 38.4118C23.9983 38.4118 23.9944 38.4118 23.9904 38.4118C23.9865 38.4118 23.9826 38.4118 23.9786 38.4118C23.9747 38.4118 23.9707 38.4118 23.9668 38.4118C23.9629 38.4118 23.9589 38.4118 23.955 38.4118C23.951 38.4118 23.9471 38.4118 23.9432 38.4118C23.9392 38.4118 23.9353 38.4118 23.9314 38.4118C23.9274 38.4118 23.9235 38.4118 23.9195 38.4118C23.9156 38.4118 23.9117 38.4118 23.9077 38.4118C23.9038 38.4118 23.8999 38.4118 23.8959 38.4118C23.892 38.4118 23.8881 38.4118 23.8841 38.4118C23.8802 38.4118 23.8763 38.4118 23.8723 38.4118C23.8684 38.4118 23.8645 38.4118 23.8606 38.4118C23.8566 38.4118 23.8527 38.4118 23.8488 38.4118C23.8448 38.4118 23.8409 38.4118 23.837 38.4118C23.8331 38.4118 23.8291 38.4118 23.8252 38.4118C23.8213 38.4118 23.8174 38.4118 23.8134 38.4118C23.8095 38.4118 23.8056 38.4118 23.8017 38.4118C23.7977 38.4118 23.7938 38.4118 23.7899 38.4118C23.786 38.4118 23.782 38.4118 23.7781 38.4118C23.7742 38.4118 23.7703 38.4118 23.7664 38.4118C23.7624 38.4118 23.7585 38.4118 23.7546 38.4118C23.7507 38.4118 23.7468 38.4118 23.7428 38.4118C23.7389 38.4118 23.735 38.4118 23.7311 38.4118C23.7272 38.4118 23.7233 38.4118 23.7193 38.4118C23.7154 38.4118 23.7115 38.4118 23.7076 38.4118C23.7037 38.4118 23.6998 38.4118 23.6959 38.4118C23.6919 38.4118 23.688 38.4118 23.6841 38.4118C23.6802 38.4118 23.6763 38.4118 23.6724 38.4118C23.6685 38.4118 23.6646 38.4118 23.6607 38.4118C23.6567 38.4118 23.6528 38.4118 23.6489 38.4118C23.645 38.4118 23.6411 38.4118 23.6372 38.4118C23.6333 38.4118 23.6294 38.4118 23.6255 38.4118C23.6216 38.4118 23.6177 38.4118 23.6138 38.4118C23.6099 38.4118 23.606 38.4118 23.602 38.4118C23.5981 38.4118 23.5942 38.4118 23.5903 38.4118C23.5864 38.4118 23.5825 38.4118 23.5786 38.4118V78.4118C23.5825 78.4118 23.5864 78.4118 23.5903 78.4118C23.5942 78.4118 23.5981 78.4118 23.602 78.4118C23.606 78.4118 23.6099 78.4118 23.6138 78.4118C23.6177 78.4118 23.6216 78.4118 23.6255 78.4118C23.6294 78.4118 23.6333 78.4118 23.6372 78.4118C23.6411 78.4118 23.645 78.4118 23.6489 78.4118C23.6528 78.4118 23.6567 78.4118 23.6607 78.4118C23.6646 78.4118 23.6685 78.4118 23.6724 78.4118C23.6763 78.4118 23.6802 78.4118 23.6841 78.4118C23.688 78.4118 23.6919 78.4118 23.6959 78.4118C23.6998 78.4118 23.7037 78.4118 23.7076 78.4118C23.7115 78.4118 23.7154 78.4118 23.7193 78.4118C23.7233 78.4118 23.7272 78.4118 23.7311 78.4118C23.735 78.4118 23.7389 78.4118 23.7428 78.4118C23.7468 78.4118 23.7507 78.4118 23.7546 78.4118C23.7585 78.4118 23.7624 78.4118 23.7664 78.4118C23.7703 78.4118 23.7742 78.4118 23.7781 78.4118C23.782 78.4118 23.786 78.4118 23.7899 78.4118C23.7938 78.4118 23.7977 78.4118 23.8017 78.4118C23.8056 78.4118 23.8095 78.4118 23.8134 78.4118C23.8174 78.4118 23.8213 78.4118 23.8252 78.4118C23.8291 78.4118 23.8331 78.4118 23.837 78.4118C23.8409 78.4118 23.8448 78.4118 23.8488 78.4118C23.8527 78.4118 23.8566 78.4118 23.8606 78.4118C23.8645 78.4118 23.8684 78.4118 23.8723 78.4118C23.8763 78.4118 23.8802 78.4118 23.8841 78.4118C23.8881 78.4118 23.892 78.4118 23.8959 78.4118C23.8999 78.4118 23.9038 78.4118 23.9077 78.4118C23.9117 78.4118 23.9156 78.4118 23.9195 78.4118C23.9235 78.4118 23.9274 78.4118 23.9314 78.4118C23.9353 78.4118 23.9392 78.4118 23.9432 78.4118C23.9471 78.4118 23.951 78.4118 23.955 78.4118C23.9589 78.4118 23.9629 78.4118 23.9668 78.4118C23.9707 78.4118 23.9747 78.4118 23.9786 78.4118C23.9826 78.4118 23.9865 78.4118 23.9904 78.4118C23.9944 78.4118 23.9983 78.4118 24.0023 78.4118C24.0062 78.4118 24.0102 78.4118 24.0141 78.4118C24.0181 78.4118 24.022 78.4118 24.0259 78.4118C24.0299 78.4118 24.0338 78.4118 24.0378 78.4118C24.0417 78.4118 24.0457 78.4118 24.0496 78.4118C24.0536 78.4118 24.0575 78.4118 24.0615 78.4118C24.0654 78.4118 24.0694 78.4118 24.0733 78.4118C24.0773 78.4118 24.0812 78.4118 24.0852 78.4118C24.0891 78.4118 24.0931 78.4118 24.097 78.4118C24.101 78.4118 24.1049 78.4118 24.1089 78.4118C24.1129 78.4118 24.1168 78.4118 24.1208 78.4118C24.1247 78.4118 24.1287 78.4118 24.1326 78.4118C24.1366 78.4118 24.1405 78.4118 24.1445 78.4118C24.1485 78.4118 24.1524 78.4118 24.1564 78.4118C24.1603 78.4118 24.1643 78.4118 24.1683 78.4118C24.1722 78.4118 24.1762 78.4118 24.1801 78.4118C24.1841 78.4118 24.1881 78.4118 24.192 78.4118C24.196 78.4118 24.2 78.4118 24.2039 78.4118C24.2079 78.4118 24.2118 78.4118 24.2158 78.4118C24.2198 78.4118 24.2237 78.4118 24.2277 78.4118C24.2317 78.4118 24.2356 78.4118 24.2396 78.4118C24.2436 78.4118 24.2475 78.4118 24.2515 78.4118C24.2555 78.4118 24.2594 78.4118 24.2634 78.4118C24.2674 78.4118 24.2714 78.4118 24.2753 78.4118C24.2793 78.4118 24.2833 78.4118 24.2872 78.4118C24.2912 78.4118 24.2952 78.4118 24.2992 78.4118C24.3031 78.4118 24.3071 78.4118 24.3111 78.4118C24.3151 78.4118 24.319 78.4118 24.323 78.4118C24.327 78.4118 24.331 78.4118 24.3349 78.4118C24.3389 78.4118 24.3429 78.4118 24.3469 78.4118C24.3508 78.4118 24.3548 78.4118 24.3588 78.4118C24.3628 78.4118 24.3668 78.4118 24.3707 78.4118C24.3747 78.4118 24.3787 78.4118 24.3827 78.4118C24.3867 78.4118 24.3906 78.4118 24.3946 78.4118C24.3986 78.4118 24.4026 78.4118 24.4066 78.4118C24.4106 78.4118 24.4145 78.4118 24.4185 78.4118C24.4225 78.4118 24.4265 78.4118 24.4305 78.4118C24.4345 78.4118 24.4385 78.4118 24.4424 78.4118C24.4464 78.4118 24.4504 78.4118 24.4544 78.4118C24.4584 78.4118 24.4624 78.4118 24.4664 78.4118C24.4704 78.4118 24.4744 78.4118 24.4783 78.4118C24.4823 78.4118 24.4863 78.4118 24.4903 78.4118C24.4943 78.4118 24.4983 78.4118 24.5023 78.4118C24.5063 78.4118 24.5103 78.4118 24.5143 78.4118C24.5183 78.4118 24.5223 78.4118 24.5263 78.4118C24.5303 78.4118 24.5343 78.4118 24.5382 78.4118C24.5422 78.4118 24.5462 78.4118 24.5502 78.4118C24.5542 78.4118 24.5582 78.4118 24.5622 78.4118C24.5662 78.4118 24.5702 78.4118 24.5742 78.4118C24.5782 78.4118 24.5822 78.4118 24.5862 78.4118C24.5902 78.4118 24.5942 78.4118 24.5982 78.4118C24.6022 78.4118 24.6062 78.4118 24.6102 78.4118C24.6143 78.4118 24.6183 78.4118 24.6223 78.4118C24.6263 78.4118 24.6303 78.4118 24.6343 78.4118C24.6383 78.4118 24.6423 78.4118 24.6463 78.4118C24.6503 78.4118 24.6543 78.4118 24.6583 78.4118C24.6623 78.4118 24.6663 78.4118 24.6703 78.4118C24.6744 78.4118 24.6784 78.4118 24.6824 78.4118C24.6864 78.4118 24.6904 78.4118 24.6944 78.4118C24.6984 78.4118 24.7024 78.4118 24.7064 78.4118C24.7105 78.4118 24.7145 78.4118 24.7185 78.4118C24.7225 78.4118 24.7265 78.4118 24.7305 78.4118C24.7345 78.4118 24.7386 78.4118 24.7426 78.4118C24.7466 78.4118 24.7506 78.4118 24.7546 78.4118C24.7586 78.4118 24.7627 78.4118 24.7667 78.4118C24.7707 78.4118 24.7747 78.4118 24.7787 78.4118C24.7828 78.4118 24.7868 78.4118 24.7908 78.4118C24.7948 78.4118 24.7988 78.4118 24.8029 78.4118C24.8069 78.4118 24.8109 78.4118 24.8149 78.4118C24.819 78.4118 24.823 78.4118 24.827 78.4118C24.831 78.4118 24.8351 78.4118 24.8391 78.4118C24.8431 78.4118 24.8471 78.4118 24.8512 78.4118C24.8552 78.4118 24.8592 78.4118 24.8632 78.4118C24.8673 78.4118 24.8713 78.4118 24.8753 78.4118C24.8794 78.4118 24.8834 78.4118 24.8874 78.4118C24.8915 78.4118 24.8955 78.4118 24.8995 78.4118C24.9035 78.4118 24.9076 78.4118 24.9116 78.4118C24.9156 78.4118 24.9197 78.4118 24.9237 78.4118C24.9277 78.4118 24.9318 78.4118 24.9358 78.4118C24.9399 78.4118 24.9439 78.4118 24.9479 78.4118C24.952 78.4118 24.956 78.4118 24.96 78.4118C24.9641 78.4118 24.9681 78.4118 24.9722 78.4118C24.9762 78.4118 24.9802 78.4118 24.9843 78.4118C24.9883 78.4118 24.9923 78.4118 24.9964 78.4118C25.0004 78.4118 25.0045 78.4118 25.0085 78.4118C25.0126 78.4118 25.0166 78.4118 25.0206 78.4118C25.0247 78.4118 25.0287 78.4118 25.0328 78.4118C25.0368 78.4118 25.0409 78.4118 25.0449 78.4118C25.049 78.4118 25.053 78.4118 25.057 78.4118C25.0611 78.4118 25.0651 78.4118 25.0692 78.4118C25.0732 78.4118 25.0773 78.4118 25.0813 78.4118C25.0854 78.4118 25.0894 78.4118 25.0935 78.4118C25.0975 78.4118 25.1016 78.4118 25.1056 78.4118C25.1097 78.4118 25.1137 78.4118 25.1178 78.4118C25.1218 78.4118 25.1259 78.4118 25.13 78.4118C25.134 78.4118 25.1381 78.4118 25.1421 78.4118C25.1462 78.4118 25.1502 78.4118 25.1543 78.4118C25.1583 78.4118 25.1624 78.4118 25.1665 78.4118C25.1705 78.4118 25.1746 78.4118 25.1786 78.4118C25.1827 78.4118 25.1868 78.4118 25.1908 78.4118C25.1949 78.4118 25.1989 78.4118 25.203 78.4118C25.2071 78.4118 25.2111 78.4118 25.2152 78.4118C25.2192 78.4118 25.2233 78.4118 25.2274 78.4118C25.2314 78.4118 25.2355 78.4118 25.2396 78.4118C25.2436 78.4118 25.2477 78.4118 25.2518 78.4118C25.2558 78.4118 25.2599 78.4118 25.264 78.4118C25.268 78.4118 25.2721 78.4118 25.2762 78.4118C25.2802 78.4118 25.2843 78.4118 25.2884 78.4118C25.2924 78.4118 25.2965 78.4118 25.3006 78.4118C25.3046 78.4118 25.3087 78.4118 25.3128 78.4118C25.3169 78.4118 25.3209 78.4118 25.325 78.4118C25.3291 78.4118 25.3331 78.4118 25.3372 78.4118C25.3413 78.4118 25.3454 78.4118 25.3494 78.4118C25.3535 78.4118 25.3576 78.4118 25.3617 78.4118C25.3657 78.4118 25.3698 78.4118 25.3739 78.4118C25.378 78.4118 25.3821 78.4118 25.3861 78.4118C25.3902 78.4118 25.3943 78.4118 25.3984 78.4118C25.4025 78.4118 25.4065 78.4118 25.4106 78.4118C25.4147 78.4118 25.4188 78.4118 25.4229 78.4118C25.4269 78.4118 25.431 78.4118 25.4351 78.4118C25.4392 78.4118 25.4433 78.4118 25.4474 78.4118C25.4514 78.4118 25.4555 78.4118 25.4596 78.4118C25.4637 78.4118 25.4678 78.4118 25.4719 78.4118C25.476 78.4118 25.48 78.4118 25.4841 78.4118C25.4882 78.4118 25.4923 78.4118 25.4964 78.4118C25.5005 78.4118 25.5046 78.4118 25.5087 78.4118C25.5128 78.4118 25.5168 78.4118 25.5209 78.4118C25.525 78.4118 25.5291 78.4118 25.5332 78.4118C25.5373 78.4118 25.5414 78.4118 25.5455 78.4118C25.5496 78.4118 25.5537 78.4118 25.5578 78.4118C25.5619 78.4118 25.566 78.4118 25.5701 78.4118C25.5742 78.4118 25.5783 78.4118 25.5824 78.4118C25.5865 78.4118 25.5905 78.4118 25.5947 78.4118C25.5987 78.4118 25.6028 78.4118 25.6069 78.4118C25.611 78.4118 25.6151 78.4118 25.6192 78.4118C25.6233 78.4118 25.6274 78.4118 25.6315 78.4118C25.6357 78.4118 25.6398 78.4118 25.6439 78.4118C25.648 78.4118 25.6521 78.4118 25.6562 78.4118C25.6603 78.4118 25.6644 78.4118 25.6685 78.4118C25.6726 78.4118 25.6767 78.4118 25.6808 78.4118C25.6849 78.4118 25.689 78.4118 25.6931 78.4118C25.6972 78.4118 25.7013 78.4118 25.7055 78.4118C25.7096 78.4118 25.7137 78.4118 25.7178 78.4118C25.7219 78.4118 25.726 78.4118 25.7301 78.4118C25.7342 78.4118 25.7383 78.4118 25.7425 78.4118C25.7466 78.4118 25.7507 78.4118 25.7548 78.4118C25.7589 78.4118 25.763 78.4118 25.7671 78.4118C25.7712 78.4118 25.7754 78.4118 25.7795 78.4118C25.7836 78.4118 25.7877 78.4118 25.7918 78.4118C25.7959 78.4118 25.8001 78.4118 25.8042 78.4118C25.8083 78.4118 25.8124 78.4118 25.8165 78.4118C25.8207 78.4118 25.8248 78.4118 25.8289 78.4118C25.833 78.4118 25.8371 78.4118 25.8413 78.4118C25.8454 78.4118 25.8495 78.4118 25.8536 78.4118C25.8578 78.4118 25.8619 78.4118 25.866 78.4118C25.8701 78.4118 25.8743 78.4118 25.8784 78.4118C25.8825 78.4118 25.8866 78.4118 25.8908 78.4118C25.8949 78.4118 25.899 78.4118 25.9031 78.4118C25.9073 78.4118 25.9114 78.4118 25.9155 78.4118C25.9197 78.4118 25.9238 78.4118 25.9279 78.4118C25.932 78.4118 25.9362 78.4118 25.9403 78.4118C25.9444 78.4118 25.9486 78.4118 25.9527 78.4118C25.9568 78.4118 25.961 78.4118 25.9651 78.4118C25.9692 78.4118 25.9734 78.4118 25.9775 78.4118C25.9816 78.4118 25.9858 78.4118 25.9899 78.4118C25.994 78.4118 25.9982 78.4118 26.0023 78.4118C26.0065 78.4118 26.0106 78.4118 26.0147 78.4118C26.0189 78.4118 26.023 78.4118 26.0271 78.4118C26.0313 78.4118 26.0354 78.4118 26.0396 78.4118C26.0437 78.4118 26.0479 78.4118 26.052 78.4118C26.0561 78.4118 26.0603 78.4118 26.0644 78.4118C26.0686 78.4118 26.0727 78.4118 26.0769 78.4118C26.081 78.4118 26.0851 78.4118 26.0893 78.4118C26.0934 78.4118 26.0976 78.4118 26.1017 78.4118C26.1059 78.4118 26.11 78.4118 26.1142 78.4118C26.1183 78.4118 26.1225 78.4118 26.1266 78.4118C26.1308 78.4118 26.1349 78.4118 26.1391 78.4118C26.1432 78.4118 26.1474 78.4118 26.1515 78.4118C26.1557 78.4118 26.1598 78.4118 26.164 78.4118C26.1681 78.4118 26.1723 78.4118 26.1764 78.4118C26.1806 78.4118 26.1847 78.4118 26.1889 78.4118C26.193 78.4118 26.1972 78.4118 26.2014 78.4118C26.2055 78.4118 26.2097 78.4118 26.2138 78.4118C26.218 78.4118 26.2221 78.4118 26.2263 78.4118C26.2305 78.4118 26.2346 78.4118 26.2388 78.4118C26.2429 78.4118 26.2471 78.4118 26.2513 78.4118C26.2554 78.4118 26.2596 78.4118 26.2637 78.4118C26.2679 78.4118 26.2721 78.4118 26.2762 78.4118C26.2804 78.4118 26.2845 78.4118 26.2887 78.4118C26.2929 78.4118 26.297 78.4118 26.3012 78.4118C26.3054 78.4118 26.3095 78.4118 26.3137 78.4118C26.3179 78.4118 26.322 78.4118 26.3262 78.4118C26.3304 78.4118 26.3345 78.4118 26.3387 78.4118C26.3429 78.4118 26.347 78.4118 26.3512 78.4118C26.3554 78.4118 26.3596 78.4118 26.3637 78.4118C26.3679 78.4118 26.3721 78.4118 26.3762 78.4118C26.3804 78.4118 26.3846 78.4118 26.3888 78.4118C26.3929 78.4118 26.3971 78.4118 26.4013 78.4118C26.4055 78.4118 26.4096 78.4118 26.4138 78.4118C26.418 78.4118 26.4222 78.4118 26.4263 78.4118C26.4305 78.4118 26.4347 78.4118 26.4389 78.4118C26.4431 78.4118 26.4472 78.4118 26.4514 78.4118C26.4556 78.4118 26.4598 78.4118 26.464 78.4118C26.4681 78.4118 26.4723 78.4118 26.4765 78.4118C26.4807 78.4118 26.4849 78.4118 26.489 78.4118C26.4932 78.4118 26.4974 78.4118 26.5016 78.4118C26.5058 78.4118 26.51 78.4118 26.5141 78.4118C26.5183 78.4118 26.5225 78.4118 26.5267 78.4118C26.5309 78.4118 26.5351 78.4118 26.5393 78.4118C26.5435 78.4118 26.5476 78.4118 26.5518 78.4118C26.556 78.4118 26.5602 78.4118 26.5644 78.4118C26.5686 78.4118 26.5728 78.4118 26.577 78.4118C26.5812 78.4118 26.5854 78.4118 26.5895 78.4118C26.5937 78.4118 26.5979 78.4118 26.6021 78.4118C26.6063 78.4118 26.6105 78.4118 26.6147 78.4118C26.6189 78.4118 26.6231 78.4118 26.6273 78.4118C26.6315 78.4118 26.6357 78.4118 26.6399 78.4118C26.6441 78.4118 26.6483 78.4118 26.6525 78.4118C26.6567 78.4118 26.6609 78.4118 26.6651 78.4118C26.6693 78.4118 26.6735 78.4118 26.6777 78.4118C26.6819 78.4118 26.6861 78.4118 26.6903 78.4118C26.6945 78.4118 26.6987 78.4118 26.7029 78.4118C26.7071 78.4118 26.7113 78.4118 26.7155 78.4118C26.7197 78.4118 26.7239 78.4118 26.7281 78.4118C26.7323 78.4118 26.7365 78.4118 26.7407 78.4118C26.7449 78.4118 26.7491 78.4118 26.7533 78.4118C26.7576 78.4118 26.7618 78.4118 26.766 78.4118C26.7702 78.4118 26.7744 78.4118 26.7786 78.4118C26.7828 78.4118 26.787 78.4118 26.7912 78.4118C26.7954 78.4118 26.7997 78.4118 26.8039 78.4118C26.8081 78.4118 26.8123 78.4118 26.8165 78.4118C26.8207 78.4118 26.8249 78.4118 26.8291 78.4118C26.8334 78.4118 26.8376 78.4118 26.8418 78.4118C26.846 78.4118 26.8502 78.4118 26.8544 78.4118C26.8587 78.4118 26.8629 78.4118 26.8671 78.4118C26.8713 78.4118 26.8755 78.4118 26.8797 78.4118C26.884 78.4118 26.8882 78.4118 26.8924 78.4118C26.8966 78.4118 26.9008 78.4118 26.9051 78.4118C26.9093 78.4118 26.9135 78.4118 26.9177 78.4118C26.922 78.4118 26.9262 78.4118 26.9304 78.4118C26.9346 78.4118 26.9389 78.4118 26.9431 78.4118C26.9473 78.4118 26.9515 78.4118 26.9558 78.4118C26.96 78.4118 26.9642 78.4118 26.9684 78.4118C26.9727 78.4118 26.9769 78.4118 26.9811 78.4118C26.9854 78.4118 26.9896 78.4118 26.9938 78.4118C26.998 78.4118 27.0023 78.4118 27.0065 78.4118C27.0107 78.4118 27.015 78.4118 27.0192 78.4118C27.0234 78.4118 27.0277 78.4118 27.0319 78.4118C27.0361 78.4118 27.0404 78.4118 27.0446 78.4118C27.0488 78.4118 27.0531 78.4118 27.0573 78.4118C27.0615 78.4118 27.0658 78.4118 27.07 78.4118C27.0742 78.4118 27.0785 78.4118 27.0827 78.4118C27.087 78.4118 27.0912 78.4118 27.0954 78.4118C27.0997 78.4118 27.1039 78.4118 27.1082 78.4118C27.1124 78.4118 27.1166 78.4118 27.1209 78.4118C27.1251 78.4118 27.1294 78.4118 27.1336 78.4118C27.1378 78.4118 27.1421 78.4118 27.1463 78.4118C27.1506 78.4118 27.1548 78.4118 27.1591 78.4118C27.1633 78.4118 27.1676 78.4118 27.1718 78.4118C27.1761 78.4118 27.1803 78.4118 27.1845 78.4118C27.1888 78.4118 27.193 78.4118 27.1973 78.4118C27.2015 78.4118 27.2058 78.4118 27.21 78.4118C27.2143 78.4118 27.2185 78.4118 27.2228 78.4118C27.227 78.4118 27.2313 78.4118 27.2355 78.4118C27.2398 78.4118 27.244 78.4118 27.2483 78.4118C27.2526 78.4118 27.2568 78.4118 27.2611 78.4118C27.2653 78.4118 27.2696 78.4118 27.2738 78.4118C27.2781 78.4118 27.2823 78.4118 27.2866 78.4118C27.2909 78.4118 27.2951 78.4118 27.2994 78.4118C27.3036 78.4118 27.3079 78.4118 27.3121 78.4118C27.3164 78.4118 27.3207 78.4118 27.3249 78.4118C27.3292 78.4118 27.3334 78.4118 27.3377 78.4118C27.342 78.4118 27.3462 78.4118 27.3505 78.4118C27.3548 78.4118 27.359 78.4118 27.3633 78.4118C27.3675 78.4118 27.3718 78.4118 27.3761 78.4118C27.3803 78.4118 27.3846 78.4118 27.3889 78.4118C27.3931 78.4118 27.3974 78.4118 27.4017 78.4118C27.4059 78.4118 27.4102 78.4118 27.4145 78.4118C27.4187 78.4118 27.423 78.4118 27.4273 78.4118C27.4316 78.4118 27.4358 78.4118 27.4401 78.4118C27.4444 78.4118 27.4486 78.4118 27.4529 78.4118C27.4572 78.4118 27.4615 78.4118 27.4657 78.4118C27.47 78.4118 27.4743 78.4118 27.4785 78.4118C27.4828 78.4118 27.4871 78.4118 27.4914 78.4118C27.4956 78.4118 27.4999 78.4118 27.5042 78.4118C27.5085 78.4118 27.5128 78.4118 27.517 78.4118C27.5213 78.4118 27.5256 78.4118 27.5299 78.4118C27.5341 78.4118 27.5384 78.4118 27.5427 78.4118C27.547 78.4118 27.5513 78.4118 27.5555 78.4118C27.5598 78.4118 27.5641 78.4118 27.5684 78.4118C27.5727 78.4118 27.577 78.4118 27.5812 78.4118C27.5855 78.4118 27.5898 78.4118 27.5941 78.4118C27.5984 78.4118 27.6027 78.4118 27.607 78.4118C27.6112 78.4118 27.6155 78.4118 27.6198 78.4118C27.6241 78.4118 27.6284 78.4118 27.6327 78.4118C27.637 78.4118 27.6413 78.4118 27.6455 78.4118C27.6498 78.4118 27.6541 78.4118 27.6584 78.4118C27.6627 78.4118 27.667 78.4118 27.6713 78.4118C27.6756 78.4118 27.6799 78.4118 27.6842 78.4118C27.6885 78.4118 27.6928 78.4118 27.697 78.4118C27.7013 78.4118 27.7056 78.4118 27.7099 78.4118C27.7142 78.4118 27.7185 78.4118 27.7228 78.4118C27.7271 78.4118 27.7314 78.4118 27.7357 78.4118C27.74 78.4118 27.7443 78.4118 27.7486 78.4118C27.7529 78.4118 27.7572 78.4118 27.7615 78.4118C27.7658 78.4118 27.7701 78.4118 27.7744 78.4118C27.7787 78.4118 27.783 78.4118 27.7873 78.4118C27.7916 78.4118 27.7959 78.4118 27.8002 78.4118C27.8045 78.4118 27.8088 78.4118 27.8131 78.4118C27.8174 78.4118 27.8217 78.4118 27.8261 78.4118C27.8304 78.4118 27.8347 78.4118 27.839 78.4118C27.8433 78.4118 27.8476 78.4118 27.8519 78.4118C27.8562 78.4118 27.8605 78.4118 27.8648 78.4118C27.8691 78.4118 27.8734 78.4118 27.8778 78.4118C27.8821 78.4118 27.8864 78.4118 27.8907 78.4118C27.895 78.4118 27.8993 78.4118 27.9036 78.4118C27.9079 78.4118 27.9123 78.4118 27.9166 78.4118C27.9209 78.4118 27.9252 78.4118 27.9295 78.4118C27.9338 78.4118 27.9381 78.4118 27.9425 78.4118C27.9468 78.4118 27.9511 78.4118 27.9554 78.4118C27.9597 78.4118 27.964 78.4118 27.9684 78.4118C27.9727 78.4118 27.977 78.4118 27.9813 78.4118C27.9856 78.4118 27.99 78.4118 27.9943 78.4118C27.9986 78.4118 28.0029 78.4118 28.0073 78.4118C28.0116 78.4118 28.0159 78.4118 28.0202 78.4118C28.0245 78.4118 28.0289 78.4118 28.0332 78.4118C28.0375 78.4118 28.0418 78.4118 28.0462 78.4118C28.0505 78.4118 28.0548 78.4118 28.0591 78.4118C28.0635 78.4118 28.0678 78.4118 28.0721 78.4118C28.0765 78.4118 28.0808 78.4118 28.0851 78.4118C28.0894 78.4118 28.0938 78.4118 28.0981 78.4118C28.1024 78.4118 28.1068 78.4118 28.1111 78.4118C28.1154 78.4118 28.1198 78.4118 28.1241 78.4118C28.1284 78.4118 28.1328 78.4118 28.1371 78.4118C28.1414 78.4118 28.1458 78.4118 28.1501 78.4118C28.1544 78.4118 28.1588 78.4118 28.1631 78.4118C28.1674 78.4118 28.1718 78.4118 28.1761 78.4118C28.1805 78.4118 28.1848 78.4118 28.1891 78.4118C28.1935 78.4118 28.1978 78.4118 28.2022 78.4118C28.2065 78.4118 28.2108 78.4118 28.2152 78.4118C28.2195 78.4118 28.2239 78.4118 28.2282 78.4118C28.2325 78.4118 28.2369 78.4118 28.2412 78.4118C28.2456 78.4118 28.2499 78.4118 28.2543 78.4118C28.2586 78.4118 28.263 78.4118 28.2673 78.4118C28.2716 78.4118 28.276 78.4118 28.2803 78.4118C28.2847 78.4118 28.289 78.4118 28.2934 78.4118C28.2977 78.4118 28.3021 78.4118 28.3064 78.4118C28.3108 78.4118 28.3151 78.4118 28.3195 78.4118C28.3238 78.4118 28.3282 78.4118 28.3325 78.4118C28.3369 78.4118 28.3412 78.4118 28.3456 78.4118C28.3499 78.4118 28.3543 78.4118 28.3587 78.4118C28.363 78.4118 28.3674 78.4118 28.3717 78.4118C28.3761 78.4118 28.3804 78.4118 28.3848 78.4118C28.3891 78.4118 28.3935 78.4118 28.3979 78.4118C28.4022 78.4118 28.4066 78.4118 28.4109 78.4118C28.4153 78.4118 28.4196 78.4118 28.424 78.4118C28.4284 78.4118 28.4327 78.4118 28.4371 78.4118C28.4414 78.4118 28.4458 78.4118 28.4502 78.4118C28.4545 78.4118 28.4589 78.4118 28.4633 78.4118C28.4676 78.4118 28.472 78.4118 28.4764 78.4118C28.4807 78.4118 28.4851 78.4118 28.4894 78.4118C28.4938 78.4118 28.4982 78.4118 28.5025 78.4118C28.5069 78.4118 28.5113 78.4118 28.5157 78.4118C28.52 78.4118 28.5244 78.4118 28.5288 78.4118C28.5331 78.4118 28.5375 78.4118 28.5419 78.4118C28.5462 78.4118 28.5506 78.4118 28.555 78.4118C28.5594 78.4118 28.5637 78.4118 28.5681 78.4118C28.5725 78.4118 28.5768 78.4118 28.5812 78.4118C28.5856 78.4118 28.59 78.4118 28.5943 78.4118C28.5987 78.4118 28.6031 78.4118 28.6075 78.4118C28.6118 78.4118 28.6162 78.4118 28.6206 78.4118C28.625 78.4118 28.6294 78.4118 28.6337 78.4118C28.6381 78.4118 28.6425 78.4118 28.6469 78.4118C28.6512 78.4118 28.6556 78.4118 28.66 78.4118C28.6644 78.4118 28.6688 78.4118 28.6732 78.4118C28.6775 78.4118 28.6819 78.4118 28.6863 78.4118C28.6907 78.4118 28.6951 78.4118 28.6995 78.4118C28.7038 78.4118 28.7082 78.4118 28.7126 78.4118C28.717 78.4118 28.7214 78.4118 28.7258 78.4118C28.7302 78.4118 28.7345 78.4118 28.7389 78.4118C28.7433 78.4118 28.7477 78.4118 28.7521 78.4118C28.7565 78.4118 28.7609 78.4118 28.7653 78.4118C28.7697 78.4118 28.7741 78.4118 28.7784 78.4118C28.7828 78.4118 28.7872 78.4118 28.7916 78.4118C28.796 78.4118 28.8004 78.4118 28.8048 78.4118C28.8092 78.4118 28.8136 78.4118 28.818 78.4118C28.8224 78.4118 28.8268 78.4118 28.8312 78.4118C28.8356 78.4118 28.84 78.4118 28.8444 78.4118C28.8488 78.4118 28.8532 78.4118 28.8576 78.4118C28.862 78.4118 28.8664 78.4118 28.8708 78.4118C28.8752 78.4118 28.8796 78.4118 28.884 78.4118C28.8884 78.4118 28.8928 78.4118 28.8972 78.4118C28.9016 78.4118 28.906 78.4118 28.9104 78.4118C28.9148 78.4118 28.9192 78.4118 28.9236 78.4118C28.928 78.4118 28.9324 78.4118 28.9368 78.4118C28.9412 78.4118 28.9456 78.4118 28.95 78.4118C28.9544 78.4118 28.9588 78.4118 28.9632 78.4118C28.9676 78.4118 28.9721 78.4118 28.9765 78.4118C28.9809 78.4118 28.9853 78.4118 28.9897 78.4118C28.9941 78.4118 28.9985 78.4118 29.0029 78.4118C29.0073 78.4118 29.0117 78.4118 29.0162 78.4118C29.0206 78.4118 29.025 78.4118 29.0294 78.4118C29.0338 78.4118 29.0382 78.4118 29.0426 78.4118C29.0471 78.4118 29.0515 78.4118 29.0559 78.4118C29.0603 78.4118 29.0647 78.4118 29.0691 78.4118C29.0736 78.4118 29.078 78.4118 29.0824 78.4118C29.0868 78.4118 29.0912 78.4118 29.0956 78.4118C29.1001 78.4118 29.1045 78.4118 29.1089 78.4118C29.1133 78.4118 29.1178 78.4118 29.1222 78.4118C29.1266 78.4118 29.131 78.4118 29.1354 78.4118C29.1399 78.4118 29.1443 78.4118 29.1487 78.4118C29.1531 78.4118 29.1576 78.4118 29.162 78.4118C29.1664 78.4118 29.1708 78.4118 29.1753 78.4118C29.1797 78.4118 29.1841 78.4118 29.1886 78.4118C29.193 78.4118 29.1974 78.4118 29.2018 78.4118C29.2063 78.4118 29.2107 78.4118 29.2151 78.4118C29.2196 78.4118 29.224 78.4118 29.2284 78.4118C29.2328 78.4118 29.2373 78.4118 29.2417 78.4118C29.2461 78.4118 29.2506 78.4118 29.255 78.4118C29.2594 78.4118 29.2639 78.4118 29.2683 78.4118C29.2728 78.4118 29.2772 78.4118 29.2816 78.4118C29.2861 78.4118 29.2905 78.4118 29.2949 78.4118C29.2994 78.4118 29.3038 78.4118 29.3083 78.4118C29.3127 78.4118 29.3171 78.4118 29.3216 78.4118C29.326 78.4118 29.3304 78.4118 29.3349 78.4118C29.3393 78.4118 29.3438 78.4118 29.3482 78.4118C29.3527 78.4118 29.3571 78.4118 29.3615 78.4118C29.366 78.4118 29.3704 78.4118 29.3749 78.4118C29.3793 78.4118 29.3838 78.4118 29.3882 78.4118C29.3927 78.4118 29.3971 78.4118 29.4015 78.4118C29.406 78.4118 29.4104 78.4118 29.4149 78.4118C29.4193 78.4118 29.4238 78.4118 29.4282 78.4118C29.4327 78.4118 29.4371 78.4118 29.4416 78.4118C29.446 78.4118 29.4505 78.4118 29.4549 78.4118C29.4594 78.4118 29.4638 78.4118 29.4683 78.4118C29.4727 78.4118 29.4772 78.4118 29.4816 78.4118C29.4861 78.4118 29.4906 78.4118 29.495 78.4118C29.4995 78.4118 29.5039 78.4118 29.5084 78.4118C29.5128 78.4118 29.5173 78.4118 29.5217 78.4118C29.5262 78.4118 29.5307 78.4118 29.5351 78.4118C29.5396 78.4118 29.544 78.4118 29.5485 78.4118C29.553 78.4118 29.5574 78.4118 29.5619 78.4118C29.5663 78.4118 29.5708 78.4118 29.5753 78.4118C29.5797 78.4118 29.5842 78.4118 29.5886 78.4118C29.5931 78.4118 29.5976 78.4118 29.602 78.4118C29.6065 78.4118 29.611 78.4118 29.6154 78.4118C29.6199 78.4118 29.6244 78.4118 29.6288 78.4118C29.6333 78.4118 29.6378 78.4118 29.6422 78.4118C29.6467 78.4118 29.6512 78.4118 29.6556 78.4118C29.6601 78.4118 29.6646 78.4118 29.669 78.4118C29.6735 78.4118 29.678 78.4118 29.6825 78.4118C29.6869 78.4118 29.6914 78.4118 29.6959 78.4118C29.7003 78.4118 29.7048 78.4118 29.7093 78.4118C29.7138 78.4118 29.7182 78.4118 29.7227 78.4118C29.7272 78.4118 29.7317 78.4118 29.7361 78.4118C29.7406 78.4118 29.7451 78.4118 29.7496 78.4118C29.7541 78.4118 29.7585 78.4118 29.763 78.4118C29.7675 78.4118 29.772 78.4118 29.7764 78.4118C29.7809 78.4118 29.7854 78.4118 29.7899 78.4118C29.7944 78.4118 29.7988 78.4118 29.8033 78.4118C29.8078 78.4118 29.8123 78.4118 29.8168 78.4118C29.8213 78.4118 29.8257 78.4118 29.8302 78.4118C29.8347 78.4118 29.8392 78.4118 29.8437 78.4118C29.8482 78.4118 29.8527 78.4118 29.8571 78.4118C29.8616 78.4118 29.8661 78.4118 29.8706 78.4118C29.8751 78.4118 29.8796 78.4118 29.8841 78.4118C29.8886 78.4118 29.893 78.4118 29.8975 78.4118C29.902 78.4118 29.9065 78.4118 29.911 78.4118C29.9155 78.4118 29.92 78.4118 29.9245 78.4118C29.929 78.4118 29.9335 78.4118 29.938 78.4118C29.9425 78.4118 29.9469 78.4118 29.9514 78.4118C29.9559 78.4118 29.9604 78.4118 29.9649 78.4118C29.9694 78.4118 29.9739 78.4118 29.9784 78.4118C29.9829 78.4118 29.9874 78.4118 29.9919 78.4118C29.9964 78.4118 30.0009 78.4118 30.0054 78.4118C30.0099 78.4118 30.0144 78.4118 30.0189 78.4118C30.0234 78.4118 30.0279 78.4118 30.0324 78.4118V38.4118ZM23.5786 38.4118H21.2737V78.4118H23.5786V38.4118ZM1.27371 58.4118V81H41.2737V58.4118H1.27371ZM21.2737 61H0.37575V101H21.2737V61ZM30.3397 0.764709H21.2737V40.7647H30.3397V0.764709ZM1.27371 20.7647V39.9724H41.2737V20.7647H1.27371ZM21.2737 59.9724H30.3397V19.9724H21.2737V59.9724ZM30.3397 59.9724C32.0926 59.9724 34.8969 59.9866 37.6629 59.7456C40.4122 59.5061 44.5467 58.9216 48.8337 56.9786C53.5506 54.8407 58.1376 51.1888 61.2418 45.6012C64.151 40.3648 64.9376 34.9002 64.9376 30.2917H24.9376C24.9376 30.5236 24.879 28.6892 26.2756 26.1755C27.8672 23.3106 30.2741 21.4738 32.3211 20.546C33.9383 19.8131 34.9131 19.8337 34.1906 19.8966C33.4848 19.9581 32.5053 19.9724 30.3397 19.9724V59.9724ZM64.9376 30.2917C64.9376 25.4735 64.0303 19.8813 60.9087 14.6031C57.6393 9.07475 52.9636 5.61584 48.4074 3.62652C41.0352 0.407677 32.6157 0.764709 30.3397 0.764709V40.7647C32.3712 40.7647 33.3089 40.7784 34.0021 40.8386C34.7113 40.9002 33.8701 40.9258 32.4017 40.2847C30.573 39.4862 28.1638 37.8136 26.479 34.9647C24.9421 32.366 24.9376 30.3465 24.9376 30.2917H64.9376ZM78.0135 72.7023L60.1567 63.6949L52.5421 78.7904L66.1599 88.811L78.0135 72.7023ZM86.7722 55.3385L98.4682 39.115L79.4657 25.4155L68.9154 46.3311L86.7722 55.3385ZM136.405 8.77911L154.326 17.6587L162.136 1.89612L147.499 -7.86189L136.405 8.77911ZM127.953 25.8355L117.597 42.9455L136.213 54.2129L145.874 34.7152L127.953 25.8355ZM108.592 62.0756C100.54 62.0756 94.2047 59.7853 89.8671 56.5935L66.1599 88.811C78.1105 97.6048 92.9804 102.076 108.592 102.076V62.0756ZM95.8703 81.7097L104.629 64.346L68.9154 46.3311L60.1567 63.6949L95.8703 81.7097ZM75.0762 71.5621C84.5671 78.4043 96.417 82.7143 107.67 82.7143V42.7143C106.016 42.7143 102.192 41.7998 98.4682 39.115L75.0762 71.5621ZM107.67 82.7143C111.988 82.7143 117.908 82.176 123.487 79.2358C130.185 75.7059 136.275 68.4918 136.275 58.4118H96.2752C96.2752 55.3486 97.1457 52.0397 99.1108 49.0921C100.986 46.279 103.261 44.6804 104.838 43.8494C107.574 42.4075 109.191 42.7143 107.67 42.7143V82.7143ZM136.275 58.4118C136.275 49.8468 131.783 43.9507 128.47 40.8155C125.369 37.8815 121.905 35.9767 119.739 34.8689C117.404 33.675 114.828 32.5561 112.876 31.7008C110.712 30.7527 108.874 29.9422 107.103 29.0643C99.3234 25.2074 100.165 23.7021 100.165 23.2233H60.1648C60.1648 48.2522 79.0614 59.8082 89.3368 64.9021C92.0797 66.2619 94.7553 67.4322 96.8232 68.3382C99.1029 69.3371 100.477 69.9456 101.527 70.4829C102.746 71.1061 102.104 70.9361 100.978 69.8706C99.6389 68.6039 96.2752 64.7102 96.2752 58.4118H136.275ZM100.165 23.2233C100.165 22.6399 100.274 22.4059 100.291 22.3697C100.307 22.3354 100.371 22.1919 100.662 21.9486C101.246 21.4598 103.516 20.0204 108.746 20.0204V-19.9796C96.3046 -19.9796 84.284 -16.5018 74.9956 -8.73129C65.4498 -0.745483 60.1648 10.7049 60.1648 23.2233H100.165ZM108.746 20.0204C115.393 20.0204 119.89 21.8065 125.311 25.4201L147.499 -7.86189C137.246 -14.6973 125.148 -19.9796 108.746 -19.9796V20.0204ZM118.484 -0.100521L110.033 16.9559L145.874 34.7152L154.326 17.6587L118.484 -0.100521ZM138.31 8.72554C131.395 4.5403 121.13 -0.618244 108.592 -0.618244V39.3818C110.191 39.3818 112.834 40.0623 117.597 42.9455L138.31 8.72554ZM108.592 -0.618244C104.019 -0.618244 98.0354 0.178715 92.5129 3.67625C86.2777 7.62526 81.5237 14.6509 81.5237 23.377H121.524C121.524 26.2793 120.768 29.2674 119.193 31.9551C117.646 34.5963 115.653 36.368 113.915 37.469C112.222 38.5414 110.757 38.9955 109.918 39.1895C109.479 39.291 109.142 39.3376 108.929 39.3596C108.715 39.3816 108.598 39.3818 108.592 39.3818V-0.618244ZM81.5237 23.377C81.5237 31.8956 85.9273 37.8696 89.5751 41.2069C92.8579 44.2103 96.5064 46.0481 98.7083 47.0756C101.088 48.1861 103.715 49.2054 105.635 49.9598C107.789 50.8061 109.581 51.518 111.291 52.2969C114.86 53.9218 116.445 55.1427 117.112 55.8858C117.28 56.0731 117.634 56.2791 117.634 57.9508H157.634C157.634 46.1771 153.474 36.5104 146.872 29.1586C140.769 22.3627 133.325 18.3783 127.867 15.8928C125.063 14.6164 122.341 13.5468 120.263 12.7304C117.952 11.8223 116.629 11.2977 115.624 10.8283C114.44 10.276 115.268 10.498 116.576 11.6947C118.249 13.2252 121.524 17.2016 121.524 23.377H81.5237ZM117.634 57.9508C117.634 59.1422 117.418 59.6814 117.36 59.8116C117.313 59.9166 117.257 60.0203 117.04 60.1997C116.549 60.6065 114.257 62.0756 108.592 62.0756V102.076C120.752 102.076 132.981 98.9349 142.555 91.0055C152.559 82.7196 157.634 70.8423 157.634 57.9508H117.634ZM148.034 1.09604V-18.904H121.351L128.838 6.70738L148.034 1.09604ZM169.854 1.09604L189.173 -4.08046L185.201 -18.904H169.854V1.09604ZM184.759 56.7215L165.441 61.898L184.859 134.367L204.091 61.8481L184.759 56.7215ZM199.511 1.09604V-18.904H184.123L180.179 -4.03062L199.511 1.09604ZM221.331 1.09604L240.527 6.70738L248.014 -18.904H221.331V1.09604ZM197.974 81V101H212.965L217.171 86.6113L197.974 81ZM171.391 81L152.194 86.6113L156.4 101H171.391V81ZM148.034 21.096H169.854V-18.904H148.034V21.096ZM150.536 6.27254L165.441 61.898L204.078 51.545L189.173 -4.08046L150.536 6.27254ZM204.091 61.8481L218.843 6.22269L180.179 -4.03062L165.428 51.5948L204.091 61.8481ZM199.511 21.096H221.331V-18.904H199.511V21.096ZM202.134 -4.5153L178.777 75.3887L217.171 86.6113L240.527 6.70738L202.134 -4.5153ZM197.974 61H171.391V101H197.974V61ZM190.587 75.3887L167.231 -4.5153L128.838 6.70738L152.194 86.6113L190.587 75.3887ZM232.126 81H212.126V101H232.126V81ZM232.126 1.09604V-18.904H212.126V1.09604H232.126ZM253.024 60.563V40.563H233.024V60.563H253.024ZM253.024 81V101H273.024V81H253.024ZM253.024 20.7647V0.764709H233.024V20.7647H253.024ZM253.024 40.8944H233.024V60.8944H253.024V40.8944ZM252.126 81V1.09604H212.126V81H252.126ZM232.126 21.096H253.638V-18.904H232.126V21.096ZM253.638 21.096C257.384 21.096 260.812 21.1106 264.203 21.4563C267.608 21.8035 270.05 22.41 271.685 23.1253C273.127 23.7567 273.515 24.2707 273.686 24.534C273.87 24.8147 274.82 26.3769 274.82 30.7527H314.82C314.82 20.3002 312.447 10.7412 307.189 2.68091C301.92 -5.39677 294.75 -10.4433 287.722 -13.5191C274.768 -19.1882 260.139 -18.904 253.638 -18.904V21.096ZM274.82 30.7527C274.82 35.2288 273.86 36.8639 273.656 37.1814C273.477 37.461 273.108 37.9504 271.742 38.5571C270.173 39.2536 267.798 39.8563 264.439 40.2028C261.091 40.548 257.695 40.563 253.946 40.563V80.563C260.429 80.563 275.045 80.855 287.972 75.1164C294.999 71.9968 302.112 66.8968 307.316 58.7922C312.495 50.7255 314.82 41.1818 314.82 30.7527H274.82ZM253.946 40.563H253.024V80.563H253.946V40.563ZM233.024 60.563V81H273.024V60.563H233.024ZM253.024 61H232.126V101H253.024V61ZM259.017 0.764709H253.024V40.7647H259.017V0.764709ZM233.024 20.7647V40.8944H273.024V20.7647H233.024ZM253.024 60.8944H259.017V20.8944H253.024V60.8944ZM259.017 60.8944C261.022 60.8944 269.539 61.2723 277.125 57.7181C281.722 55.5641 286.252 51.9519 289.388 46.4396C292.383 41.1734 293.307 35.579 293.307 30.599H253.307C253.307 30.7667 253.27 29.0331 254.619 26.6624C256.107 24.0457 258.303 22.3639 260.154 21.4967C261.666 20.7886 262.602 20.7785 262.096 20.8279C261.582 20.8781 260.849 20.8944 259.017 20.8944V60.8944ZM293.307 30.599C293.307 25.3977 292.218 19.6543 288.925 14.356C285.554 8.93325 280.885 5.6004 276.496 3.67662C269.112 0.439873 260.975 0.764709 259.017 0.764709V40.7647C260.704 40.7647 261.427 40.7793 261.963 40.8299C262.505 40.8811 261.754 40.8888 260.437 40.3114C258.853 39.6169 256.603 38.128 254.952 35.4711C253.378 32.9388 253.307 30.8832 253.307 30.599H293.307Z" fill="#CA9E67"/>
</svg>
