<svg width="123" height="73" viewBox="0 0 123 73" fill="none" xmlns="http://www.w3.org/2000/svg">
<g clip-path="url(#clip0_11_1688)">
<path d="M39.5714 4.02347C39.5 5.02234 38.6429 7.18657 36.4286 12.0145C30.5 25.2495 23.6429 35.0718 17 39.9829C13.9286 42.2304 11.6429 43.2293 9.07143 43.5622C8.28572 43.5622 7.64286 43.7287 7.00001 43.5622C6.42858 43.5622 6.00001 43.3957 5.35715 43.146C3.57143 42.6466 2.35715 41.6477 1.42858 40.0662C0.285719 38.2349 -0.142852 35.9874 0.0714337 33.3238C0.357148 29.8277 1.78572 25.749 4.28572 21.587C6.71429 17.5915 10.0714 13.8457 13.2857 11.6815C15 10.4329 16 10.0999 17.2857 10.2664H17.4286C19.0714 10.4329 19.7857 11.2653 19.6429 13.0966C19.6429 13.263 19.5714 13.5128 19.5714 13.7625C19.0714 17.5915 16.7143 22.3361 11.5714 29.8277C9.71429 32.5746 8.42858 34.0729 7.92858 34.3226C7.71429 34.3226 7.28572 34.4059 6.85715 34.3226C6.64286 34.3226 6.42858 34.3226 6.28572 34.1562C6.21429 34.0729 6.14286 33.9897 6.14286 33.8232C6.14286 33.6567 6.28572 33.407 6.50001 33.2405C7.28572 32.5746 10.9286 27.0808 12.7857 23.7512C13.9286 21.7535 15.4286 18.6736 16.0714 17.0088C16.7857 15.2608 17.2143 13.596 17.2857 12.5971C17.2857 12.1809 17.2857 11.9312 17.2143 11.7647C17.2143 11.7647 17.1429 11.7647 17.0714 11.7647C16.4286 11.7647 14 13.4295 11.9286 15.4273C8.64286 18.6736 5.42858 23.335 3.85715 27.2473C2.92858 29.4115 2.42858 31.7422 2.28572 33.74C2.21429 34.7388 2.21429 35.5712 2.28572 36.4036C2.64286 38.5678 3.78572 40.4824 5.28572 41.3147C5.71429 41.5645 6.21429 41.7309 6.78572 41.7309C8.57143 41.8974 10.7857 41.065 13.4286 39.1505C19.7857 34.4891 27.2143 24.4171 33.7143 11.515C34.9286 9.18431 37.7143 3.19107 37.7143 3.02459C37.1429 3.02459 33.5 3.02459 31.6429 3.27431C27.4286 3.52403 21.9286 4.5229 18.9286 5.3553C18.0714 5.60502 17.2143 5.77149 17 5.77149C16.2857 5.77149 15.7143 5.10558 15.7857 4.43966C15.7857 4.35642 15.7857 4.18994 15.9286 4.1067C16.2143 3.52403 19.7857 2.44192 23.5714 1.69276C29.7143 0.610647 36.7857 0.277689 41.9286 0.860366C43.5 1.02684 44.9286 1.27656 46.0714 1.60952C47.6429 2.02572 48.6429 2.69163 49.2857 3.52403C49.7857 4.18994 49.7857 4.35642 49.7857 5.02234C49.7857 5.43854 49.6429 6.02121 49.5714 6.18769C49.4286 6.52065 49.2857 6.68713 49 6.60389C48.7857 6.60389 48.5 6.43741 48.2143 6.18769C47.8571 5.85473 47.7857 5.68825 47.7143 5.10558C47.7143 4.43966 47.7143 4.35642 47.1429 4.1067C46.5714 3.85699 44.2143 3.52403 42.3571 3.35755C41.7143 3.35755 41.0714 3.19107 40.6429 3.19107C39.7857 3.19107 39.5714 3.19107 39.5714 3.27431C39.5714 3.27431 39.5714 3.35755 39.5714 3.52403C39.5714 3.60727 39.5714 3.85699 39.5714 4.02347Z" fill="white"/>
<path d="M54.1428 29.4111C52.2143 30.077 50.9286 30.41 49.2143 30.3267C48.7857 30.3267 48.3571 30.3267 47.9286 30.3267C46.6428 30.1602 45.3571 29.8273 44.5 29.3279L43.6428 28.8284L43.2857 29.4111C42.1428 31.4088 39.9286 33.4066 38.7143 33.8228C38.2143 33.9893 37.7143 34.0725 37.2143 33.9893C36.8571 33.9893 36.5 33.8228 36.2143 33.6563C35.2143 33.0736 34.6428 31.6586 34.7857 29.9938C34.7857 29.8273 34.8571 29.5776 34.8571 29.4111C35.2143 27.1636 36.2857 24.8329 37.5714 23.2514C38.5 22.086 40 21.1704 40.8571 21.0039C41.1428 21.0039 41.4286 21.0039 41.6428 21.0039C42.2143 21.0039 42.6428 21.1704 42.7857 21.4201C42.8571 21.5033 43.1428 21.5866 43.4286 21.6698C44.0714 21.6698 44.7143 22.3357 45.0714 23.1681C45.0714 23.5011 45.2143 23.9173 45.1428 24.5832C45.1428 25.1659 44.9286 25.915 44.7143 26.7474C44.7143 26.8307 44.7143 26.9139 44.7143 26.9971C44.7143 27.2469 44.7857 27.4133 45.2143 27.7463C45.8571 28.4955 46.7857 28.9117 48 29.0781C48.2143 29.0781 48.4286 29.0781 48.5714 29.0781C49.7857 29.0781 50.9286 28.9949 53.2857 28.4955C54.2143 28.2457 54.9286 28.2457 55.2857 28.2457C55.6428 28.2457 55.7857 28.4122 55.7857 28.5787C55.7857 28.7452 55.4286 28.9949 54.1428 29.4111ZM42.3571 26.8307C42.3571 26.8307 42.3571 26.4145 42.2857 26.1648C42.1428 25.6653 42.1428 25.1659 42.1428 24.7497C42.1428 24.3335 42.2857 23.9173 42.4286 23.6676C42.5714 23.4179 42.6428 23.2514 42.6428 23.1681C42.6428 23.0849 42.5714 23.0017 42.3571 23.0017C41.8571 23.0017 40.0714 24.4167 39.5 25.3324C39.0714 25.915 38.8571 26.0815 38.5714 26.0815C38.2143 26.0815 38.1428 26.0815 37.7857 27.0804C37.2857 28.329 36.9286 29.5776 36.8571 30.5764C36.8571 31.4921 36.8571 32.158 37.2143 32.5742C37.2857 32.7407 37.3571 32.7407 37.5 32.7407C37.7143 32.7407 37.9286 32.6574 38.4286 32.3245C39.3571 31.6586 40.2857 30.5764 41.2857 29.0781C42.0714 27.8295 42.3571 27.4133 42.4286 26.9139L42.3571 26.8307Z" fill="white"/>
<path d="M79.9286 31.076C79.9286 31.076 79.9286 31.2425 79.7857 31.3257C79.7857 31.3257 79.2143 31.9084 78.6429 32.4078C77 33.9062 74.5 35.1547 72.2143 35.6542C71.1429 35.9039 70.2143 35.9871 69.4286 35.9039C67.4286 35.6542 66.2143 34.4888 65.7857 32.2414C65.6429 31.3257 65.5714 30.7431 65.7857 28.3291C65.9286 26.8308 65.9286 25.499 65.8572 25.4157C65.6429 25.4157 63 27.4135 61.5714 28.6621C58 31.9916 53.7143 37.1525 51.6429 40.6486C50.6429 42.3966 50.5714 42.4798 49.9286 42.5631H49.7143C49.7143 42.5631 49.3572 42.4798 49.2143 42.2301C49.0714 42.0636 48.9286 41.9804 49 41.8139C49 41.8139 49 41.8139 49 41.7307V41.5642C49 41.5642 49 41.0648 49 40.8983C49 40.6486 49 40.5653 49 40.3156C49 40.0659 49.0714 39.7329 49.2857 39.2335C50 36.9028 52.7143 30.5766 55.5 24.8331C59.0714 17.175 64.2143 9.01755 67.6429 5.43825C68.2857 4.6891 68.9286 4.43938 69.5714 4.52262C69.7143 4.52262 69.8572 4.52262 70 4.52262C70.3572 4.60586 70.5 5.02206 70.5 5.35502C70.5 5.68797 70.2857 6.10417 69.8572 6.10417C69.5714 6.10417 69.2857 6.43713 68.7143 7.18628C65.7143 11.3483 57.8572 25.5822 54.5 32.9073C54.2143 33.5732 54 34.1559 54 34.2391C54 34.2391 54.5714 33.6564 55.1429 32.9073C58.5 28.9118 62.7143 25.0828 64.7857 24.1671C65.4286 23.9174 65.7143 23.8342 66.4286 23.9174C67.4286 24.0007 67.8572 24.3336 68.1429 24.9995C68.3572 25.4157 68.3572 26.0816 68.2857 28.5788C68.0714 32.1581 68.2857 33.157 69.1429 34.1559C69.4286 34.5721 69.7143 34.7386 70.0714 34.8218C70.3572 34.8218 70.7143 34.8218 71.2857 34.6553C73.3572 34.2391 75.0714 33.49 77.3572 31.9084C78.7857 30.9928 79.1429 30.8263 79.5 30.8263C79.9286 30.8263 80.1429 31.076 80.0714 31.2425L79.9286 31.076Z" fill="white"/>
<path d="M101.071 33.3234C101.071 33.9893 98.6429 35.8206 98.2143 36.2368C95.6429 38.6507 93.1429 40.2323 91.2143 40.6485C90.7143 40.6485 90 40.6485 89.3572 40.6485C88.7857 40.6485 88.2143 40.482 87.8572 40.3155C87.0715 39.9826 86.0715 38.9837 85.7857 38.0681C85.5715 37.4854 85.5715 36.9859 85.5715 35.9038V34.4888L84.2143 35.8206C81 38.9837 79.4286 40.149 78 39.9826C77.7143 39.9826 77.4286 39.8161 77.1429 39.7328C76.2857 39.3167 75.8572 38.734 75.6429 37.6519C75.6429 37.4021 75.6429 37.1524 75.6429 36.9027C75.7857 35.4876 76.5715 33.5731 78.0715 31.2424C79.4286 29.1614 80.9286 27.5799 82.2857 26.581C83.6429 25.6654 84.5 25.4157 85.6429 25.4989C85.8572 25.4989 86 25.4989 86.2143 25.5821C87.0715 25.8319 87.2143 25.9151 87.7143 26.4145C88 26.7475 88.4286 27.4134 88.6429 27.9128L89 28.9117L89.4286 28.4955C89.8572 28.0793 90.6429 27.9128 91.2143 27.9961C91.5 27.9961 91.7857 28.1626 91.9286 28.329C91.9286 28.329 91.9286 28.329 91.9286 28.4955C91.9286 28.662 91.7857 28.8285 91.5 29.2447C90.2857 30.6597 89 32.824 88.2857 34.6552C88.0715 35.3212 87.8572 35.9038 87.8572 36.4033C87.7857 37.6519 88.2143 38.6507 89 39.1502C89.2857 39.3167 89.4286 39.4831 89.6429 39.4831C89.7857 39.4831 90 39.4831 90.3572 39.3999C90.7857 39.3999 91.7143 38.9837 92.3572 38.734C93.8572 38.0681 97.0715 35.7374 98.9286 34.0726C99.9286 33.1569 100.143 33.0737 100.571 33.0737C100.929 33.0737 101.214 33.2402 101.214 33.3234H101.071ZM86.9286 30.0771C86.9286 30.0771 86.7857 29.4112 86.4286 28.662C86.0715 27.7464 85.7143 27.1637 85.2857 27.0804C85.2143 27.0804 85.1429 27.0804 85.0715 27.0804C83.5715 27.5799 80.5715 31.4089 79 34.572C78.4286 35.6541 78.0715 36.9859 78 37.7351C78 38.0681 78 38.2345 78.1429 38.3178C78.2857 38.401 78.9286 37.9016 79.5715 37.4021C80.8572 36.4033 82.8572 34.572 85.5 31.9083C86.4286 30.9095 86.8572 30.5765 86.8572 30.1603L86.9286 30.0771Z" fill="white"/>
<path d="M123 35.7376C123 35.7376 122.571 36.3203 121.786 36.8198C119.214 38.3181 115.929 39.6499 114.214 39.7331C113.929 39.7331 113.643 39.7331 113.429 39.7331C113.143 39.7331 112.857 39.6499 112.571 39.4834C110.5 38.8175 110 37.236 110.286 32.9907C110.286 32.0751 110.357 31.3259 110.286 31.3259C110.214 31.3259 109.5 31.7421 108.643 32.3248C106 34.0728 102.929 36.8198 99.8572 40.0661C98.8096 41.2314 98.0715 41.7864 97.6429 41.7309C97.2143 41.7309 97 41.5644 96.8572 41.3979C96.7858 41.2314 96.7143 41.065 96.7858 40.8152C96.7858 40.3158 97.0715 39.4834 97.7143 37.9019C99.3572 33.4069 100.857 30.3271 102.143 28.579C102.857 27.6634 103.286 27.3305 103.929 27.4137C104.071 27.4137 104.214 27.4137 104.357 27.4969C104.786 27.5802 105 27.8299 105 28.1628C105 28.3293 104.857 28.6623 104.5 28.9952C103.786 29.7444 100.429 35.9041 100.357 36.4036C100.357 36.4036 101.143 35.8209 102 34.9885C104.429 32.741 107.714 30.3271 109.286 29.8276C109.786 29.6612 110.286 29.6612 110.786 29.6612C111.357 29.6612 111.857 29.9109 112.143 30.1606C112.643 30.7433 112.714 31.3259 112.5 33.6567C112.357 35.8209 112.5 36.9862 113 37.7354C113.214 38.0683 113.357 38.1516 113.571 38.2348C113.643 38.2348 113.786 38.2348 113.857 38.2348C114.714 38.2348 118.071 36.9862 119.714 36.1538C121.357 35.3214 121.857 35.0717 122.286 35.155C122.357 35.155 122.5 35.155 122.571 35.155C122.857 35.2382 123 35.4047 123 35.5712V35.7376Z" fill="white"/>
<path d="M3.28571 72.6127C40.3571 60.7095 80.1429 54.5498 118.571 55.7984C120.143 55.7984 117.429 53.9671 116.714 53.9671C77.9286 52.7185 37.9286 58.795 0.5 70.8647C0.142857 70.948 2.42857 72.9457 3.35714 72.6127H3.28571Z" fill="white"/>
</g>
<defs>
<clipPath id="clip0_11_1688">
<rect width="123" height="72.0854" fill="white" transform="translate(0 0.610352)"/>
</clipPath>
</defs>
</svg>
