<svg width="123" height="80" viewBox="0 0 123 80" fill="none" xmlns="http://www.w3.org/2000/svg">
<g clip-path="url(#clip0_11_1661)">
<path d="M27.5838 47.9058C27.5838 48.991 27.5838 49.9213 27.5838 49.9213C27.5838 49.9213 28.2469 49.9213 28.9763 49.7662C29.7056 49.6112 30.5013 49.5337 30.7666 49.6112C31.2307 49.6887 31.6949 50.1538 31.8275 50.4639V50.6189C31.8275 50.929 31.4296 51.1615 31.0981 51.3166C30.8329 51.3941 30.5676 51.4716 30.3687 51.3166C30.1035 51.2391 29.7056 51.3166 28.8436 51.4716C28.1143 51.6266 27.5838 51.8592 27.5838 51.8592C27.5838 51.8592 27.5838 54.6498 27.4512 58.0606C27.3186 65.6573 27.3186 67.5952 27.1197 67.9828C27.0534 68.2929 26.7881 68.4479 26.324 68.6805C26.1914 68.758 26.0587 68.8355 25.9261 68.8355C25.6609 68.913 25.5283 68.913 25.3294 68.8355C25.1967 68.758 25.0641 68.6805 24.9978 68.5254C24.9978 68.2929 24.9315 67.9828 24.8652 67.2076C24.8652 66.4325 24.7326 63.0217 24.6663 59.6885C24.6 56.3552 24.4674 53.5646 24.4674 53.332V53.022L21.6162 54.1072C17.5051 55.7351 11.3385 58.5257 10.145 59.3784C9.87976 59.6109 9.74715 59.8435 9.48192 61.6264C9.01777 64.4945 8.55362 68.2154 8.48731 70.2308C8.48731 71.2386 8.3547 72.0912 8.22208 72.2463C8.22208 72.4013 7.89054 72.7114 7.62532 72.8664H7.4927C6.96224 73.1765 6.49809 72.9439 6.29917 72.4013C5.96763 71.3161 6.23286 67.1301 6.82963 63.0217L7.09486 61.1613C7.09486 61.1613 7.09486 61.1613 7.02855 61.1613C6.5644 61.3163 4.50887 62.7116 4.30995 62.9442C3.91211 63.4093 2.45335 64.3395 1.79027 64.6496H1.59135C1.59135 64.6496 0.994587 64.6496 0.663051 64.4945C0.331514 64.262 0.132593 64.1069 -2.19941e-05 63.7969C-0.0663293 63.4868 0.132593 63.0992 0.729358 62.5566C1.52505 61.7814 3.51426 60.3861 5.43718 59.2234C6.36548 58.6807 7.29378 58.1381 7.42639 58.0606C7.62532 57.9056 7.82424 57.2079 8.421 54.7273C10.6755 44.185 14.9854 32.2473 18.8312 25.9684C20.29 23.4878 21.2183 22.4026 22.4118 21.9375C22.6771 21.8599 22.9423 21.7824 23.2075 21.7049C24.1358 21.5499 24.6663 21.7049 25.1304 22.4801C25.2631 22.7126 25.462 23.2553 25.6609 23.9529C26.0587 25.4257 26.4566 27.5187 26.6555 29.2241C27.0534 33.255 27.5175 42.1695 27.5838 47.9058ZM23.4064 25.8908C23.3401 25.4257 23.2075 24.9606 23.1412 24.5731C22.9423 23.8754 22.7434 23.4878 22.6108 23.4878C22.6108 23.4878 22.2792 23.8754 22.014 24.263C19.2954 27.9838 15.2507 38.3712 12.3994 48.6035C11.6701 51.1615 10.4765 56.0451 10.5428 56.2002C10.5428 56.2002 10.6091 56.2002 10.7418 56.2002C10.8744 56.2002 11.007 56.0451 11.1396 55.9676L13.4604 54.8824C15.6485 53.8746 17.3062 53.177 18.8312 52.5569C19.6932 52.2468 20.5552 51.9367 21.4835 51.6266C22.9423 51.1615 24.2021 50.774 24.2684 50.774C24.2684 50.774 24.4011 49.9213 24.2684 42.247C24.1358 34.0302 23.8043 28.759 23.3401 25.8133L23.4064 25.8908Z" fill="white"/>
<path d="M63.2571 34.4175C63.2571 34.4175 63.2571 34.8826 62.9256 35.3477C61.9973 36.8205 57.9525 40.9289 56.6264 41.7816C56.2285 42.0142 55.897 42.2467 55.5655 42.3243C54.1067 42.8669 52.7142 42.6343 51.7859 41.7041C51.5207 41.3941 51.0566 40.6189 50.725 39.9212C49.9293 38.4484 49.7967 38.2934 49.5978 38.3709C49.1336 38.5259 47.6086 41.1615 45.8183 44.9599C44.5584 47.673 44.3595 47.9055 43.5638 48.2156C42.7682 48.5257 42.5029 48.3706 42.2377 47.5179V47.2854C41.9062 46.4327 41.7735 43.487 41.7735 40.6189C41.7735 39.9987 41.7735 39.4561 41.7735 39.3786C41.7735 39.3786 41.442 39.7662 41.1105 40.3863C39.0549 44.3397 37.5299 48.2156 36.5353 52.479C36.0711 54.1844 35.9385 54.6495 35.4744 54.8046C35.3417 54.8046 35.1428 54.8821 34.9439 54.9596C34.6787 54.9596 34.3471 54.9596 34.1482 54.8046C34.0156 54.7271 33.9493 54.6495 33.883 54.417C33.883 54.2619 33.8167 53.9519 33.7504 53.5643C33.6177 52.4015 33.5514 48.2931 33.6177 46.2776C33.7504 43.5645 34.4134 40.2313 35.0102 39.2236C35.1428 38.991 35.4744 38.7585 36.0711 38.4484C36.2037 38.3709 36.4027 38.2934 36.5353 38.2158C36.9994 38.0608 37.2646 38.1383 37.331 38.3709C37.3973 38.6809 37.331 39.2236 37.1983 40.0763C36.6679 42.6343 35.9385 47.983 36.0711 48.2931C37.1983 45.1149 39.5191 39.7662 40.8452 38.1383C41.1768 37.7507 41.6409 37.4407 42.0388 37.2856C42.3703 37.1306 42.7682 37.1306 43.0334 37.2856C43.2323 37.3631 43.3649 37.5182 43.4975 37.9058C43.6301 38.3709 43.7628 39.3786 43.7628 41.1615C43.7628 43.8746 43.8291 45.425 43.8954 45.6575C43.8954 45.6575 44.2269 45.1149 44.5584 44.4172C44.89 43.6421 45.6857 42.1692 46.3487 41.0065C47.8075 38.5259 48.4043 37.8282 49.5315 37.4407C50.9903 36.898 51.4544 37.2081 52.449 39.146C53.4436 41.239 54.173 41.8592 55.3002 41.4716C55.6318 41.3165 56.0959 41.084 56.4938 40.6964C57.4221 39.9987 59.8091 37.6732 60.9363 36.3554C62.0636 35.1151 62.2625 34.8051 62.6603 34.7276H62.7929C62.7929 34.7276 63.2571 34.65 63.3234 34.7276L63.2571 34.4175Z" fill="white"/>
<path d="M78.3752 28.2936C78.3752 28.2936 78.11 29.0688 76.8501 31.3168C74.2642 35.8903 72.4076 38.4484 70.0205 40.0763C69.49 40.4639 68.628 40.8515 67.8323 41.239C67.1693 41.4716 66.5725 41.7041 66.1084 41.7041C63.9865 41.8592 62.4615 40.7739 61.931 38.836C61.7984 38.3709 61.7321 37.9058 61.6658 37.3632C61.6658 36.743 61.6658 36.1229 61.5995 35.9679C61.4669 35.4252 62.1962 32.4021 62.793 31.0843C63.5224 29.3789 64.7159 28.1386 66.1084 27.596L66.5062 27.4409C67.3019 27.2084 67.8323 27.2859 68.4291 27.6735C68.7607 27.906 68.827 28.1386 69.0259 28.7587C69.3574 29.9215 69.0259 31.1618 68.0976 33.0222C67.103 34.8051 66.241 35.6578 64.7159 36.2004L63.655 36.588V36.9756C63.655 36.9756 63.7876 37.5182 63.8539 37.9058C63.9865 38.4484 64.3181 39.1461 64.517 39.3786C65.2464 40.2313 66.3073 40.4639 67.6334 39.9988C68.0976 39.8437 68.628 39.5337 69.0922 39.1461C70.9488 37.7508 72.3412 36.0454 74.662 32.4796C76.9164 29.0688 77.3806 28.2161 77.7784 28.0611C77.9111 28.0611 78.0437 28.0611 78.2426 28.0611H78.3752V28.2936ZM63.7213 35.2702C63.7213 35.2702 63.7213 35.2702 63.7876 35.3477C63.9202 35.3477 63.9865 35.3477 64.1191 35.3477C64.3844 35.2702 64.7159 34.9601 65.1801 34.5725C66.0421 33.7974 67.0367 31.9369 67.2356 30.8517C67.3682 30.3091 67.4345 29.6889 67.3019 29.3789C67.2356 29.0688 67.103 28.9138 66.9041 28.8362C66.6388 28.8362 66.3736 28.7587 66.241 28.8362C65.7768 28.9913 64.9811 30.0765 64.5833 31.0067C64.0528 32.3245 63.5224 34.8826 63.655 35.3477L63.7213 35.2702ZM68.5617 18.914C68.6943 19.3791 68.3628 20.0768 67.1693 22.0147C66.5725 23.0224 66.0421 23.9526 65.9094 24.1077C65.9094 24.2627 65.7105 24.4177 65.5116 24.4953C65.3127 24.4953 65.0474 24.5728 64.8485 24.4953C64.3181 24.4953 64.2518 24.3402 64.1191 23.9526C63.9865 23.5651 64.1191 23.1 64.9811 21.007C65.8431 18.914 65.9757 18.5264 66.6388 18.2939C67.3019 18.0613 68.4954 18.2939 68.628 18.759L68.5617 18.914Z" fill="white"/>
<path d="M94.6205 22.0924C94.7531 22.6351 90.7083 31.8596 89.1833 34.4952C87.5256 37.2859 86.1994 38.6812 84.5418 39.3013C84.2765 39.3788 84.0776 39.4564 83.8124 39.5339C81.8895 39.999 79.9666 38.7587 78.6404 36.2006C78.4415 35.7355 78.1763 34.8828 77.911 34.0301C77.5795 32.8674 77.248 31.4721 77.1153 30.4643C77.049 29.9217 76.9827 29.5341 76.9164 29.3791C76.9164 29.1465 76.7838 29.069 76.7175 29.1465C76.5849 29.1465 76.5186 29.1465 76.4523 28.9915C76.4523 28.8365 76.4523 28.6814 76.6512 28.3714C76.7838 28.0613 76.7838 27.2086 76.6512 25.8908C76.4523 19.4569 77.049 12.9454 78.3752 6.97654C78.9056 4.72853 79.3698 3.10067 79.9666 1.62783L80.497 0.465072L81.1601 0.23252C81.6905 -3.26373e-05 81.8895 -3.26373e-05 82.3536 0.23252C83.0167 0.54259 83.5472 1.24025 83.8124 2.24797C84.2765 4.03088 84.2765 6.8215 83.7461 10.8524C83.083 15.581 82.221 18.7592 80.2981 23.1002L79.1709 25.7358V27.3636C79.3035 30.0767 79.7676 32.4798 80.2318 34.1852C80.497 35.0379 80.7622 35.658 81.0275 36.1231C81.6242 37.1308 82.4862 37.9835 83.1493 38.1386C83.6135 38.2936 83.7461 38.3711 84.0776 38.2161C84.2102 38.2161 84.4091 38.061 84.6744 37.8285C86.3321 36.5882 88.5865 32.7123 91.3714 26.5109C92.4323 24.1854 93.3606 22.17 93.4932 22.0924H93.6259C93.6259 22.0924 94.4879 21.8599 94.4879 22.0149L94.6205 22.0924ZM79.2372 21.8599C79.3035 21.8599 79.5024 21.1622 79.9666 19.6119C81.2927 15.2709 82.0884 10.3098 82.1547 6.12385C82.1547 5.11612 81.8895 3.2557 81.7569 2.71308C81.7569 2.63556 81.7569 2.55804 81.6905 2.55804C81.5579 2.7906 80.6959 6.97654 80.3644 8.75944C80.0329 11.0074 79.5687 14.2632 79.4361 16.2011C79.2372 17.9065 79.1046 21.5498 79.1709 21.8599H79.2372Z" fill="white"/>
<path d="M103.174 24.6502C102.18 25.968 100.588 27.5959 99.7261 28.1385C99.1957 28.4485 98.7315 28.6811 98.2674 28.9137C97.9358 29.0687 97.538 29.1462 97.1401 29.2237C95.2172 29.5338 94.09 29.0687 93.3606 27.6734C93.2943 27.5183 93.228 27.2858 93.1617 27.0532C92.6313 25.1928 92.9628 21.5495 94.09 18.2938C94.3552 17.4411 94.6868 16.976 95.2835 16.7434C95.4162 16.7434 95.4825 16.7434 95.6151 16.6659C96.0129 16.5884 96.2118 16.6659 96.2782 16.8984C96.2782 17.0535 96.2782 17.2085 96.2782 17.4411C96.1455 17.7511 95.9466 18.6813 95.7477 19.6116C95.2172 22.7898 95.0846 25.0378 95.4162 26.2781C95.5488 26.7432 95.7477 27.0532 95.9466 27.2858C96.4771 27.8284 97.0738 27.9059 97.8695 27.5959C98.4663 27.3633 99.1957 26.8207 99.9251 26.123C101.119 24.9603 102.246 23.5649 104.699 19.9991C105.627 18.6813 106.556 17.4411 106.688 17.286C106.755 17.286 106.887 17.131 107.02 17.0535C107.351 16.8984 107.683 16.976 107.749 17.131C107.749 17.3635 104.301 22.9448 103.174 24.4952V24.6502ZM95.0183 13.7202C94.8857 13.3326 95.0183 9.22421 95.2172 8.68159C95.2172 8.294 95.7477 7.90642 96.2782 7.67386L96.6097 7.51883C97.1401 7.36379 97.4054 7.51883 97.538 7.8289C97.6043 8.13897 97.538 8.68159 97.4054 9.45677C97.2065 10.1544 97.0075 11.3172 96.9412 12.0924C96.8749 12.8675 96.7423 13.6427 96.7423 13.7202C96.676 13.8753 96.4108 14.0303 96.1455 14.1078C95.8803 14.1853 95.6151 14.2628 95.4825 14.1853C95.3498 14.1853 95.1509 13.9528 95.0846 13.7202H95.0183Z" fill="white"/>
<path d="M123 11.1622C123 11.1622 122.735 11.9374 121.475 14.1854C118.889 18.7589 117.032 21.317 114.645 22.9449C114.115 23.3325 113.253 23.72 112.457 24.1076C111.794 24.3402 111.197 24.5727 110.733 24.5727C108.611 24.7278 107.086 23.6425 106.556 21.7046C106.423 21.2395 106.357 20.7744 106.291 20.2318C106.291 19.6116 106.291 18.9915 106.224 18.8364C106.092 18.2938 106.821 15.2706 107.418 13.9528C108.147 12.2475 109.341 11.0072 110.733 10.4646L111.131 10.3095C111.927 10.077 112.457 10.1545 113.054 10.5421C113.385 10.7746 113.452 11.0072 113.651 11.6273C113.982 12.7901 113.651 14.0304 112.722 15.8908C111.728 17.6737 110.866 18.5264 109.341 19.069L108.28 19.4566V19.8442C108.28 19.8442 108.412 20.3868 108.479 20.7744C108.611 21.317 108.943 22.0147 109.142 22.2472C109.871 23.0999 110.932 23.3325 112.258 22.8673C112.722 22.7123 113.253 22.4022 113.717 22.0147C115.574 20.6193 116.966 18.914 119.287 15.3482C121.475 11.9374 122.005 11.0847 122.403 10.9297C122.536 10.9297 122.668 10.9297 122.867 10.9297H123V11.1622ZM108.346 18.1388C108.346 18.1388 108.346 18.1388 108.412 18.2163C108.545 18.2163 108.611 18.2163 108.744 18.2163C109.009 18.1388 109.341 17.9062 109.805 17.4411C110.667 16.666 111.661 14.8055 111.86 13.7203C111.993 13.1777 112.059 12.5575 111.86 12.2475C111.794 11.9374 111.661 11.7824 111.462 11.7048C111.197 11.7048 110.932 11.6273 110.799 11.7048C110.335 11.8599 109.54 12.9451 109.142 13.8753C108.611 15.1931 108.081 17.7512 108.213 18.2163L108.346 18.1388Z" fill="white"/>
<path d="M79.635 69.8429C78.8394 70.9282 77.911 71.6258 76.8501 72.0909C75.3251 72.7111 74.1315 72.401 73.0043 71.2382L72.5402 70.8506L72.2749 71.3157C71.8771 72.0134 68.9596 77.6722 68.5617 78.5249C68.3628 78.99 68.1639 79.2225 67.766 79.3776C67.6334 79.3776 67.5671 79.5326 67.4345 79.5326C67.3019 79.5326 67.1693 79.5326 67.103 79.5326C66.9703 79.5326 66.9703 79.4551 66.904 79.3C66.8377 79.0675 66.904 78.6024 67.1693 77.9822C67.3682 77.5171 68.3628 75.4242 69.3574 73.4087C70.352 71.4708 71.214 69.6104 71.2803 69.4553C71.3466 69.1453 71.2803 68.4476 70.5509 66.0446C69.6226 62.4012 69.6226 62.4012 70.6836 61.9361C71.2803 61.7036 71.3466 61.7036 71.5456 61.9361C71.7445 62.0912 72.076 63.0214 72.4075 64.1066L72.938 66.0446L74.4631 63.3314C76.5849 59.6881 76.9827 59.068 77.8447 58.7579C78.3752 58.5254 78.5078 58.5254 78.6404 58.7579C78.6404 58.7579 78.3752 59.6881 76.9164 62.2462C75.8555 64.0291 74.662 66.1221 74.2641 66.8972L73.4685 68.2926L73.8663 68.9902C74.5294 70.3855 75.524 71.0057 76.2534 70.7731C77.1154 70.463 78.773 68.2926 81.558 63.7965C82.5526 62.1687 82.6852 62.0912 83.2156 61.8586C83.6798 61.7036 83.945 61.7036 84.0113 61.9361C84.0113 61.9361 84.0113 62.0912 84.0113 62.2462C83.8787 62.7888 80.4307 68.3701 79.3035 69.9204L79.635 69.8429Z" fill="white"/>
<path d="M93.6922 64.4943C92.8965 65.5795 91.9682 66.2772 90.9073 66.7423C89.3822 67.3624 88.1887 67.0524 87.0614 65.8896L86.5973 65.4245L86.3321 65.8896C85.9342 66.5872 83.0167 72.246 82.6189 73.0987C82.4199 73.5638 82.221 73.7964 81.8232 74.0289C81.6906 74.0289 81.6242 74.184 81.4916 74.184C81.359 74.184 81.2264 74.184 81.1601 74.184C81.0275 74.184 81.0275 74.1064 80.9612 73.9514C80.8949 73.7189 80.9612 73.2537 81.2264 72.6336C81.4253 72.1685 82.4199 70.0755 83.4145 68.0601C84.4091 66.1221 85.2711 64.2617 85.3375 64.1067C85.4038 63.7966 85.3375 63.099 84.6081 60.6959C83.6798 57.0526 83.6798 57.0526 84.7407 56.5875C85.3374 56.3549 85.4038 56.3549 85.6027 56.5875C85.8016 56.7425 86.1331 57.6727 86.4647 58.758L86.9951 60.6959L88.5202 57.9828C90.642 54.3395 91.0399 53.7193 91.9019 53.4093C92.4323 53.1767 92.5649 53.1767 92.6976 53.4093C92.6976 53.4093 92.4323 54.3395 90.9736 56.8976C89.9127 58.6805 88.7191 60.7734 88.3213 61.5486L87.5256 62.9439L87.9234 63.6416C88.5865 65.0369 89.5811 65.657 90.3105 65.4245C91.1725 65.1144 92.8302 62.9439 95.6151 58.4479C96.6097 56.82 96.7423 56.7425 97.2728 56.51C97.7369 56.3549 98.0021 56.3549 98.0684 56.5875C98.0684 56.5875 98.0684 56.7425 98.0684 56.8976C97.9358 57.4402 94.4879 63.0214 93.3606 64.5718L93.6922 64.4943Z" fill="white"/>
<path d="M107.683 59.068C106.887 60.1532 105.959 60.9284 104.898 61.316C103.373 61.9361 102.18 61.6261 101.052 60.4633L100.588 59.9982L100.323 60.4633C99.9251 61.161 97.0075 66.8197 96.6097 67.6724C96.4108 68.1375 96.2119 68.3701 95.814 68.6027C95.6814 68.6027 95.6151 68.7577 95.4825 68.7577C95.3499 68.7577 95.2172 68.7577 95.1509 68.7577C95.0183 68.7577 95.0183 68.6802 94.952 68.5251C94.8857 68.2926 94.952 67.8275 95.2172 67.2073C95.4162 66.7422 96.4108 64.6493 97.4054 62.6338C98.4 60.6959 99.262 58.8355 99.3283 58.6804C99.3946 58.3703 99.3283 57.6727 98.5989 55.2696C97.6706 51.6263 97.6706 51.6263 98.7315 51.1612C99.3283 50.9287 99.3946 50.9287 99.5935 51.1612C99.7925 51.3163 100.124 52.2465 100.456 53.3317L100.986 55.2696L102.511 52.5565C104.633 48.9132 105.031 48.2931 105.893 47.983C106.423 47.7505 106.556 47.7505 106.688 47.983C106.688 47.983 106.423 48.9132 104.964 51.4713C103.903 53.2542 102.71 55.3472 102.312 56.1223L101.516 57.5177L101.914 58.2153C102.577 59.6106 103.572 60.2308 104.301 59.9207C105.163 59.6106 106.821 57.4401 109.606 52.9441C110.601 51.3163 110.733 51.2387 111.264 51.0062C111.728 50.8512 111.993 50.8512 112.059 51.0837C112.059 51.0837 112.059 51.2387 112.059 51.3938C111.927 51.9364 108.479 57.5177 107.351 59.068H107.683Z" fill="white"/>
</g>
<defs>
<clipPath id="clip0_11_1661">
<rect width="123" height="79.6104" fill="white"/>
</clipPath>
</defs>
</svg>
