<svg width="123" height="63" viewBox="0 0 123 63" fill="none" xmlns="http://www.w3.org/2000/svg">
<g clip-path="url(#clip0_11_1674)">
<path d="M58.7083 47.6989C58.7083 47.6989 58.8709 48.079 58.8167 48.2691C58.8167 48.2691 58.7625 48.3958 58.7083 48.3958C58.2746 49.2193 57.5157 49.4727 56.7025 49.0926C56.4857 48.9659 56.2689 48.8392 56.052 48.6492C55.5099 48.2057 55.3473 47.6356 55.5099 47.2555C55.6183 46.9388 55.8352 46.6854 56.2146 46.5587C56.6483 46.432 56.6483 46.3687 57.5699 46.8121C58.4914 47.2555 58.5456 47.2555 58.7083 47.6356V47.6989ZM61.2561 44.3416C61.2561 44.3416 61.0392 44.7216 60.8224 44.8483C60.3887 45.2284 59.684 45.2284 59.0877 44.975C58.8709 44.9117 58.7625 44.785 58.5456 44.6583C58.112 44.3416 57.8409 43.5814 57.8951 43.138V43.0113C58.0578 42.6312 58.5456 42.3145 59.0335 42.3145C59.2503 42.3145 59.5756 42.4411 59.8466 42.5678C60.1719 42.6945 60.4971 42.8846 60.714 43.138C61.1477 43.5814 61.3103 43.9615 61.2019 44.3416H61.2561Z" fill="white"/>
<path d="M75.242 43.8984C75.1336 45.292 74.7541 46.749 74.3204 48.1426C73.6699 50.043 72.8026 51.8801 71.7184 53.4004C68.7911 57.6447 65.2675 60.3686 60.4972 62.1423C59.3046 62.5857 59.1419 62.6491 58.8167 62.459C58.5456 62.3323 58.383 62.2056 58.3288 62.2056V62.0789C58.383 61.8889 58.8709 61.6355 60.2803 60.9387C64.2918 58.9749 66.7312 57.2012 68.8995 54.414C70.2548 52.6402 71.3931 50.4865 72.1521 48.206C73.2362 44.9119 73.5615 41.4278 72.8026 39.1473C72.6942 38.8306 72.6399 38.5772 72.6942 38.3872C72.6942 38.3238 72.8026 38.1971 72.911 38.1338C73.0736 38.1338 73.2905 38.1338 73.6157 38.2605C74.0494 38.4505 74.5373 38.8306 74.7541 39.084C75.2962 39.8442 75.513 41.7446 75.3504 43.835L75.242 43.8984Z" fill="white"/>
<path d="M0.650533 46.9388L0.487907 46.242C-0.379436 42.5045 -0.108391 38.1335 1.35525 32.9391C3.08993 26.5411 6.28826 20.5231 9.21554 18.1792C10.0287 17.4824 10.9502 16.9757 11.7091 16.7223C12.5765 16.4689 13.3354 16.4689 13.8775 16.7223C14.0943 16.849 14.257 16.9123 14.7991 16.7223L15.1243 16.5956C15.4496 16.4689 15.5038 16.5956 15.558 16.7223C15.558 16.849 15.558 17.3557 15.3954 17.8625C15.2869 18.496 15.2327 18.9394 15.2869 19.6362C15.4496 21.3466 15.2869 23.437 14.528 25.9076C14.257 27.0478 13.9317 27.808 13.7149 28.2514C13.4438 28.6948 13.3354 28.8215 13.1186 28.8849C13.0102 28.8849 12.9017 28.8849 12.7933 28.9482C12.1428 29.0749 11.8718 28.9482 11.7634 28.4415C11.6007 27.6179 12.197 23.8171 13.0102 20.7131C13.227 19.8263 13.4438 18.9394 13.3896 18.8127C13.2812 18.4326 12.7391 17.9259 12.3597 17.7992C12.197 17.7992 11.9802 17.7992 11.7634 17.7992C10.2455 18.3059 7.91453 21.1566 6.28826 24.5773C3.36098 30.722 1.95155 37.1833 2.16838 43.0113C2.22259 44.0882 2.43943 45.6718 2.76468 46.8754C2.92731 47.4456 3.03572 47.9523 3.19835 48.2691C3.84886 49.7894 4.60778 50.6763 5.69196 50.9296C6.12563 51.0563 6.61351 51.0563 7.10139 50.9296C7.69769 50.7396 8.29399 50.2962 8.94449 49.5993C9.595 48.8392 10.896 46.8754 11.5465 45.6085C12.2512 44.2782 13.9317 40.1607 14.5822 38.1969C15.3954 35.9797 15.3954 35.8531 15.7748 35.7264H15.8832C16.2085 35.5997 16.4253 35.5997 16.4795 35.7897C16.4795 35.9797 16.4253 36.4232 16.2085 37.1833C15.7206 38.7037 14.7448 41.3009 13.6065 44.0882C11.7634 48.6491 9.70342 51.1197 7.26402 51.9432C6.88456 52.0699 6.50509 52.1332 6.12563 52.1966C5.20408 52.2599 4.55357 52.1966 3.63202 51.6898C2.22259 50.9296 1.24683 49.5994 0.650533 47.0655V46.9388Z" fill="white"/>
<path d="M33.8806 30.4687C33.989 30.9121 30.357 38.2604 29.0018 40.2875C27.5382 42.5046 26.454 43.5182 25.0446 43.9616C24.8277 43.9616 24.6651 44.0883 24.4483 44.1516C22.822 44.4684 21.3584 43.3281 20.3826 41.1743C20.22 40.7942 20.0031 40.0974 19.8405 39.3372C19.6237 38.3237 19.4068 37.1835 19.3526 36.4233C19.3526 35.9799 19.2984 35.6631 19.2442 35.5364C19.2442 35.3464 19.1358 35.283 19.0816 35.283C18.9732 35.283 18.8647 35.283 18.8647 35.1564C18.8647 35.0297 18.8647 34.903 19.0274 34.6496C19.1358 34.3962 19.19 33.6994 19.1358 32.6225C19.19 27.3647 19.9489 22.1069 21.2499 17.2925C21.7378 15.4554 22.1715 14.1885 22.7678 13.0483L23.2015 12.098L23.7435 11.908C24.2314 11.7813 24.3398 11.7813 24.7193 11.908C25.2614 12.1614 25.6409 12.7949 25.8577 13.6184C26.1829 15.0754 26.0745 17.4192 25.4782 20.6499C24.7735 24.5141 23.9604 27.0479 22.2257 30.4687L21.1957 32.6225V33.9528C21.1957 36.1699 21.4668 38.197 21.792 39.5906C21.9547 40.2875 22.1715 40.7942 22.3341 41.2377C22.7678 42.0612 23.4725 42.8213 24.0146 43.0114C24.3941 43.1381 24.5025 43.2014 24.7735 43.1381C24.8819 43.1381 25.0446 43.0114 25.2614 42.8213C26.6166 41.8711 28.6223 38.8938 31.116 33.9528C32.0917 32.0523 32.9049 30.532 33.0133 30.4053H33.1217C33.1217 30.4053 33.8264 30.2786 33.8264 30.4053L33.8806 30.4687ZM21.3041 29.5185C21.3584 29.5185 21.5752 29.0117 22.0089 27.7448C23.2557 24.2607 24.0688 20.2698 24.2856 16.8491C24.2856 16.0256 24.1772 14.4419 24.0688 13.9985C24.0688 13.9351 24.0688 13.8718 24.0146 13.8718C23.852 14.0618 23.0388 17.4192 22.7136 18.8762C22.3341 20.7132 21.9004 23.3105 21.6836 24.8941C21.4668 26.2878 21.1957 29.2651 21.2499 29.4551L21.3041 29.5185Z" fill="white"/>
<path d="M46.5654 26.4777C46.5654 26.4777 46.2944 27.1112 45.2102 28.8849C42.9334 32.4957 41.3072 34.4594 39.3015 35.7264C38.8136 36.0431 38.1631 36.2965 37.4583 36.5499C36.9163 36.7399 36.3742 36.8666 36.0489 36.8666C34.3142 36.8666 33.1216 35.9164 32.7422 34.3327C32.6338 33.9527 32.5795 33.5726 32.5795 33.1292C32.5795 32.6224 32.5795 32.1156 32.5795 31.9889C32.5253 31.5455 33.2301 29.075 33.7179 28.0614C34.3684 26.7311 35.3984 25.7176 36.5368 25.3375H36.8621C37.5126 25.1474 37.9462 25.2108 38.4341 25.5275C38.7052 25.7176 38.7594 25.9076 38.922 26.4777C39.1388 27.4913 38.922 28.4415 38.0004 29.8985C37.1331 31.3554 36.3742 31.9889 35.1274 32.369L34.2058 32.6857V33.0025C34.2058 33.0025 34.2058 33.4459 34.3142 33.7626C34.4227 34.2694 34.6395 34.7762 34.8021 35.0296C35.3442 35.7897 36.2658 36.0431 37.2957 35.663C37.6752 35.5363 38.1089 35.3463 38.5425 35.0296C40.0604 34.016 41.3072 32.6857 43.3129 29.8985C45.2644 27.1745 45.6981 26.5411 46.0234 26.4144C46.1318 26.4144 46.2402 26.4144 46.4028 26.4144C46.4028 26.4144 46.457 26.4144 46.5112 26.4777H46.5654ZM34.3684 31.4188C34.3684 31.4188 34.3684 31.4188 34.3684 31.4821C34.4227 31.4821 34.5311 31.4821 34.6395 31.4821C34.8563 31.4188 35.1274 31.2287 35.561 30.8487C36.2658 30.2152 37.1873 28.7582 37.3499 27.9347C37.5126 27.4913 37.5126 26.9845 37.4583 26.7311C37.4041 26.4777 37.2957 26.351 37.1331 26.2243C36.9163 26.2243 36.6994 26.0976 36.591 26.161C36.2115 26.2877 35.561 27.1112 35.1816 27.8714C34.6937 28.9483 34.2058 30.9754 34.3142 31.4188H34.3684ZM38.922 18.306C39.0304 18.7494 38.7052 19.2562 37.6752 20.7765C37.1331 21.5367 36.6994 22.2968 36.591 22.4235C36.591 22.5502 36.3742 22.6769 36.2115 22.7403C36.0489 22.7403 35.8321 22.7403 35.6695 22.7403C35.2358 22.7403 35.1816 22.6136 35.0732 22.2968C35.0189 21.9801 35.0732 21.6 35.8863 19.8896C36.6452 18.2426 36.8078 17.9259 37.2957 17.7992C37.8378 17.6092 38.8136 17.8625 38.922 18.306Z" fill="white"/>
<path d="M70.038 19.1299C70.038 19.1299 69.9837 19.51 69.7669 19.89C68.9538 21.0303 65.5386 24.1976 64.4002 24.8311C64.075 25.0212 63.8039 25.1478 63.4787 25.2745C62.2319 25.6546 61.1477 25.4012 60.443 24.5777C60.2261 24.3243 59.9009 23.6909 59.6298 23.0574C59.0335 21.7905 58.9251 21.6638 58.7625 21.7271C58.383 21.8538 57.082 23.8809 55.4558 26.9216C54.3174 29.0754 54.1547 29.2654 53.5042 29.4554C52.8537 29.6455 52.6369 29.5188 52.4743 28.822V28.6319C52.2574 27.9351 52.2574 25.5279 52.3116 23.1207C52.3116 22.614 52.3116 22.1705 52.3116 22.1072C52.3116 22.1072 51.9864 22.4239 51.7696 22.8674C49.9807 25.9714 48.5712 29.1387 47.5955 32.4961C47.1618 33.8264 47.0534 34.2065 46.6739 34.3332C46.5655 34.3332 46.4029 34.3332 46.2402 34.3965C46.0234 34.3965 45.7524 34.3965 45.5897 34.2698C45.4813 34.2065 45.4271 34.0798 45.3729 33.9531C45.3729 33.8264 45.3729 33.573 45.3187 33.2563C45.2645 32.3061 45.3187 28.9487 45.4271 27.3016C45.6439 25.1478 46.2945 22.4239 46.8365 21.6004C46.945 21.4104 47.2702 21.2203 47.7039 21.0303C47.8123 20.9669 47.9749 20.9036 48.0833 20.9036C48.4628 20.7769 48.6796 20.9036 48.7339 21.0936C48.7881 21.347 48.7339 21.7905 48.5712 22.4873C48.0833 24.5777 47.2702 28.8853 47.3244 29.1387C48.3544 26.6048 50.4685 22.3606 51.6069 21.0936C51.878 20.8403 52.2574 20.5869 52.6369 20.4602C52.9621 20.3968 53.2332 20.3335 53.45 20.4602C53.6127 20.5235 53.7211 20.7136 53.7753 20.9669C53.8837 21.4104 53.8837 22.1705 53.8295 23.6275C53.7753 25.8447 53.7753 27.1116 53.8295 27.3016C53.8295 27.3016 54.1005 26.8582 54.4258 26.2881C54.6968 25.718 55.4558 24.5144 55.9978 23.5642C57.2446 21.6004 57.7867 21.0936 58.7083 20.7769C59.9009 20.3968 60.2803 20.7136 61.0393 22.2972C61.7982 24.0709 62.3945 24.6411 63.316 24.3243C63.5871 24.261 63.9666 24.0076 64.346 23.7542C65.1591 23.1841 67.1649 21.4737 68.0864 20.4602C69.0622 19.51 69.2248 19.3199 69.5501 19.1932H69.6585C69.6585 19.1932 70.038 19.1932 70.0922 19.2566L70.038 19.1299Z" fill="white"/>
<path d="M82.6144 14.9487C82.6144 14.9487 82.3434 15.5821 81.2592 17.3559C78.9824 20.9666 77.3561 22.9304 75.3504 24.1973C74.8625 24.5141 74.212 24.7675 73.5073 25.0208C72.9652 25.2109 72.4231 25.3376 72.0979 25.3376C70.3632 25.3376 69.1706 24.3874 68.7911 22.7404C68.6827 22.3603 68.6285 21.9802 68.6285 21.5368C68.6285 21.03 68.6285 20.5232 68.6285 20.3965C68.5743 19.9531 69.279 17.4826 69.7669 16.469C70.4174 15.1387 71.4474 14.1252 72.5858 13.7451H72.911C73.5615 13.555 73.9952 13.6184 74.4831 13.9351C74.7541 14.1252 74.8083 14.3152 74.9709 14.8853C75.1878 15.8989 74.9709 16.8491 74.0494 18.3061C73.182 19.763 72.4231 20.3965 71.1763 20.7766L70.2548 21.03V21.4101C70.2548 21.4101 70.2548 21.8535 70.3632 22.1702C70.4716 22.677 70.6884 23.1838 70.8511 23.4372C71.3932 24.1973 72.3147 24.4507 73.3447 24.0706C73.7241 23.9439 74.1578 23.7539 74.5915 23.4372C76.1093 22.4236 77.3561 21.0933 79.3619 18.3061C81.3134 15.5821 81.7471 14.9487 82.0723 14.822C82.1807 14.822 82.2891 14.822 82.4518 14.822C82.4518 14.822 82.5602 14.822 82.5602 14.8853L82.6144 14.9487ZM70.4174 19.8897C70.4174 19.8897 70.4174 19.8897 70.4174 19.9531C70.5258 19.9531 70.58 19.9531 70.6884 19.9531C70.9053 19.8897 71.1763 19.6997 71.61 19.3196C72.3147 18.6861 73.2363 17.2292 73.3989 16.4057C73.5615 15.9622 73.5615 15.4555 73.5073 15.2021C73.4531 14.9487 73.3447 14.822 73.182 14.6953C72.9652 14.6953 72.7484 14.5686 72.64 14.6319C72.2605 14.7586 71.61 15.6455 71.2305 16.3423C70.7426 17.4192 70.2548 19.4463 70.3632 19.8897H70.4174Z" fill="white"/>
<path d="M98.8229 9.75419C98.8229 9.75419 98.6602 10.261 98.1723 10.8944C96.7087 12.7948 94.6488 14.6953 93.4562 15.3287C93.2393 15.4554 93.0767 15.5188 92.8599 15.5821C92.643 15.6455 92.4804 15.7088 92.1552 15.7088C90.5831 15.8988 89.77 14.8853 89.011 11.7813C88.8484 11.1478 88.6858 10.5777 88.6858 10.641C88.6316 10.641 88.1979 11.1478 87.71 11.908C86.2464 13.9351 84.6743 16.849 83.2649 20.1431C82.7589 21.2833 82.3795 21.9168 82.1265 22.0435C81.8013 22.1702 81.6386 22.1702 81.476 22.0435C81.3676 21.9802 81.3134 21.8535 81.2592 21.6634C81.1508 21.2833 81.1508 20.5865 81.2592 19.3196C81.4218 15.5821 81.7471 12.9215 82.2891 11.3379C82.5602 10.451 82.8312 10.1343 83.3191 9.94423C83.4275 9.94423 83.5359 9.94423 83.6444 9.88088C83.9696 9.88088 84.1865 9.88088 84.2407 10.1343C84.2407 10.261 84.2407 10.5144 84.078 10.8944C83.7528 11.6546 82.7228 17.0391 82.8312 17.4825C82.8312 17.4825 83.2649 16.849 83.6444 16.0255C84.8912 13.6184 86.6801 10.9578 87.6558 10.0709C87.9811 9.81754 88.3063 9.62749 88.6858 9.5008C89.1195 9.37411 89.4989 9.31076 89.7158 9.5008C90.2036 9.75419 90.3663 10.1976 90.7457 11.8446C91.1252 13.4283 91.5047 14.2518 92.0467 14.6319C92.2636 14.8219 92.372 14.8219 92.5346 14.8219C92.5888 14.8219 92.643 14.8219 92.7515 14.6953C93.3478 14.3785 95.4619 12.5415 96.4377 11.4012C97.4134 10.261 97.7387 9.94423 98.0097 9.88088C98.0639 9.88088 98.1724 9.88088 98.2266 9.88088C98.4976 9.88088 98.606 9.88088 98.606 10.0709L98.8229 9.75419Z" fill="white"/>
<path d="M110.424 5.95325C110.424 5.95325 110.424 6.20664 110.369 6.46003C110.044 7.60027 107.388 12.3513 106.195 13.8716L105.274 15.0752C104.948 15.582 103.647 16.7222 102.997 17.1023C102.509 17.4191 101.913 17.6724 101.479 17.7991C101.371 17.7991 101.208 17.7991 101.1 17.8625C100.07 17.9892 99.2565 17.8625 98.5518 17.3557C97.8471 16.8489 97.4134 16.0254 97.1966 14.9485C96.8713 13.6182 96.9255 11.8445 97.4134 9.81742C98.0639 7.15684 99.3107 5.44648 100.829 4.9397H101.154C101.859 4.62296 102.075 4.62296 102.509 4.9397C102.78 5.06639 102.834 5.12974 102.889 5.44648C102.889 5.57317 102.889 5.76321 102.943 6.07995C103.105 7.34689 102.943 8.67717 102.509 9.31064C102.292 9.69072 102.184 9.81742 101.967 9.88076C101.859 9.88076 101.75 9.88076 101.642 9.94411C101.316 9.94411 100.991 9.94411 100.883 9.94411C100.774 9.88076 100.666 9.69072 100.612 9.43734C100.449 8.80387 100.503 7.85366 100.774 6.90346L100.991 6.20664L100.72 6.46003C100.124 7.0935 99.3107 9.56403 99.0397 11.4644C98.8771 12.7947 98.9313 13.935 99.0939 14.7585C99.2565 15.4553 99.5276 15.9621 99.9612 16.2788C100.503 16.6589 100.883 16.7856 101.371 16.5955C101.75 16.4689 102.13 16.2155 102.672 15.8354C103.647 15.0119 104.732 13.7449 105.87 12.0346C106.9 10.5142 109.014 6.9668 109.339 6.33333C109.502 6.0166 109.61 5.8899 109.936 5.76321C110.261 5.63652 110.424 5.63652 110.478 5.76321L110.424 5.95325Z" fill="white"/>
<path d="M123 2.02595C123 2.02595 122.729 2.65942 121.645 4.43314C119.368 8.04392 117.742 10.0077 115.736 11.2746C115.248 11.5913 114.598 11.8447 113.893 12.0981C113.351 12.2882 112.809 12.4149 112.483 12.4149C110.749 12.4149 109.556 11.4647 109.177 9.88098C109.068 9.5009 109.014 9.12082 109.014 8.67739C109.014 8.17061 109.014 7.66384 109.014 7.53714C108.96 7.09371 109.665 4.62318 110.153 3.60963C110.803 2.27934 111.833 1.26579 112.971 0.885707H113.297C113.947 0.695666 114.381 0.759013 114.869 1.07575C115.14 1.26579 115.194 1.45583 115.357 2.02595C115.573 3.0395 115.357 3.98971 114.435 5.44669C113.568 6.90367 112.809 7.53714 111.562 7.91722L110.64 8.23396V8.55069C110.64 8.55069 110.64 8.99412 110.749 9.31086C110.857 9.81763 111.074 10.3244 111.237 10.5778C111.779 11.338 112.7 11.5913 113.73 11.2113C114.11 11.0846 114.543 10.8945 114.977 10.5778C116.495 9.56424 117.742 8.23396 119.747 5.44669C121.699 2.72277 122.133 2.0893 122.458 1.96261C122.566 1.96261 122.675 1.96261 122.837 1.96261C122.837 1.96261 122.892 1.96261 122.946 2.02595H123ZM110.803 6.96702C110.803 6.96702 110.803 6.96702 110.803 7.03036C110.857 7.03036 110.966 7.03036 111.074 7.03036C111.291 6.96702 111.562 6.77698 111.941 6.39689C112.646 5.76342 113.568 4.30644 113.73 3.48293C113.893 3.0395 113.893 2.59608 113.839 2.27934C113.784 2.02595 113.676 1.89926 113.513 1.77256C113.297 1.77256 113.08 1.64587 112.971 1.70922C112.592 1.83591 111.941 2.65942 111.562 3.41959C111.074 4.49648 110.586 6.52359 110.695 6.96702H110.803Z" fill="white"/>
</g>
<defs>
<clipPath id="clip0_11_1674">
<rect width="123" height="61.89" fill="white" transform="translate(0 0.695801)"/>
</clipPath>
</defs>
</svg>
